<?xml version="1.0" encoding="utf-8"?>
<!-- Generator: Adobe Illustrator 26.3.1, SVG Export Plug-In . SVG Version: 6.00 Build 0)  -->
<svg version="1.1" id="Layer_1" xmlns="http://www.w3.org/2000/svg" xmlns:xlink="http://www.w3.org/1999/xlink" x="0px" y="0px"
	 viewBox="0 0 492 338" style="enable-background:new 0 0 492 338;" xml:space="preserve">
<style type="text/css">
	.st0{fill:#D4E1F4;}
	.st1{fill:#3A0CA3;}
	.st2{fill:#F20775;}
</style>
<g>
	<path class="st0" d="M288.7,129.2c0.3-0.7,0.4-1.4,0.4-2.1c0-9.5,0.1-20.2,0.2-21.4c2.7-52.5,46.1-93.5,98.7-93.4
		c0.4,0,0.7,0,1.1,0c0.8,0,1.7,0,2.5,0.1c1.2,0,2.5,0.1,3.7,0.2c-49.5,3.7-88.5,43.6-91.1,93.1c-0.1,1.2-0.1,11.9-0.2,21.4
		c0,0.7-0.1,1.4-0.4,2.1l-19.4,50.9h-15L288.7,129.2z"/>
	<path class="st0" d="M319.2,186.1v34.4c0,8.9,6.7,16.3,15.5,17.2c-7.6,0-11.8,0.1-12.7,0.1c-4.7,0.1-9.2-1.6-12.6-4.9
		s-5.2-7.7-5.2-12.4v-34.4c0-3.3-2.7-6-6-6h15C316.5,180.1,319.2,182.8,319.2,186.1z"/>
	<path class="st0" d="M202.1,129.2c-0.3-0.7-0.4-1.4-0.4-2.1c0-9.5-0.1-20.2-0.2-21.4c-2.7-52.5-46.1-93.5-98.7-93.4
		c-0.4,0-0.7,0-1.1,0c-0.8,0-1.7,0-2.5,0.1c-1.2,0-2.5,0.1-3.7,0.2c49.5,3.7,88.5,43.6,91.1,93.1c0.1,1.2,0.1,11.9,0.2,21.4
		c0,0.7,0.1,1.4,0.4,2.1l19.4,50.9h15L202.1,129.2z"/>
	<path class="st0" d="M171.6,186.1v34.4c0,8.9-6.7,16.3-15.5,17.2c7.6,0,11.8,0.1,12.7,0.1c4.7,0.1,9.2-1.6,12.6-4.9
		c3.4-3.3,5.2-7.7,5.2-12.4v-34.4c0-3.3,2.7-6,6-6h-15C174.3,180.1,171.6,182.8,171.6,186.1z"/>
	<g>
		<path class="st1" d="M393,0.4c-0.9,0-1.9-0.1-2.9-0.1c0,0,0,0-0.1,0l0,0C330.7-0.3,281.5,45.8,278.2,105c-0.1,1.8-0.2,16.1-0.2,21
			l-19.6,51.6c-1.3,3.3-0.8,7,1.2,9.8c2,2.9,5.3,4.6,8.8,4.6h24.9v28.5c0,7.9,3.2,15.5,8.9,21c5.7,5.5,13.4,8.5,21.3,8.3
			c0.7,0,5.6-0.1,30.5-0.2c3.9,0,7.4,2.5,8.6,6.2v76c0,3.3,2.7,6,6,6h93.5c1.6,0,3.2-0.7,4.3-1.8c1.1-1.2,1.7-2.7,1.7-4.4
			c0-1-3.6-104.2,0-143c0.8-8.8,8.7-29.7,11.8-37.4c16.4-31.5,15.5-69.3-2.5-99.9C459.8,20.8,427.9,1.6,393,0.4z M465.4,54.6h-39.6
			c-16.4,0-29.7-13.3-29.7-29.7V12.6C424.6,14.7,450.3,30.3,465.4,54.6z M338.3,26.1v12.8c0,13.3-10.7,24-24,24h-11.8
			C310.9,47.7,323.3,35,338.3,26.1z M290.6,100.5h15.8c4.5,0,8.8,2.4,11.1,6.3c2.3,3.9,2.3,8.8,0,12.7s-6.5,6.3-11.1,6.3h-16.3
			c0-9.1,0.1-18.9,0.1-20.1C290.3,103.9,290.4,102.2,290.6,100.5z M323,237.8c-4.7,0.1-9.2-1.6-12.6-4.9s-5.2-7.7-5.2-12.4v-34.4
			c0-3.3-2.7-6-6-6h-29l16.2-42.3h20c8.8,0.1,17-4.6,21.5-12.3c4.4-7.6,4.4-17.1,0-24.7c-4.4-7.6-12.6-12.3-21.5-12.3h-13.8
			c1.1-4.6,2.5-9.1,4.2-13.5h17.5c19.9,0,36-16.1,36-36V20.1c10.7-4.5,22.2-7.1,33.8-7.7V25c0,23,18.6,41.7,41.7,41.7h46
			c4.9,11.2,7.5,23.2,7.7,35.4L436,112.9c-18-17.2-45-20.9-67-9.2s-34,36.1-29.8,60.7c4.2,24.5,23.6,43.6,48.2,47.4
			c-4,15.2-17.7,25.8-33.4,25.8h-0.2C334.7,237.7,324.3,237.8,323,237.8z M426.5,188.9l-13.1-19.4c7.4-8.7,7.3-21.5-0.3-30.1
			c-7.6-8.5-20.4-10.1-29.9-3.7c-9.5,6.4-12.7,18.9-7.6,29.1c5.1,10.2,17,15.1,27.9,11.4l13.1,19.3c-21.6,10.9-47.9,3.1-60.2-17.7
			c-12.3-20.9-6.2-47.6,13.8-61.2s47.1-9.3,62,9.7C447,145.4,444.6,172.8,426.5,188.9L426.5,188.9z M406.1,158.8l-5.1-7.5
			c-1.9-2.7-5.6-3.5-8.3-1.6c-2.7,1.9-3.5,5.6-1.6,8.3l5.1,7.5h-0.1c-4.8,0-9-3.1-10.4-7.7c-1.4-4.6,0.4-9.6,4.4-12.2
			c4-2.7,9.3-2.4,13,0.6C406.7,149.3,408,154.4,406.1,158.8z M393.8,267.3c0-2.3,1.9-4.2,4.2-4.2c2.3,0,4.2,1.9,4.2,4.2
			c0,2.3-1.9,4.2-4.2,4.2S393.8,269.6,393.8,267.3z M468.7,146.3c-1.2,2.9-11.6,28.9-12.7,41.1c-3.2,34.5-1,115.2-0.2,138.4h-13.4
			v-7.9c0-3.3-2.7-6-6-6s-6,2.7-6,6v7.9H404v-43.4c7.2-2.9,11.3-10.4,9.9-18.1c-1.5-7.6-8.1-13.1-15.9-13.1s-14.4,5.5-15.9,13.1
			s2.7,15.2,9.9,18.1v43.4h-17.6V255c0-0.5-0.1-1-0.2-1.5c-0.7-2.6-1.8-5-3.3-7.2c14.6-5.8,25.4-18.6,28.6-34
			c8.4-0.5,16.5-2.8,23.9-6.8l7.1,10.4v33.6c-7.2,2.9-11.4,10.4-9.9,18c1.4,7.6,8.1,13.1,15.8,13.1s14.4-5.5,15.9-13.1
			s-2.6-15.2-9.8-18.1V214c0-1.2-0.4-2.4-1-3.4l-8.1-12c22.4-18.8,27.2-51.3,11.2-75.7l34.3-8.5c-1.4,10.9-4.7,21.5-9.8,31.2
			C468.9,145.9,468.8,146.1,468.7,146.3L468.7,146.3z M436.4,260.3c2.3,0,4.2,1.9,4.2,4.2c0,2.3-1.9,4.2-4.2,4.2
			c-2.3,0-4.2-1.9-4.2-4.2C432.2,262.2,434.1,260.3,436.4,260.3L436.4,260.3z"/>
		<path class="st1" d="M433.1,136.8c-1-2-2.1-3.9-3.3-5.7c-1.4-2.1-3.1-4-4.9-5.8c-2.4-2.3-6.1-2.3-8.5,0.1
			c-2.3,2.4-2.3,6.1,0.1,8.5c1.3,1.3,2.4,2.6,3.4,4.1c0.9,1.3,1.7,2.6,2.4,4c1.9,3.9,2.9,8.3,2.9,12.6c0,1.2-0.1,2.3-0.2,3.5
			c-0.4,3.3,1.9,6.3,5.2,6.7c0.2,0,0.5,0,0.7,0c3,0,5.6-2.3,5.9-5.3c0.2-1.6,0.3-3.3,0.3-4.9C437.2,148.5,435.8,142.4,433.1,136.8z"
			/>
		<path class="st1" d="M371.7,121.5c-6.3,4.6-11.2,11-14,18.3c-0.8,2-0.5,4.3,0.9,6c1.3,1.7,3.5,2.5,5.6,2.2s3.9-1.8,4.7-3.8
			c2-5.2,5.4-9.7,9.9-13c1.8-1.3,2.7-3.4,2.5-5.5s-1.6-4-3.6-4.9C375.7,120,373.4,120.2,371.7,121.5L371.7,121.5z"/>
		<path class="st1" d="M375.4,190.2c6.3,3.7,13.4,5.6,20.7,5.6l0,0c0.5,0,1.1,0,1.6,0c2.2-0.1,4.1-1.3,5.1-3.2c1-1.9,0.9-4.2-0.2-6
			c-1.2-1.8-3.2-2.9-5.3-2.8c-0.4,0-0.7,0-1.1,0c-5.2,0-10.2-1.4-14.7-4c-1.9-1.1-4.1-1.1-6,0s-3,3-3,5.2
			C372.3,187.2,373.5,189.2,375.4,190.2z"/>
		<path class="st1" d="M436.4,290c-3.3,0-6,2.7-6,6v0.2c0,3.3,2.7,6,6,6s6-2.7,6-6V296C442.4,292.7,439.7,290,436.4,290z"/>
	</g>
	<path class="st2" d="M213.7,126c0-4.9-0.1-19.2-0.2-21C210.3,45.8,160.9-0.4,101.6,0.3c-1,0-1.9,0-2.8,0.1
		C63.8,1.6,32,20.8,14.6,51.1c-18,30.7-18.9,68.4-2.5,99.9c3.1,7.7,11,28.7,11.8,37.4c3.6,38.9,0,142,0,143
		c-0.1,1.6,0.5,3.2,1.7,4.4c1.1,1.2,2.7,1.8,4.3,1.8h93.5c3.3,0,6-2.7,6-6v-76c1.2-3.7,4.7-6.2,8.6-6.2l0,0
		c24.9,0.1,29.8,0.2,30.5,0.2c7.9,0.2,15.6-2.7,21.3-8.3c5.7-5.5,8.9-13.1,8.9-21v-28.4h24.9c3.5,0,6.8-1.7,8.8-4.6s2.4-6.6,1.2-9.8
		L213.7,126z M192.6,180.1c-3.3,0-6,2.7-6,6v34.4c0,4.7-1.9,9.2-5.2,12.4c-3.4,3.3-7.9,5-12.6,4.9c-1.3,0-11.7-0.1-30.8-0.2h-0.2
		c-17.9-0.1-32.8-13.8-34.4-31.7c-0.1-2.2-1.4-4.1-3.4-5c-1.9-0.9-4.2-0.7-6,0.5s-2.7,3.3-2.5,5.5c1.5,17.6,12.9,32.9,29.4,39.4
		c-1.6,2.2-2.7,4.6-3.3,7.2c-0.1,0.5-0.2,1-0.2,1.5v70.8H36c0.7-23.2,3-103.9-0.2-138.4c-1.1-12.2-11.5-38.2-12.7-41.1
		c-0.1-0.2-0.2-0.4-0.2-0.5C8.2,117.9,9,84.4,25,57.2c15.3-26.8,43.4-43.7,74.3-44.8c0.8,0,1.7-0.1,2.6-0.1c0.4,0,0.7,0,1.1,0
		c52.5-0.1,95.9,41,98.7,93.4c0.1,1.2,0.1,11.9,0.2,21.4c0,0.7,0.1,1.4,0.4,2.1l19.4,50.9H192.6z"/>
</g>
</svg>
