<?xml version="1.0" encoding="utf-8"?>
<!-- Generator: Adobe Illustrator 26.3.1, SVG Export Plug-In . SVG Version: 6.00 Build 0)  -->
<svg version="1.1" id="Layer_1" xmlns="http://www.w3.org/2000/svg" xmlns:xlink="http://www.w3.org/1999/xlink" x="0px" y="0px"
	 viewBox="0 0 504 411" style="enable-background:new 0 0 504 411;" xml:space="preserve">
<style type="text/css">
	.st0{fill:#D4E1F4;}
	.st1{fill:#3A0CA3;}
	.st2{fill:#F20775;}
</style>
<g>
	<path class="st0" d="M274.1,161.5h-30l0.1,136l29.9,0.8V161.5z"/>
	<path class="st0" d="M80.1,100.5h30v229h-30V100.5z"/>
	<path class="st1" d="M198.2,94.5h-14.1v-23c0-3.3-2.5-5.9-5.8-6h-0.1h-33.1V25.9c0-3.3-2.7-6-6-6s-6,2.7-6,6v39.6h-33
		c-3.3,0-6,2.7-6,6v23H80.2c-3.3,0-6.1,2.3-6.1,5.6v237.4h12v-2h98v-12h-98v-21h106v13h12V100.1c0-3.1-2.5-5.6-5.7-5.6
		C198.3,94.5,198.2,94.5,198.2,94.5z M106.1,77.5h66v17h-66V77.5z M192.1,106.5v20h-106v-20H192.1z M86.1,237.5h106v20h-106V237.5z
		 M86.1,225.5v-21h106v21H86.1z M86.1,192.5v-21h106v21H86.1z M86.1,159.5v-21h106v21H86.1z M86.1,290.5v-21h106v21H86.1z"/>
	<path class="st1" d="M436.3,0.5H324.6c-2.9-0.2-5.3,2-5.5,4.9c0,0.2,0,0.4,0,0.6v46l-35.5,27.4c-1.5,1.1-2.4,2.9-2.5,4.7v71.4
		h-36.8c-3.4,0.2-6.1,3-6.2,6.4v133.6h12v-19h106v25h-51v12h51v24h-13v12h15l10-7V161.9c0-3.3-2.4-6.4-5.8-6.4h-32.2l1-143h24v118.6
		c0,3.3,2.7,6,6,6s6-2.7,6-6V12.5h26v323h12v-323h25v327h12V6C442.1,2.7,439.6,0.5,436.3,0.5L436.3,0.5z M293.1,87.1l25-19.6v88h-25
		V87.1z M356.1,264.5h-106v-24h106V264.5z M356.1,228.5h-106v-24h106V228.5z M356.1,167.5v25h-106v-25H356.1z"/>
	<path class="st2" d="M498.6,377.5H493c-9-19-29.2-35.7-55-43.5c-11.5-3.4-23.4-5.1-35.3-5c-1.3,0-2.6,0.1-3.9,0.1
		c-13.1,0.4-26.1,2.9-38.5,7.4c-1.4,0.5-2.7,1.1-4.1,1.6c-2.4,1-4.8,2.1-7.1,3.3c-0.2-0.4-0.4-0.7-0.7-1.1
		c-10.1-15.8-23.7-28.9-39.9-38.4c-0.1,0-0.1-0.1-0.2-0.1c-19.6-11.4-42.5-15.8-64.9-12.5c-17.9,2.7-34.8,10.1-49,21.3
		c-5.5,4.3-10.6,9.1-15.3,14.4c-5.8,6.6-11,13.8-15.3,21.4c-17.3-11.3-39.1-17.5-62.3-17.5c-7.5-0.1-15,0.5-22.4,1.8
		c-31.8,6-57.4,23.8-67.9,46.8H5.6c-3.3,0-5.5,3.1-5.5,6.4V405c-0.2,2.9,2,5.4,4.9,5.5c0.2,0,0.4,0,0.6,0h492.9
		c2.9,0.2,5.4-2,5.5-4.9c0-0.2,0-0.4,0-0.6v-21.1C504.1,380.6,501.9,377.5,498.6,377.5z M360.9,349.3c1.2-0.5,2.4-1,3.6-1.4
		c11.1-4.1,22.8-6.4,34.7-6.7c1.2,0,2.4-0.1,3.5-0.1c10.8-0.1,21.5,1.4,31.9,4.4c20.2,6.1,36.4,18,44.9,32H325.9
		c5.3-9,13.6-16.7,24.1-22.9C353.5,352.6,357.1,350.8,360.9,349.3L360.9,349.3z M188.1,333.2c4.2-4.7,8.8-9,13.7-12.9
		c12.6-10,27.5-16.5,43.3-18.9c19.8-2.9,40.1,1,57.4,11.2c0.1,0,0.1,0.1,0.2,0.1c14.4,8.5,26.6,20.3,35.6,34.4
		c0.1,0.2,0.3,0.3,0.4,0.5c-11.3,7.5-20.4,17.9-26.4,30H191.8c-4.5-9-10.8-17.1-18.3-23.8C177.6,346.3,182.5,339.4,188.1,333.2
		L188.1,333.2z M81.3,342.8c6.7-1.2,13.5-1.7,20.3-1.7c23.2,0,44.7,6.6,60.7,18.9c6.3,4.9,11.8,10.9,16.1,17.6H24.7
		C34.9,360.5,55.7,347.4,81.3,342.8z M492.1,398.5h-480v-9h480V398.5z"/>
</g>
</svg>
