<?xml version="1.0" encoding="utf-8"?>
<!-- Generator: Adobe Illustrator 26.2.1, SVG Export Plug-In . SVG Version: 6.00 Build 0)  -->
<svg version="1.1" id="Layer_1" xmlns="http://www.w3.org/2000/svg" xmlns:xlink="http://www.w3.org/1999/xlink" x="0px" y="0px"
	 viewBox="0 0 512 512" style="enable-background:new 0 0 512 512;" xml:space="preserve">
<style type="text/css">
	.st0{fill:#D4E1F4;}
	.st1{fill:#F20775;}
	.st2{fill:#3A0CA3;}
</style>
<path class="st0" d="M405.1,476.3l-89.4-63.5l-21,21l89.5,63.5c8.7,5.8,20.2,4.6,27.6-2.7l21-21C425.3,481,413.8,482.1,405.1,476.3
	L405.1,476.3z"/>
<path class="st0" d="M78.2,217.3l21-21l-63.5-89.4c-5.8-8.7-4.6-20.2,2.7-27.6l-21,21c-7.4,7.4-8.5,18.9-2.7,27.6L78.2,217.3z"/>
<path class="st1" d="M234.3,239.1l33.7,0c3.3,0,6-2.7,6-6c0,0,0,0,0,0l-0.1-33.8c0-12.6-10.2-22.8-22.8-22.9c0,0,0,0,0,0h0
	c-10.6,0-19.8,7.3-22.3,17.6c-12.2,3.1-19.7,15.5-16.6,27.7C214.7,232,223.8,239.1,234.3,239.1L234.3,239.1z M226.6,208.6
	c2-2,4.7-3.1,7.5-3.2c1.5,0,2.9-0.6,4-1.6l0.1-0.1c1.2-1.1,1.9-2.7,1.9-4.4c0-6,4.9-10.8,10.9-10.9h0c6,0,10.8,4.9,10.8,10.8
	c0,0,0,0,0,0l0.1,27.8l-27.7,0c-6,0-10.8-4.9-10.8-10.8C223.5,213.4,224.6,210.6,226.6,208.6L226.6,208.6z"/>
<path class="st1" d="M399.4,236.3L275.7,112.6c-10.9-10.9-28.5-10.9-39.4,0l-85.8,85.8c-2.3,2.3-2.3,6.1,0,8.5
	c0.2,0.2,0.4,0.4,0.6,0.5c2.4,1.8,5.7,1.6,7.9-0.5l85.8-85.8c6.2-6.2,16.2-6.2,22.4,0l123.7,123.7c6.2,6.2,6.2,16.2,0,22.4
	L267.2,390.9c-6.2,6.2-16.2,6.2-22.4,0L201.9,348l13.5-13.5l48,23.6c3,1.5,6.6,0.2,8-2.7c0.9-1.8,0.8-4-0.2-5.7l-42.7-71.8l60,24.7
	c3.1,1.3,6.6-0.2,7.8-3.3c0.5-1.3,0.6-2.8,0.2-4.1l-10.2-31.6l35-35c2.3-2.4,2.3-6.2-0.1-8.5c-2.3-2.3-6.1-2.3-8.4,0l-37.6,37.6
	c-1.6,1.6-2.2,3.9-1.5,6.1l7.3,22.8l-64.7-26.6c-3.1-1.3-6.6,0.2-7.8,3.3c-0.7,1.7-0.6,3.7,0.4,5.4l41.6,69.9l-33.7-16.6
	c-2.3-1.1-5.1-0.7-6.9,1.1l-16.6,16.6l-72.3-72.3c-6.2-6.2-6.2-16.2,0-22.4l9.3-9.3c2.3-2.3,2.3-6.1,0-8.5c-0.2-0.2-0.4-0.4-0.6-0.5
	c-2.4-1.8-5.7-1.6-7.9,0.5l-9.3,9.3c-10.9,10.9-10.9,28.5,0,39.4l123.7,123.7c10.9,10.9,28.5,10.9,39.4,0l123.7-123.7
	C410.3,264.8,410.3,247.2,399.4,236.3L399.4,236.3z"/>
<g>
	<path class="st2" d="M502.2,380.6l-60.6-85.3l4.1-4.1c19.4-19.4,19.4-50.9,0-70.3L291.2,66.2c-19.4-19.4-50.9-19.4-70.3,0l-4.1,4.1
		L131.4,9.8c0,0-0.1-0.1-0.1-0.1c-11.1-7.3-25.8-5.9-35.2,3.5L13.2,96c-9.4,9.4-10.8,24.1-3.5,35.2c0,0,0.1,0.1,0.1,0.1l60.6,85.3
		l-4.2,4.1c-19.4,19.4-19.4,50.9,0,70.3l154.6,154.6c19.4,19.4,50.9,19.4,70.3,0l4.1-4.1l85.3,60.6c0,0,0.1,0.1,0.1,0.1
		c11.1,7.3,25.8,5.9,35.2-3.5l82.9-82.9c9.4-9.4,10.8-24.1,3.5-35.2C502.3,380.7,502.3,380.7,502.2,380.6L502.2,380.6z M19.6,124.5
		c-4.1-6.3-3.3-14.6,2-20l82.9-82.9c5.3-5.3,13.7-6.2,20-2L208.1,79L79,208.1L19.6,124.5z M490.4,407.5l-82.9,82.9
		c-5.3,5.3-13.7,6.2-20,2L303.9,433l90.9-90.9c2.4-2.3,2.4-6.1,0.1-8.5c-2.3-2.4-6.1-2.4-8.5-0.1c0,0,0,0-0.1,0.1L282.7,437.3
		c-14.7,14.7-38.6,14.7-53.4,0L74.7,282.7c-14.7-14.7-14.7-38.6,0-53.4L229.3,74.7c14.7-14.7,38.6-14.7,53.4,0l154.6,154.6
		c14.7,14.7,14.7,38.6,0,53.4l-22.4,22.4c-2.4,2.3-2.4,6.1-0.1,8.5c2.3,2.4,6.1,2.4,8.5,0.1c0,0,0,0,0.1-0.1l9.6-9.6l59.3,83.6
		C496.5,393.8,495.7,402.1,490.4,407.5L490.4,407.5z"/>
	<path class="st2" d="M67.8,147l-19.6-27.8c-1.9-2.7-5.7-3.3-8.4-1.4c-2.7,1.9-3.3,5.7-1.4,8.4L58,153.9c1.9,2.7,5.7,3.3,8.4,1.4
		C69,153.4,69.7,149.7,67.8,147z"/>
	<path class="st2" d="M79.6,162.1c-1.9-2.7-5.7-3.3-8.4-1.4c-2.7,1.9-3.3,5.7-1.4,8.4l4.5,6.3c1.9,2.7,5.6,3.4,8.4,1.5
		c2.7-1.9,3.4-5.6,1.5-8.4c0,0,0,0,0-0.1L79.6,162.1z"/>
	<path class="st2" d="M332.9,94.5c-2.3,2.3-2.3,6.1,0,8.5l19.4,19.4c2.3,2.3,6.1,2.3,8.5,0c2.3-2.3,2.3-6.1,0-8.5l0,0l-19.4-19.4
		C339,92.1,335.2,92.1,332.9,94.5z"/>
	<path class="st2" d="M368.8,130.4c-2.3,2.3-2.3,6.1,0,8.5l10.7,10.7c2.3,2.3,6.1,2.3,8.5,0c2.3-2.3,2.3-6.1,0-8.5l-10.7-10.7
		C375,128.1,371.2,128.1,368.8,130.4z"/>
</g>
</svg>
