<?xml version="1.0" encoding="utf-8"?>
<!-- Generator: Adobe Illustrator 26.3.1, SVG Export Plug-In . SVG Version: 6.00 Build 0)  -->
<svg version="1.1" id="Layer_1" xmlns="http://www.w3.org/2000/svg" xmlns:xlink="http://www.w3.org/1999/xlink" x="0px" y="0px"
	 viewBox="0 0 503 433" style="enable-background:new 0 0 503 433;" xml:space="preserve">
<style type="text/css">
	.st0{fill:#D4E1F4;}
	.st1{fill:#F20775;}
	.st2{fill:#3A0CA3;}
</style>
<g>
	<path class="st0" d="M48.8,22.8v194.9h30V22.8c0-9.1,7.4-16.4,16.4-16.4l0,0h-30C56.2,6.4,48.8,13.8,48.8,22.8L48.8,22.8z"/>
	<path class="st1" d="M37.7,252.7L37.7,252.7c3.4,0,6.1-2.7,6-6l0,0c0-3.3-2.7-6-6-6s-6,2.7-6,6S34.3,252.7,37.7,252.7L37.7,252.7z"
		/>
	<circle class="st1" cx="63.8" cy="404.7" r="8.9"/>
	<path class="st1" d="M422.3,400.8h-14.5c-3.3,0-6,2.7-6,6s2.7,6,6,6h14.5c3.3,0,6-2.7,6-6S425.7,400.8,422.3,400.8L422.3,400.8z"/>
	<path class="st1" d="M476.2,235.4h-122c-3.3,0-6,2.7-6,6V277c0,3.3,2.7,6,6,6s6-2.7,6-6v-29.6h110v137.1h-110V317c0-3.3-2.7-6-6-6
		s-6,2.7-6,6v73.5c0,3.3,2.7,6,6,6h122c3.3,0,6-2.7,6-6V241.4C482.2,238.2,479.5,235.4,476.2,235.4z"/>
	<g>
		<path class="st2" d="M121.2,296.8h60.2v18.7c0,5.8-4.7,10.4-10.4,10.4c-16.9,0-30.6,13.7-30.7,30.7c0,3.3,2.7,6,6,6H319
			c3.3,0,6-2.7,6-6c0-16.4-12.9-29.8-29.2-30.6c-0.2,0-0.4,0-0.7,0h-0.8c-5.8,0-10.4-4.7-10.4-10.4V297h49.9v-12H121.2V296.8z
			 M274.5,326h-27.6c-3.3,0-6,2.7-6,6s2.7,6,6,6l0,0h47.4c8,0,15.1,5.1,17.7,12.7H153.3c2.6-7.6,9.7-12.7,17.7-12.7
			c12.4,0,22.4-10.1,22.4-22.4V297h78.4v18.7C271.8,319.2,272.8,322.8,274.5,326z"/>
		<path class="st2" d="M404.8,0.4H65.3c-12.4,0-22.4,10.1-22.4,22.4v194.9h12V22.8c0-5.8,4.7-10.4,10.4-10.4h339.5
			c5.8,0,10.4,4.7,10.4,10.4v196.2h12V22.8C427.2,10.5,417.2,0.4,404.8,0.4z"/>
		<path class="st2" d="M246.8,262c0-7.9-6.4-14.2-14.2-14.2s-14.2,6.4-14.2,14.2c0,7.8,6.4,14.2,14.2,14.2l0,0
			C240.4,276.2,246.8,270,246.8,262z M230.4,262c0-1.2,1-2.2,2.2-2.2s2.2,1,2.2,2.2s-1,2.2-2.2,2.2l0,0
			C231.4,264.2,230.4,263.3,230.4,262z"/>
		<path class="st2" d="M226.3,326h-0.4c-3.3,0-6,2.7-6,6s2.7,6,6,6l0,0h0.4c3.3,0,6-2.7,6-6S229.6,326,226.3,326L226.3,326z"/>
		<path class="st2" d="M154.6,233.3c0-3.3-2.7-6-6-6h-27.3v12h27.3C151.9,239.3,154.6,236.7,154.6,233.3z"/>
		<path class="st2" d="M182.6,233.3c0,3.3,2.7,6,6,6h145.2v-12H188.6C185.2,227.3,182.6,229.9,182.6,233.3L182.6,233.3z"/>
	</g>
	<path class="st1" d="M105.9,211.8H21.7c-11.8,0-21.3,9.5-21.3,21.3v178c0,11.8,9.5,21.3,21.3,21.3h84.2c11.8,0,21.3-9.5,21.3-21.3
		v-178C127.2,221.3,117.8,211.8,105.9,211.8z M21.7,223.8h84.2c5.1,0,9.3,4.2,9.3,9.3v7.6h-60c-3.3,0-6,2.7-6,6s2.7,6,6,6h60v126.1
		H12.4V252.7h8c3.3,0,6-2.7,6-6s-2.7-6-6-6h-8v-7.6C12.4,227.9,16.6,223.8,21.7,223.8z M105.9,420.5H21.7c-5.1,0-9.3-4.2-9.3-9.3
		v-20.3h102.8v20.3C115.2,416.2,111.1,420.5,105.9,420.5z"/>
	<path class="st1" d="M482.8,213.1H347.3c-10.8,0-19.5,8.8-19.6,19.6V413c0,10.8,8.8,19.5,19.6,19.6H483c10.8,0,19.5-8.8,19.6-19.6
		V232.7C502.5,221.8,493.7,213.1,482.8,213.1L482.8,213.1z M490.5,412.8c0,4.2-3.4,7.6-7.6,7.6H347.3c-4.2,0-7.6-3.4-7.6-7.6V232.7
		c0-4.2,3.4-7.6,7.6-7.6H483c4.2,0,7.6,3.4,7.6,7.6L490.5,412.8z"/>
</g>
</svg>
