<?xml version="1.0" encoding="utf-8"?>
<!-- Generator: Adobe Illustrator 26.3.1, SVG Export Plug-In . SVG Version: 6.00 Build 0)  -->
<svg version="1.1" id="Layer_1" xmlns="http://www.w3.org/2000/svg" xmlns:xlink="http://www.w3.org/1999/xlink" x="0px" y="0px"
	 viewBox="0 0 491 428" style="enable-background:new 0 0 491 428;" xml:space="preserve">
<style type="text/css">
	.st0{fill:#D4E1F4;}
	.st1{fill:#3A0CA3;}
	.st2{fill:#F20775;}
</style>
<g>
	<g>
		<path class="st0" d="M61.5,190.6c0.3-0.7,0.4-1.4,0.4-2.1c0-11.2,0.1-29.7,0.2-31.6c4.3-78.3,69.1-139.6,147.5-139.6
			c0.6,0,1.1,0,1.7,0c1.3,0,2.5,0,3.8,0.1c6.1,0.2,12.1,0.8,18.1,1.8c-12.3-4.1-25.1-6.4-38-6.8c-1.3,0-2.5-0.1-3.8-0.1
			c-0.6,0-1.1,0-1.7,0c-78.4,0-143.2,61.3-147.5,139.6c-0.1,2-0.2,20.4-0.2,31.6c0,0.7-0.1,1.5-0.4,2.1L12,262.9
			c-0.1,0.3-0.1,0.6,0.1,0.8s0.4,0.4,0.7,0.4h20.6L61.5,190.6z"/>
		<path class="st0" d="M92.5,345.5c-5.5-5.2-8.7-12.5-8.7-20.1V275c0.1-1.5-0.5-3-1.6-4.2c-1.1-1.1-2.6-1.7-4.1-1.7H63.8
			c0,0.3,0.1,0.6,0.1,0.9v50.4c0.1,7.6,3.2,14.9,8.7,20.2c5.5,5.3,12.9,8.1,20.5,7.8c0.4,0,1.4,0,2.8-0.1
			C94.7,347.5,93.6,346.5,92.5,345.5z"/>
		<path class="st0" d="M194.5,410.4l-9.1-36.1c-3.1-12.5-14.3-21.3-27.2-21.3h-0.1c-1.3,0-2.6,0-3.9,0c5.6,3.9,9.6,9.7,11.3,16.3
			l9.1,36.1c1.6,6.2,7.2,10.5,13.6,10.4h9.2C195.9,414.2,195,412.4,194.5,410.4z"/>
		<path class="st0" d="M432.1,190.6c-0.3-0.7-0.4-1.4-0.4-2.1c0-11.2-0.1-29.7-0.2-31.6c-4.3-78.3-69-139.6-147.5-139.6
			c-0.6,0-1.1,0-1.7,0c-1.3,0-2.5,0-3.8,0.1c-6.1,0.2-12.1,0.8-18.1,1.8c12.3-4.1,25.1-6.4,38-6.8c1.3,0,2.5-0.1,3.8-0.1
			c0.6,0,1.1,0,1.7,0c78.4,0,143.2,61.3,147.5,139.6c0.1,2,0.2,20.4,0.2,31.6c0,0.7,0.1,1.5,0.4,2.1l29.5,77.3
			c0.1,0.3,0.1,0.6-0.1,0.8s-0.4,0.4-0.7,0.4h-20.6L432.1,190.6z"/>
		<path class="st0" d="M401.1,345.5c5.5-5.2,8.7-12.5,8.7-20.1V275c-0.1-1.5,0.5-3,1.6-4.2c1.1-1.1,2.6-1.7,4.1-1.7h14.3
			c0,0.3-0.1,0.6-0.1,0.9v50.4c-0.1,7.6-3.2,14.9-8.7,20.2c-5.5,5.3-12.9,8.1-20.5,7.8c-0.4,0-1.4,0-2.8-0.1
			C398.9,347.5,400,346.5,401.1,345.5z"/>
		<path class="st0" d="M299.1,410.4l9.1-36.1c3.1-12.5,14.3-21.3,27.2-21.3h4.1c-5.6,3.9-9.6,9.7-11.3,16.3l-9.1,36.2
			c-1.6,6.2-7.2,10.5-13.6,10.4h-9.2C297.8,414.2,298.6,412.4,299.1,410.4z"/>
	</g>
	<path class="st1" d="M461.1,182.3c0-5.9-0.1-28.5-0.2-31.1C456.1,65.9,385.1-0.6,299.6,0.3c-1.4,0-2.7,0.1-4.1,0.1
		c-17.2,0.6-34.1,4.2-50,10.6c-15.9-6.4-32.8-10-50-10.6c-1.4-0.1-2.7-0.1-4.1-0.1c-0.6,0-1.2,0-1.8,0
		c-84.8,0-154.8,66.2-159.4,150.8c-0.2,2.7-0.2,25.3-0.2,31.2L0.8,258.6c-1.5,4-1,8.4,1.4,11.9s6.3,5.6,10.6,5.6h39.1v44.3
		c0,10.9,4.5,21.3,12.3,28.8s18.4,11.6,29.2,11.2c1.8-0.1,18.1-0.4,44.8-0.4h0.1c7.4,0.1,13.7,5.2,15.4,12.3l8.9,36.1v-0.1
		c3,11.5,13.5,19.6,25.4,19.5h114.8c11.9,0.1,22.3-8,25.2-19.5l9.1-36.2c1.8-7.2,8.2-12.2,15.6-12.2h0.1c26.7,0,43,0.4,44.7,0.4
		c10.9,0.4,21.4-3.7,29.2-11.2c7.8-7.5,12.3-17.9,12.3-28.8V276h39.1c4.2,0,8.2-2.1,10.6-5.6s2.9-7.9,1.4-11.9L461.1,182.3z
		 M478.9,263.7c-0.1,0.3-0.4,0.4-0.7,0.4h-45.3c-1.5,0-3,0.6-4.1,1.7s-1.7,2.6-1.6,4.2v50.4c0,7.6-3.1,14.9-8.6,20.2
		s-12.9,8.1-20.5,7.8c-2.4-0.1-25.9-0.4-45.1-0.4h-0.1c-12.9,0.1-24.1,8.9-27.2,21.4l-9.1,36c-1.6,6.2-7.2,10.5-13.6,10.5H188.1
		c-6.4,0-12.4-4.2-13.4-10.4v0.1l-9.1-36.2c-3.1-12.5-14.4-21.3-27.2-21.3h-0.1c-19.2,0-42.6,0.4-45.1,0.4c-7.6,0.3-15-2.6-20.5-7.8
		c-5.5-5.3-8.6-12.5-8.7-20.2v-50.4c0.1-1.5-0.5-3-1.6-4.2c-1.1-1.1-2.6-1.7-4.1-1.7H12.8c-0.3,0-0.5-0.2-0.7-0.4
		c-0.2-0.2-0.2-0.5-0.1-0.8l29.5-77.3c0.3-0.7,0.4-1.4,0.4-2.1c0-11.2,0.1-29.7,0.2-31.6c4.3-78.3,69-139.6,147.5-139.6
		c0.6,0,1.1,0,1.7,0c1.3,0,2.5,0,3.8,0.1c16.6,0.5,32.9,4.2,48.1,10.7c1.5,0.6,3.1,0.6,4.6,0.1c0.3-0.1,0.7-0.3,1-0.5
		c15-6.2,30.9-9.7,47.1-10.2c1.3,0,2.5-0.1,3.8-0.1c0.6,0,1.1,0,1.7,0c78.4,0,143.2,61.3,147.5,139.6c0.1,1.9,0.2,20.4,0.2,31.6
		c0,0.7,0.1,1.4,0.4,2.1l29.5,77.3C479.1,263.1,479,263.4,478.9,263.7L478.9,263.7z"/>
	<path class="st2" d="M297.1,162.7c-0.6-2.3-0.1-4.8,1.4-6.7c2.1-2.6,1.7-6.3-0.9-8.4c-2.6-2.1-6.4-1.7-8.4,0.9
		c-2.8,3.4-4.3,7.7-4.3,12.2c-3,0.5-5.9,1.6-8.4,3.4c-1.8,1.2-2.7,3.3-2.5,5.5c0.2,2.1,1.6,4,3.5,4.9c2,0.9,4.2,0.6,6-0.6
		c2.5-1.8,5.7-1.9,8.4-0.4c2.6,1.6,4,4.5,3.6,7.5c-0.4,3.3,1.9,6.3,5.2,6.7c3.3,0.4,6.3-1.9,6.7-5.2
		C308.4,174.4,304.3,166.5,297.1,162.7L297.1,162.7z"/>
	<path class="st2" d="M313.1,112.8c0.8-3.2-1.1-6.5-4.3-7.3c-6.5-1.7-13.3,0.7-17.3,6.1c-1.3,0-2.5-0.5-3.4-1.4
		c-2.3-2.4-6.1-2.4-8.5-0.1c-2.4,2.3-2.4,6.1-0.1,8.5c1.7,1.8,3.9,3.1,6.2,4c0.8,0.3,1.6,0.5,2.5,0.7c0.1,0.5,0.1,1.1,0.2,1.6
		c0.3,1.7,0.9,3.3,1.7,4.7c1.6,2.8,5.2,3.9,8.1,2.3c2.9-1.6,3.9-5.2,2.4-8.1c-0.2-0.4-0.4-0.9-0.5-1.3c-0.3-1.6,0.2-3.1,1.3-4.2
		s2.8-1.5,4.3-1.1s3.2,0.2,4.5-0.7C311.8,115.7,312.8,114.4,313.1,112.8z"/>
	<path class="st2" d="M189.2,187.7c3.3-0.4,5.6-3.4,5.2-6.7c-0.4-3,1-6,3.6-7.5c2.6-1.6,5.9-1.4,8.3,0.4c2.7,1.9,6.4,1.3,8.4-1.4
		c1.9-2.7,1.3-6.4-1.4-8.4c-2.5-1.8-5.4-3-8.4-3.4c0-1.5-0.2-2.9-0.5-4.3c-0.7-2.9-2-5.6-3.8-7.9c-1.3-1.7-3.5-2.5-5.6-2.2
		s-3.9,1.8-4.7,3.8s-0.4,4.3,0.9,5.9c0.7,0.9,1.2,1.9,1.5,3.1c0.3,1.2,0.2,2.5-0.1,3.7c-7.2,3.8-11.3,11.7-10.2,19.8
		c0.2,1.6,1,3,2.3,4C186,187.5,187.6,187.9,189.2,187.7z"/>
	<path class="st2" d="M188.4,106.2c0.7-0.2,1.4-0.2,2,0c2.5,0.5,4.1,2.9,3.6,5.4c-0.1,0.5-0.2,0.9-0.5,1.3c-1.1,1.9-1.1,4.2,0,6.1
		c1.1,1.9,3.1,3,5.3,2.9s4.2-1.3,5.1-3.2c0.8-1.5,1.4-3.1,1.7-4.7c0.1-0.5,0.2-1.1,0.2-1.6c0.8-0.2,1.7-0.4,2.5-0.7
		c2.4-0.8,4.5-2.2,6.2-4c2.3-2.4,2.3-6.2-0.1-8.5c-2.4-2.3-6.2-2.3-8.5,0.1c-0.9,0.9-2.1,1.4-3.4,1.4c-4-5.3-10.8-7.8-17.3-6.1
		c-2.1,0.5-3.7,2.1-4.3,4.2s0,4.3,1.5,5.8C184.1,106.1,186.3,106.7,188.4,106.2L188.4,106.2z"/>
	<path class="st2" d="M378.3,201.2c1,3.2,2.7,6.2,5,8.6c5.8,5.8,14.5,7.5,22.1,4.4s12.5-10.5,12.5-18.7s-5-15.6-12.5-18.7
		c-7.6-3.1-16.3-1.3-22,4.5v-0.2c-2.2,2.4-3.8,5.1-5,8.2h-1.7c-2.3,0-4.4-0.8-6-2.4c-1.6-1.6-2.5-3.7-2.5-6
		c0-10.2-7.5-18.9-17.6-20.3c-1.4-5.3-4.1-10.2-7.7-14.2h38.8c1,3.1,2.7,6,4.7,8.5v0.1c3.9,3.8,9.1,6,14.5,6c9.2,0,17.2-6.1,19.6-15
		s-1.4-18.2-9.4-22.9c-7.9-4.6-18-3.4-24.5,3.1c-2.3,2.3-4,5.1-5,8.2h-34.4c1.1-4.6,1-9.4-0.3-14h0.7c5.4,0,10.7-2.1,14.5-6
		c3.9-3.8,6-9,6-14.5c0-2.3,0.9-4.4,2.5-6s3.8-2.5,6.1-2.5h1.7c1,3.2,2.7,6,5,8.4c7.9,7.9,20.8,7.9,28.7,0c7.9-7.9,7.9-20.8,0-28.7
		s-20.8-7.9-28.7,0c-2.3,2.3-4,5.2-5,8.3h-1.7c-5.4,0-10.7,2.1-14.5,6c-3.9,3.8-6,9.1-6,14.5c0,2.3-0.9,4.4-2.5,6s-3.8,2.5-6.1,2.5
		h-8.3c-0.9-0.8-1.8-1.5-2.9-2.1c-0.5-0.4-1.1-0.6-1.6-0.9c2.1-10.1-0.4-20.5-6.9-28.5s-16.2-12.6-26.5-12.6c-1.8,0-3.5,0.1-5.3,0.4
		l0,0c-0.1-13-10.7-23.5-23.7-23.5s-23.6,10.5-23.7,23.5v144.9c0.1,10.3,5.9,19.7,15.2,24.3c9.2,4.6,20.3,3.5,28.5-2.7
		c1.9,0.9,3.8,1.5,5.8,2c-7,12.3-10.6,26.1-10.6,40.2v13.7h-83.8v-13.7c0-14.2-3.6-28.2-10.6-40.5c1.6-0.4,3.1-1,4.5-1.7
		c4.6,3.6,10.3,5.5,16.2,5.5c7.2,0,14-2.9,19.1-8c5-5.1,7.9-12,7.8-19.1V64.8c0-12.9-10.5-23.4-23.4-23.4s-23.4,10.5-23.4,23.4h0.1
		c-11.1-1.7-22.3,2.1-30,10.2s-10.9,19.5-8.6,30.5c-0.6,0.3-1.1,0.5-1.6,0.9c-1,0.6-2,1.3-2.9,2.1h-7.1c-2.3,0-4.4-0.9-6.1-2.5
		c-1.6-1.6-2.5-3.8-2.5-6c0-5.4-2.2-10.7-6-14.5c-3.9-3.8-9.1-6-14.5-6h-1.7c-2.1-6.8-7.6-12-14.5-13.7S84,66.1,79,71.2
		c-7.9,7.9-7.9,20.8,0,28.7s20.8,7.9,28.7,0c2.3-2.4,4-5.2,5-8.4h1.7c4.7,0,8.6,3.9,8.6,8.6c0,11.1,8.9,20.2,20,20.4
		c-1.4,4.5-1.5,9.3-0.3,13.9h-33.2c-2.1-6.8-7.7-11.9-14.6-13.6c-6.9-1.7-14.2,0.4-19.2,5.4c-7.9,7.9-7.9,20.8,0,28.7
		c8,7.9,20.9,7.9,29,0v-0.1c2.1-2.5,3.7-5.4,4.7-8.5H147c-3.7,4.1-6.4,9.1-7.8,14.5c-9.5,1.9-16.3,10.3-16.3,20c0,2.3-0.9,4.4-2.5,6
		s-3.8,2.5-6.1,2.4h-1.7c-1.1-3-2.8-5.8-5-8.1v0.1c-5.8-6-14.6-7.8-22.4-4.7c-7.7,3.1-12.8,10.6-12.8,18.9c0,8.3,5,15.8,12.7,19
		s16.5,1.3,22.4-4.6c2.3-2.4,4-5.4,5-8.6h1.7c5.4,0,10.6-2.1,14.5-5.9c3.9-3.8,6-9,6.1-14.4c0-2.7,1.4-5.3,3.6-6.9
		c1.5,11.8,9.1,22,20.1,26.7v6c0,12.3,8.3,23.1,20.2,26.2c8.4,11.8,12.8,25.9,12.8,40.4v72.9c0.1,12.4,10.1,22.5,22.5,22.6h25.4
		v22.3c0,3.3,2.7,6,6,6s6-2.7,6-6v-22.3h25.4c12.4-0.1,22.4-10.2,22.5-22.6v-73c0-14.7,4.7-29,13.5-40.8c11-3.7,18.5-14,18.5-25.7
		v-6c11.1-4.9,18.7-15.3,20.1-27.3c2.9,1.4,4.7,4.3,4.7,7.4c0,5.4,2.2,10.6,6,14.4c3.9,3.8,9.1,5.9,14.5,5.9h1.7V201.2z
		 M391.8,189.8c3.2-3.3,8.5-3.3,11.8,0c3.2,3.2,3.2,8.5,0,11.8c-3.2,3.2-8.5,3.2-11.8,0C388.5,198.3,388.5,193,391.8,189.8z
		 M391.8,79.7c3.2-3.3,8.5-3.3,11.8,0c3.2,3.2,3.2,8.5,0,11.8c-3.2,3.2-8.5,3.2-11.8,0c-1.6-1.6-2.4-3.7-2.4-5.9
		C389.3,83.3,390.2,81.2,391.8,79.7z M99.2,91.4c-3.2,3.2-8.5,3.2-11.8,0c-3.2-3.2-3.2-8.5,0-11.8c3.2-3.2,8.5-3.2,11.8,0
		C102.5,82.9,102.5,88.2,99.2,91.4L99.2,91.4z M99.2,201.6c-3.2,3.2-8.5,3.2-11.8,0c-3.2-3.2-3.2-8.5,0-11.8c3.2-3.2,8.5-3.2,11.8,0
		C102.5,193,102.5,198.3,99.2,201.6L99.2,201.6z M395,134.7c3.3-3.2,8.5-3.2,11.8,0c3.3,3.3,3.3,8.5,0,11.8c-3.2,3.3-8.5,3.3-11.8,0
		S391.8,138,395,134.7L395,134.7z M96,146.5c-3.2,3.2-8.5,3.2-11.8,0c-3.2-3.2-3.2-8.5,0-11.8c3.2-3.2,8.5-3.2,11.8,0
		C99.3,138,99.3,143.2,96,146.5z M170.7,206.8v-3.2c1,0,1.2,0,1.7,0c3.3,0,6-2.7,6-6s-2.7-6-6-6c-12.2,0-22.1-9.9-22.1-22.1
		s9.9-22.1,22.1-22.1c3.3,0,6-2.7,6-6s-2.7-6-6-6c-4.9,0-9.7,1-14.1,3.1c-0.8-0.7-1.5-1.6-2.1-2.5c-2.1-3.2-2.8-7-2.1-10.7
		c0.4-1.7,1.1-3.3,1.9-4.9h0.6v-0.9c0.9-1,1.9-2,3.1-2.8c1.9,2,5,2.5,7.4,1.1c2.9-1.7,3.8-5.3,2.2-8.2c-5.2-9.1-3.4-20.6,4.4-27.6
		c7.8-7,19.5-7.5,27.9-1.3c2.7,1.9,6.4,1.4,8.4-1.3c2-2.7,1.4-6.4-1.2-8.4c-0.6-0.4-1.2-0.8-1.8-1.2c-0.8-1.6-1.2-3.3-1.2-5.1
		c-0.1-4.1,2.1-8,5.6-10c3.6-2.1,8-2.1,11.5,0c3.6,2.1,5.7,5.9,5.6,10v144.9c0,4-1.5,7.8-4.3,10.7c-2.8,2.8-6.6,4.4-10.6,4.5
		c-2.2,0-4.5-0.5-6.5-1.5c3.6-4.7,5.6-10.5,5.6-16.4c0-3.3-2.7-6-6-6s-6,2.7-6,6c0,5.4-2.8,10.5-7.5,13.2s-10.5,2.7-15.2,0
		S170.6,212.2,170.7,206.8z M276.9,356.9h-62.8c-5.8-0.1-10.4-4.8-10.5-10.6v-1.4H259c3.3,0,6-2.7,6-6s-2.7-6-6-6h-55.4v-11h13
		c3.3,0,6-2.7,6-6s-2.7-6-6-6h-13v-11h83.8v11h-54c-3.3,0-6,2.7-6,6s2.7,6,6,6h54v11h-11.6c-3.3,0-6,2.7-6,6s2.7,6,6,6h11.6v1.4
		C287.3,352.1,282.8,356.8,276.9,356.9z M317.4,191.7c-3.3,0-6,2.7-6,6s2.8,6,6.1,6c0.6,0,0.8,0,1.8,0v3.2
		c-0.1,8.3-6.8,15.1-15.2,15.1c-8.3,0-15.1-6.7-15.2-15.1c0-3.3-2.7-6-6-6s-6,2.7-6,6c0,5.9,1.9,11.7,5.5,16.4
		c-2.1,1-4.4,1.5-6.8,1.5c-8.4,0-15.2-6.7-15.3-15.1V64.8c0.1-6.4,5.3-11.6,11.7-11.6c6.4,0,11.7,5.2,11.7,11.6
		c0,1.7-0.4,3.5-1.1,5.1c-0.6,0.4-1.2,0.8-1.8,1.2c-2.7,2-3.2,5.7-1.3,8.4c2,2.7,5.7,3.2,8.4,1.3c8.4-6.2,20.1-5.6,27.9,1.3
		c7.8,7,9.7,18.5,4.4,27.6c-1.5,2.6-0.8,6,1.6,7.8s5.8,1.5,7.9-0.7c3.5,2.4,5.6,6.3,5.9,10.5c0.3,4.2-1.3,8.4-4.4,11.3
		c-4.4-2-9.2-3.1-14.1-3.1c-3.3,0-6,2.7-6,6s2.7,6,6,6c12.2,0,22.1,9.9,22.1,22.1S329.6,191.7,317.4,191.7z"/>
</g>
</svg>
