<?xml version="1.0" encoding="utf-8"?>
<!-- Generator: Adobe Illustrator 26.2.1, SVG Export Plug-In . SVG Version: 6.00 Build 0)  -->
<svg version="1.1" id="Layer_1" xmlns="http://www.w3.org/2000/svg" xmlns:xlink="http://www.w3.org/1999/xlink" x="0px" y="0px"
	 viewBox="0 0 492 492" style="enable-background:new 0 0 492 492;" xml:space="preserve">
<style type="text/css">
	.st0{fill:#D4E1F4;}
	.st1{fill:#3A0CA3;}
	.st2{fill:#F20775;}
</style>
<path class="st0" d="M282.3,447.3c-14.8-10.1-27.4-33.8-27.4-51.8V325l84-41.1l-20-10l-84,41.1v70.6c0,17.9,12.5,41.6,27.4,51.8
	l56.6,38.6l2.7-1.8L282.3,447.3z"/>
<g>
	<path class="st1" d="M282.9,68.7V55.9c0-21-17-38-38-38s-38,17-38,38v12.8c0,21,17,38,38,38S282.9,89.7,282.9,68.7z M218.9,68.7
		V55.9c0-14.4,11.6-26,26-26s26,11.6,26,26v12.8c0,14.4-11.6,26-26,26S218.9,83,218.9,68.7z"/>
	<path class="st1" d="M295.9,110c-0.3,0-1.3-0.3-29.3-0.3h0c-2.2,0-4.1,1.2-5.2,3.1l-15.4,26.9l-14.6-26.8c-1-1.9-3.1-3.2-5.3-3.2
		h-26.4c-21.6,0.1-39.2,17.6-39.2,39.3c0,1.1,0.2,78.4,0.2,81.7c0,6.3,2.5,12.4,6.9,16.9c4.4,4.5,10.4,7,16.7,7.1h0.3
		c4.1-0.1,8.1-1.3,11.5-3.4l1,146.4c0.1,8.8,7.2,15.9,16,16h21.7v-12h-21.7c-2.2-0.1-4-1.9-4-4.2l-1.1-160.3l-0.1-6.7
		c0-1.6-0.7-3-1.8-4.1c-1.1-1.1-2.6-1.7-4.2-1.6h0c-1.6,0-3.1,0.6-4.2,1.7c-1.1,1.1-1.7,2.6-1.7,4.2c0,6.6-5.2,12.1-11.5,12.1h-0.1
		c-6.5-0.2-11.6-5.4-11.6-11.9c0-0.8-0.2-80.7-0.2-81.8c0-15,12.2-27.2,27.2-27.3h22.9l18,33.1c1,1.9,3,3.1,5.2,3.2s4.2-1.1,5.3-3
		l19-33.1c9.9,0,23.1,0.1,24.8,0.1c14.9,1.6,25.6,14.9,24.1,29.8c0,0.2-0.1,0.4-0.1,0.6v77.9c0,3.3-1.3,6.4-3.6,8.8
		c-2.1,2.1-5.1,3.3-8.1,3.3c-6.2-0.1-11.1-5.1-11.4-11.2v-0.5c0-3.3-2.7-5.9-6-5.9h0c-3.3,0-6,2.7-6,6c0,0.2,0,0.5,0,0.7l0.1,5.7
		l-0.9,44.1l12,0.3l0.6-30.4c3.5,2,7.4,3.1,11.4,3.2c6.3,0.1,12.3-2.3,16.7-6.8c4.6-4.6,7.2-10.8,7.2-17.3v-77.6
		C332.9,131.3,317.3,112.3,295.9,110z"/>
	<path class="st1" d="M415.9,81.3c18.7,0,33.9-15.2,34-33.9V36.2c0-18.8-15.2-34-34-34c-18.8,0-34,15.2-34,34v11.2
		C381.9,66.1,397.1,81.3,415.9,81.3z M393.9,36.2c0-12.1,9.8-22,22-22c12.1,0,22,9.8,22,22v11.2c0,12.1-9.8,22-22,22
		c-12.1,0-22-9.8-22-22V36.2z"/>
	<path class="st1" d="M460.3,82.9c-0.3,0-1.3-0.1-25.8-0.1h0c-2.1,0-4.1,1.1-5.2,3L416.6,108l-12.1-22.2c-1.1-1.9-3.1-3.1-5.3-3.1
		h-23.1c-9.3,0-18.2,3.6-24.8,10.2c-6.6,6.6-10.3,15.5-10.3,24.7c0,1,0.1,68.7,0.1,71.5c0,11.8,9.6,21.4,21.4,21.5h0.2
		c3.3,0,6.5-0.9,9.5-2.5l1.3,90.1l12-0.2l-1.5-103.5l-0.1-6c0-3.3-2.8-6-6.1-5.9c-3.3,0-6,2.8-5.9,6.1c0,5.4-4.2,9.9-9.2,9.9h-0.2
		c-5.2,0-9.4-4.3-9.4-9.5c0-0.7-0.1-70.5-0.1-71.5c0-6.1,2.4-12,6.8-16.3c4.3-4.3,10.2-6.7,16.3-6.7h19.6l15.5,28.7
		c1,1.9,3,2.3,5.2,3.3h0.1c2.2-0.1,4.2-1.3,5.2-3.3L438,94.8c8.6,0,19.6,0,21.2,0.1c12.6,1.4,21.7,12.6,20.5,25.2c0,0.2,0,0.4,0,0.6
		v68.5c0,5.1-4.2,9.3-9.3,9.4c-5.1,0.1-9.4-3.9-9.7-9.1l0-0.5c-0.1-3.3-2.8-5.9-6.1-5.9c-3.3,0-6,2.7-6,6c0,0.2,0,0.4,0,0.7l0.1,4.9
		l-3.9,139.7c-0.2,1.3-1.3,2.3-2.6,2.3h-34.6v12h34.6c7.6,0,13.9-5.7,14.6-13.3c0-0.1,0-0.3,0-0.4l3.5-126.7
		c6.7,3.4,14.6,3.1,21-0.8c6.4-3.9,10.3-10.8,10.3-18.3v-68.2c0.9-9.2-1.9-18.3-7.8-25.3C478.1,88.4,469.6,83.8,460.3,82.9z"/>
	<path class="st1" d="M40,36.2v11.2c0,18.8,15.2,34,34,34s34-15.2,34-34V36.2c0-18.8-15.2-34-34-34S40,17.4,40,36.2z M52,36.2
		c0-12.1,9.8-22,22-22s22,9.8,22,22v11.2c0,12.1-9.8,22-22,22s-22-9.8-22-22V36.2z"/>
	<path class="st1" d="M119.4,82.9c-0.3,0-1.4-0.1-25.9-0.1h0c-2.1,0-4.1,1.1-5.2,3L75.5,108L63.4,85.8c-1.1-1.9-3.1-3.1-5.3-3.1H35
		c-9.3,0-18.2,3.7-24.8,10.2S0,108.4,0,117.7c0,1,0.1,68.7,0.1,71.5c0,11.8,9.6,21.4,21.4,21.5h0.2c3.4,0,6.7-0.9,9.7-2.6L35.2,335
		c0,0.1,0,0.3,0,0.4c0.7,7.5,7,13.3,14.6,13.2h51.5c7.6,0,13.9-5.7,14.6-13.3c0-0.1,0-0.3,0-0.4l3.5-126.7c3.1,1.5,6.4,2.3,9.9,2.3
		c11.9,0,21.5-9.6,21.6-21.4v-68.2C151.9,101.8,138.6,84.8,119.4,82.9z M138.8,120c0,0.2,0.1,0.4,0.1,0.6v68.5
		c-0.1,5.2-4.2,9.3-9.4,9.4c-5.2,0.1-9.5-3.9-9.7-9.1l0-0.7c-0.1-3.3-2.7-6-6-6.1h0c-3.3,0.1-6,2.9-6,6.2c0,0.2,0,0.5,0,0.8l0.1,5
		L104,334.4c-0.2,1.3-1.3,2.3-2.6,2.3H49.8c-1.3,0-2.5-1-2.6-2.3l-4.1-139.7l-0.1-6c-0.1-3.3-2.7-5.9-6-5.9h0c-3.3,0.1-6,2.8-6,6.1
		c0,5.4-4.2,9.9-9.2,9.9h-0.2c-5.2,0-9.4-4.3-9.4-9.5c0-0.7-0.1-70.5-0.1-71.5c0-6.1,2.4-12,6.8-16.3c4.3-4.3,10.2-6.7,16.3-6.7
		h19.6l15.5,28.7c1,1.9,3,2.3,5.2,3.3h0.1c2.2-0.1,4.2-1.3,5.2-3.3L97,94.8c8.6,0,19.7,0,21.3,0.1C130.9,96.2,140.1,107.4,138.8,120
		z"/>
</g>
<path class="st2" d="M411.5,306l-90-44.2c-1.7-0.8-3.6-0.8-5.3,0l-90,44.1c-2.1,1-3.4,3.1-3.4,5.4v74.3c0,22.1,14.3,49.2,32.6,61.7
	l60,40.9c2,1.4,4.7,1.4,6.8,0l60-40.9c18.3-12.5,32.6-39.6,32.6-61.7v-74.2C414.9,309.1,413.6,307,411.5,306z M402.9,385.6
	c0,17.9-12.5,41.6-27.4,51.8l-56.6,38.6l-56.6-38.6c-14.8-10.1-27.4-33.8-27.4-51.8V315l84-41.1l84,41.2V385.6z"/>
<path class="st2" d="M305.8,333.7c-3.3,0-6.5,1.3-7.4,4l-21.9,71.3c-0.1,0.3-0.1,0.7-0.1,1c0,2.9,4.1,4.8,7.3,4.8
	c2,0,3.5-0.7,4.1-2.5l4.5-15.7h27.2l4.5,15.7c0.6,1.8,2.1,2.4,4,2.4c3.3,0,7.4-2.1,7.4-4.8c0-0.3-0.1-0.7-0.2-1l-21.8-71.3
	C312.4,335,309.1,333.7,305.8,333.7z M294.8,387.7l11-37.7l11,37.7H294.8z"/>
<path class="st2" d="M349.9,414.8c3,0,6-1.3,6-3.9v-72.8c0-2.6-3-3.7-6-3.7c-2.9,0-6,1.1-6,3.7v72.8
	C343.9,413.4,347,414.8,349.9,414.8z"/>
</svg>
