<?xml version="1.0" encoding="utf-8"?>
<!-- Generator: Adobe Illustrator 26.2.1, SVG Export Plug-In . SVG Version: 6.00 Build 0)  -->
<svg version="1.1" id="Layer_1" xmlns="http://www.w3.org/2000/svg" xmlns:xlink="http://www.w3.org/1999/xlink" x="0px" y="0px"
	 viewBox="0 0 451 451" style="enable-background:new 0 0 451 451;" xml:space="preserve">
<style type="text/css">
	.st0{fill:#D4E1F4;}
	.st1{fill:#3A0CA3;}
	.st2{fill:#F20775;}
</style>
<path class="st0" d="M413.8,275.6L303,351.7c-16.9,8.2-35.9,10.9-54.4,7.6L171.1,345c-8.6-2.1-17.6-0.9-25.3,3.4
	c-0.1,0.1-0.2,0.1-0.3,0.2L105.3,371l6.8,20l35.4-22.4c0.1-0.1,0.2-0.1,0.3-0.2c7.7-4.3,16.8-5.5,25.3-3.4l77.5,14.3
	c18.5,3.3,37.5,0.7,54.4-7.6l128.8-88.5C428.6,277.8,421.3,275,413.8,275.6z"/>
<path class="st0" d="M108,419H32.1l2,20h79.9L108,419z"/>
<path class="st1" d="M22.9,445.6c0.4,3,2.9,5.4,6,5.4h93.4c1.9-0.1,3.7-1,4.8-2.6c1.1-1.6,1.5-3.5,0.9-5.4l-12.2-40.1l38.1-24.1
	c5.1-2.8,11-3.6,16.6-2.2c0.1,0,0.2,0.1,0.4,0.1l77.7,14.3c21.2,3.8,43,0.7,62.3-8.8c0.3-0.1,0.5-0.3,0.7-0.4l134.4-92.3
	c2.6-1.8,3.4-5.3,1.7-8c-10.2-17-32-23-49.5-13.5l-2.1,1.2c-9.3-11.2-25.4-15.5-37.6-9.3c0,0-0.1,0-0.1,0.1l-5.3,2.8
	c-13.2-11.2-32.1-13-47.2-4.4L276.7,274H238c-8.3,0.1-16.6-1.8-24.1-5.4l-5.3-2.5c-31-15.1-67.9-11.5-95.4,9.4
	c-0.1,0.1-0.3,0.2-0.4,0.3l-12.9,11.5c-4.8,4.3-10.4,7.4-16.6,9.3l-7.2-23.6c-0.8-2.5-3.1-4.1-5.7-4H8.1c-1.7-0.1-3.3,0.6-4.5,1.8
	c-1.1,1.3-1.7,3-1.5,4.7L22.9,445.6z M363.8,270.5c6.9-3.5,15.6-0.7,21.2,4.6l-50.7,27.4l-2.8,1.5c-1.6-4.4-3.9-8.6-6.8-12.3
	L363.8,270.5z M311.5,269.1l0.1-0.1c9.1-5.3,20.4-5.2,29.5,0.1l-25.5,13.7c-4.8-3.5-10.2-6-16-7.3L311.5,269.1z M107.8,296.3
	l12.7-11.3c23.9-18,55.9-21,82.7-8l5.3,2.4c9.2,4.4,19.2,6.6,29.4,6.6h51.7c15.5,0.1,28.8,11.1,31.8,26.3l-37.2-1.6
	c-13.6-0.6-27.3,0-40.8,1.9c-3.3,0.5-5.6,3.5-5.1,6.8c0.5,3.3,3.5,5.6,6.8,5.1c12.8-1.8,25.7-2.4,38.6-1.8l44.1,2c0.1,0,0.2,0,0.3,0
	c3.3,0,6-2.7,6-6c0-0.9,0-1.8-0.1-2.7l5.9-3.1l63.9-34.5c9.9-5.4,22.2-3.5,30,4.7L305,371.7c-16.9,8.2-35.9,10.9-54.4,7.6L173.1,365
	c-8.6-2.1-17.6-0.9-25.3,3.4c-0.1,0.1-0.2,0.1-0.3,0.2L112.1,391l-25.3-82.8C94.6,305.8,101.8,301.7,107.8,296.3z M65.9,281
	l48.2,158H34.1L14.9,281H65.9z"/>
<path class="st1" d="M70.6,433.4c10.2,0,18.4-8.3,18.4-18.4c0-10.2-8.3-18.4-18.4-18.4c-10.2,0-18.4,8.3-18.4,18.4
	C52.2,425.1,60.4,433.4,70.6,433.4z M70.6,408.5c3.6,0,6.4,2.9,6.4,6.4s-2.9,6.4-6.4,6.4c-3.6,0-6.4-2.9-6.4-6.5
	C64.2,411.4,67,408.5,70.6,408.5L70.6,408.5z"/>
<g>
	<path class="st2" d="M254.8,129.9c0.8-0.6,1.8-1.1,2.8-1.4c3.3-1.1,7-0.4,9.7,1.8c2.7,2.2,4.1,5.7,3.6,9.2
		c-0.4,3.3,1.9,6.3,5.2,6.7c0.3,0,0.5,0.1,0.8,0.1c3,0,5.5-2.2,5.9-5.2c1.2-9.4-3.6-18.5-12-22.7l0,0c-0.6-1.7-0.6-3.6-0.2-5.4
		c0.3-1.5,1-2.9,2-4.1c1.4-1.7,1.7-3.9,0.9-5.9c-0.8-2-2.6-3.4-4.7-3.8c-2.1-0.3-4.3,0.5-5.6,2.2c-2.1,2.6-3.6,5.6-4.3,8.9
		c-0.4,1.9-0.6,3.9-0.5,5.8c-3.8,0.4-7.4,1.8-10.5,4c-2.7,1.9-3.3,5.7-1.4,8.4C248.4,131.2,252.2,131.8,254.8,129.9L254.8,129.9z"/>
	<path class="st2" d="M300.4,106.7c2.3,2.4,6.1,2.4,8.5,0.1c0.9-0.9,1.7-1.9,2.4-2.9c0.5,0.1,1,0.2,1.6,0.2c2.8,0,5.2-1.9,5.9-4.7
		c0.6-2.7-0.7-5.5-3.2-6.7c-2.8-1.4-4.3-4.5-3.5-7.6c0.8-3.2-1.1-6.5-4.3-7.3c-3.2-0.8-6.5,1.1-7.3,4.3c-1.2,4.6-0.6,9.4,1.7,13.5
		c-0.3,1-0.9,1.8-1.6,2.6C298.1,100.5,298.1,104.3,300.4,106.7z"/>
	<path class="st2" d="M258.5,68.8c1.2,0.4,2.4,0.7,3.6,0.9c0.1,2.8,0.9,5.5,2.3,7.9c1,1.9,3,3.1,5.1,3.1c2.1,0,4.2-1.1,5.3-2.9
		c1.1-1.8,1.1-4.1,0.1-6c-1-1.8-1.1-4.1-0.2-6c0.9-1.9,2.6-3.3,4.7-3.7c1-0.2,2-0.2,2.9,0.1c3.2,0.8,6.5-1.1,7.3-4.3
		c0.8-3.2-1.1-6.5-4.3-7.3c-7.4-1.9-15.3,1-19.7,7.2c-1,0.1-2,0-3-0.3c-0.9-0.3-1.8-0.9-2.5-1.6c-2.3-2.4-6.1-2.4-8.5-0.1
		c-2.4,2.3-2.4,6.1-0.1,8.5C253.5,66.3,255.9,67.8,258.5,68.8z"/>
	<path class="st2" d="M278.8,167.4c-2-0.3-3.9-1.1-5.6-2.3c-2.7-1.9-6.5-1.2-8.4,1.5c-1.9,2.7-1.2,6.5,1.5,8.4
		c3.2,2.2,6.8,3.7,10.6,4.3c2.6,0.4,5.3,0.4,8,0c0.6,4.8,2.6,9.3,5.6,13c2.1,2.6,5.9,2.9,8.4,0.8c2.6-2.1,2.9-5.9,0.8-8.4
		c-2.8-3.4-3.8-7.9-2.7-12.2c0-0.1,0.1-0.2,0.1-0.3c0.6-2.2,1.8-4.2,3.4-5.8c2.3-2.3,2.3-6.1,0-8.5c-2.3-2.3-6.1-2.3-8.5,0
		c-2.5,2.5-4.4,5.4-5.7,8.6C284,167.5,281.4,167.8,278.8,167.4z"/>
	<path class="st2" d="M259.4,230.5c7,0,13.9-2.4,19.4-6.8c9.7,4.9,21.2,4.5,30.4-1.2c9.3-5.6,14.9-15.7,14.9-26.5v-7.9
		c14.5-6.1,24-20.2,24.2-35.9c4.8,1.3,8.1,5.7,8.1,10.7c0,12.8,10.4,23.1,23.2,23.1h2.8c1,3.9,3,7.4,5.9,10.2
		c8.9,8.9,23.3,8.8,32.2-0.1c8.9-8.9,8.9-23.3,0-32.2c-8.9-8.9-23.3-8.9-32.2-0.1c-2.9,2.7-4.9,6.2-5.9,10.1h-2.8
		c-3,0-5.8-1.1-7.9-3.2c-2.1-2.1-3.3-4.9-3.3-7.9c0-12.3-9.7-22.5-22-23.1c-2-6.5-5.7-12.3-10.6-17c0.6-0.5,1.1-1.1,1.5-1.8h48.8
		c1,3.9,3,7.5,5.9,10.3c8.9,8.9,23.4,8.9,32.3,0c8.9-8.9,8.9-23.3,0-32.3c-8.9-8.9-23.3-8.9-32.3,0c-2.7,2.9-4.7,6.3-5.9,10.1h-43
		c1-4.1,1-8.3,0.2-12.4c-0.4-1.9-1-3.8-1.8-5.6h3.7c12.9-0.2,23.2-10.6,23.2-23.5c0-6.2,4.9-11.3,11.2-11.5h2.8
		c0.9,3.9,2.8,7.5,5.7,10.3v0.1c5,4.5,10.4,6.7,16.3,6.7c10.3,0,19.4-6.9,22.1-16.9c2.7-10-1.6-20.5-10.6-25.7
		c-8.9-5.2-20.2-3.8-27.6,3.5c-2.7,2.9-4.7,6.3-5.9,10h-2.8c-12.9,0.2-23.2,10.6-23.2,23.5c0,6.2-4.9,11.3-11.2,11.5h-13.1
		c-0.5-1-1.1-0.9-1.6-1.3c-0.8-0.6-1.7-1.1-2.6-1.6c3-13-0.8-26.7-10-36.3c-9.3-9.6-22.7-13.9-35.9-11.4c0-0.5,0-0.9,0-1.4
		c-0.1-14.9-12.2-26.9-27-26.9s-26.9,12-27,26.9v172.4C228.3,216.6,242.3,230.5,259.4,230.5z M396.9,172.5c4.2-4.2,11.1-4.2,15.4,0
		c4.2,4.2,4.2,11.1,0,15.4c-4.2,4.2-11.1,4.2-15.4,0c-2.1-2-3.2-4.8-3.2-7.7S394.8,174.5,396.9,172.5L396.9,172.5z M400.7,107.6
		c4.2-4.2,11.1-4.2,15.4,0c4.2,4.2,4.2,11.1,0,15.4c-4.2,4.2-11.1,4.2-15.4,0C396.4,118.7,396.4,111.9,400.7,107.6z M396.9,42.7
		c4.2-4.2,11.1-4.2,15.4,0c4.2,4.2,4.2,11.1,0,15.4s-11.1,4.2-15.4,0C392.6,53.8,392.6,47,396.9,42.7L396.9,42.7z M240.2,27
		c0-6.2,3.8-11.7,9.6-14s12.3-0.7,16.5,3.9c4.2,4.6,5.1,11.2,2.3,16.8c-0.8,0.5-1.6,1.1-2.4,1.7c-2.7,2-3.2,5.7-1.3,8.4
		c2,2.7,5.7,3.2,8.4,1.3c10.5-7.7,24.9-7,34.6,1.6c9.7,8.7,12,22.9,5.5,34.2c-1.6,2.8-0.8,6.4,2,8.1s6.3,1,8.2-1.7
		c0.2,0.1,0.3,0.2,0.5,0.3c4.7,3.1,7.6,8.2,8,13.8s-1.9,11-6.2,14.7c-5.3-2.5-11.1-3.8-17-3.8c-3.3,0-6,2.7-6,6c0,3.3,2.7,6,6,6
		c15.2,0,27.5,12.3,27.5,27.5c0,15.2-12.3,27.5-27.5,27.5c-3.3,0-6,2.7-6,6c0,3.3,2.7,6,6,6c1.1,0,2.3-0.1,3.3-0.1v5
		c-0.1,10.5-8.6,19-19.1,19s-19.1-8.5-19.1-19c0-3.3-2.7-6-6-6c-3.3,0-6,2.7-6,6c0,7.3,2.5,14.3,7.2,19.9c-2.9,1.7-6.3,2.6-9.7,2.6
		c-10.6,0-19.2-8.5-19.2-19.1V27z"/>
	<path class="st2" d="M126.3,188.1v7.9c0,10.8,5.7,20.9,14.9,26.5c9.2,5.7,20.8,6.1,30.4,1.2c9.4,7.4,22.2,8.9,33,3.7
		c10.8-5.2,17.7-16.1,17.7-28V27c0-14.9-12.1-27-27-27s-27,12.1-27,27c0,0.5,0,0.9,0,1.4c-2.5-0.5-5-0.7-7.5-0.7
		c-12,0-23.4,5.5-30.9,14.9c-7.5,9.4-10.3,21.8-7.5,33.5c-0.9,0.5-1.8,1.1-2.6,1.7c-0.6,0.4-1.1,0.3-1.6,1.3h-13.1
		c-6.2-0.2-11.2-5.3-11.2-11.5c0-12.9-10.3-23.3-23.2-23.5H68c-1.2-3.7-3.2-7.1-5.9-10c-7.4-7.3-18.7-8.8-27.7-3.5
		c-9,5.2-13.3,15.8-10.6,25.8c2.7,10,11.8,16.9,22.2,16.9c5.9,0,11.3-2.2,16.3-6.7v-0.2c2.9-2.8,4.8-6.4,5.7-10.3h2.8
		c6.2,0.2,11.2,5.3,11.2,11.5c0,12.9,10.3,23.3,23.2,23.5h3.7c-0.8,1.8-1.4,3.7-1.8,5.6c-0.9,4.1-0.8,8.3,0.2,12.4h-43
		c-1.2-3.7-3.2-7.2-5.9-10c-6.5-6.6-16.4-8.6-25.1-5.1C24.6,97.5,19,105.9,19,115.2s5.6,17.7,14.2,21.2c8.6,3.5,18.5,1.5,25.1-5.1
		c2.9-2.8,4.9-6.4,5.9-10.3H113c0.4,0.7,0.9,1.3,1.5,1.8c-4.9,4.7-8.6,10.5-10.6,16.9c-12.3,0.6-21.9,10.8-22,23.1
		c0,6.2-5,11.1-11.2,11.1H68c-1-3.8-3-7.3-5.9-10.1c-6.5-6.6-16.4-8.6-25-5c-8.6,3.5-14.2,11.9-14.2,21.2s5.6,17.6,14.2,21.2
		c8.6,3.5,18.4,1.6,25-5c2.9-2.8,4.9-6.3,5.9-10.2h2.8c12.8,0,23.2-10.3,23.2-23.1c0-5,3.3-9.4,8.1-10.7
		C102.3,167.9,111.8,182,126.3,188.1z M53.6,58.1c-4.2,4.2-11.1,4.2-15.4,0s-4.2-11.1,0-15.4c4.2-4.2,11.1-4.2,15.4,0
		C57.8,47,57.8,53.8,53.6,58.1z M49.8,123c-4.2,4.2-11.1,4.2-15.4,0c-4.2-4.2-4.2-11.1,0-15.4c4.2-4.2,11.1-4.2,15.4,0
		c2.1,2,3.2,4.8,3.2,7.7C53,118.2,51.9,120.9,49.8,123z M141.5,124.2c3.3,0,6-2.7,6-6c0-3.3-2.7-6-6-6c-5.9,0-11.7,1.3-17,3.8
		c-4.2-3.7-6.5-9.1-6.2-14.7c0.4-5.6,3.3-10.7,8-13.8c0.2-0.1,0.3-0.2,0.5-0.3c1.8,2.7,5.4,3.4,8.1,1.7c2.7-1.7,3.6-5.3,2-8.1
		c-6.5-11.3-4.2-25.6,5.5-34.2c9.7-8.7,24.1-9.4,34.6-1.6c1.7,1.3,4,1.6,6,0.7c2-0.9,3.4-2.7,3.6-4.9c0.2-2.1-0.7-4.2-2.4-5.5
		c-0.8-0.6-1.6-1.1-2.4-1.7c-2.7-5.5-1.8-12.2,2.4-16.7c4.2-4.6,10.7-6.1,16.5-3.9c5.8,2.2,9.6,7.7,9.6,13.9v172.4
		c0,6.8-3.7,13.2-9.7,16.6s-13.2,3.4-19.2,0c4.7-5.6,7.2-12.6,7.2-19.9c0-3.3-2.7-6-6-6c-3.3,0-6,2.7-6,6c-0.1,10.5-8.6,19-19.2,19
		s-19.1-8.5-19.2-19v-5c1,0.1,2.2,0.1,3.2,0.1c3.3,0,6-2.7,6-6c0-3.3-2.7-6-6-6c-15.2,0-27.5-12.3-27.5-27.5
		C114.1,136.5,126.4,124.2,141.5,124.2z M53.6,187.9c-4.2,4.2-11.1,4.2-15.4,0c-4.2-4.2-4.2-11.1,0-15.4c4.2-4.2,11.1-4.2,15.4,0
		C57.8,176.8,57.8,183.6,53.6,187.9z"/>
	<path class="st2" d="M192.2,116.1c0.1-2-0.1-3.9-0.5-5.8c-0.7-3.3-2.2-6.3-4.3-8.9c-1.3-1.7-3.5-2.5-5.6-2.2
		c-2.1,0.3-3.9,1.8-4.7,3.8c-0.8,2-0.4,4.3,0.9,5.9c1,1.2,1.6,2.6,2,4.1c0.4,1.8,0.3,3.6-0.2,5.4l0,0c-8.4,4.2-13.3,13.3-12,22.7
		c0.4,3.3,3.4,5.6,6.7,5.2c3.3-0.4,5.6-3.4,5.2-6.7c-0.5-3.5,0.9-6.9,3.6-9.2c2.7-2.2,6.4-2.9,9.7-1.8c1,0.3,1.9,0.8,2.8,1.4
		c2.7,1.9,6.4,1.3,8.4-1.4c1.9-2.7,1.3-6.4-1.4-8.4C199.6,117.9,196,116.5,192.2,116.1L192.2,116.1z"/>
	<path class="st2" d="M150,98.2c-0.7-0.7-1.3-1.6-1.6-2.6c2.3-4.1,2.9-9,1.7-13.5c-0.8-3.2-4.1-5.1-7.3-4.3
		c-3.2,0.8-5.1,4.1-4.3,7.3c0.8,3-0.7,6.2-3.5,7.6c-2.5,1.2-3.9,4-3.2,6.7c0.6,2.7,3.1,4.7,5.9,4.6c0.5,0,1-0.1,1.6-0.2
		c0.7,1.1,1.5,2,2.4,2.9c2.4,2.3,6.1,2.2,8.5-0.1C152.3,104.3,152.3,100.5,150,98.2L150,98.2z"/>
	<path class="st2" d="M168.1,62.2c1-0.2,2-0.3,2.9-0.1c2.1,0.4,3.8,1.8,4.7,3.7c0.9,1.9,0.8,4.1-0.2,6c-1,1.9-1,4.2,0.1,6
		c1.1,1.8,3.1,2.9,5.3,2.9c2.1,0,4.1-1.2,5.1-3.1c1.4-2.4,2.1-5.1,2.3-7.9c4-0.6,7.8-2.5,10.6-5.4c2.3-2.4,2.3-6.2-0.1-8.5
		c-2.4-2.3-6.2-2.3-8.5,0.1c-0.7,0.7-1.5,1.2-2.5,1.6c-1,0.3-2,0.4-3,0.3c-4.4-6.2-12.3-9.1-19.7-7.2c-3.2,0.8-5.1,4.1-4.3,7.3
		C161.7,61.1,164.9,63,168.1,62.2z"/>
	<path class="st2" d="M149.9,166.3c1.6,1.6,2.8,3.6,3.4,5.8c0,0.1,0.1,0.2,0.1,0.3c1.1,4.3,0.1,8.8-2.7,12.2
		c-2.1,2.6-1.7,6.3,0.8,8.4c2.6,2.1,6.3,1.7,8.4-0.8c3.1-3.7,5-8.2,5.6-13c6.5,1,13.2-0.5,18.6-4.3c2.7-1.9,3.4-5.6,1.5-8.4
		c-1.9-2.7-5.6-3.4-8.4-1.5c-1.7,1.2-3.6,2-5.6,2.3c-2.6,0.4-5.3,0.1-7.7-1c-1.3-3.2-3.2-6.2-5.7-8.6c-2.3-2.3-6.1-2.3-8.5,0
		C147.5,160.2,147.5,164,149.9,166.3L149.9,166.3z"/>
</g>
</svg>
