<?xml version="1.0" encoding="utf-8"?>
<!-- Generator: Adobe Illustrator 26.3.1, SVG Export Plug-In . SVG Version: 6.00 Build 0)  -->
<svg version="1.1" id="Layer_1" xmlns="http://www.w3.org/2000/svg" xmlns:xlink="http://www.w3.org/1999/xlink" x="0px" y="0px"
	 viewBox="0 0 495 493" style="enable-background:new 0 0 495 493;" xml:space="preserve">
<style type="text/css">
	.st0{fill:#D4E1F4;}
	.st1{fill:#3A0CA3;}
	.st2{fill:#F20775;}
</style>
<g>
	<path class="st0" d="M50.5,248.5v-117h-30v155h9v28.9c0,16.5-4.7,32.8-13.4,46.8c-4.2,6.9-6.9,14.5-8.1,22.5
		c-1.1,8.1-1.7,16.2-1.5,24.3v54.3c0,8.8,7.1,15.9,15.9,15.9c4.2,0,8.3-1.7,11.3-4.6c1.6-1.6,2.9-3.6,3.7-5.8c-0.6-1.7-1-3.6-1-5.4
		v-54.3c-0.1-8.1,0.4-16.3,1.5-24.3s3.9-15.6,8.1-22.5c8.7-14,13.4-30.3,13.4-46.8v-31h-9L50.5,248.5L50.5,248.5z"/>
	<path class="st1" d="M43.5,146.9c-3.3,0-6,2.7-6,6v1.6c0,3.3,2.7,6,6,6s6-2.7,6-6v-1.6C49.5,149.6,46.8,146.9,43.5,146.9z"/>
	<path class="st1" d="M154,341.4c-8.7-4.1-15.4-11.5-18.5-20.6c-1.2-3.5-1.9-7.1-2-10.8v-17.5h3.2c3.3,0,5.8-3,5.8-6.3v-155
		c0.1-3.1-2.4-5.7-5.5-5.7c-0.1,0-0.2,0-0.3,0H20.8c-3.3,0-6.3,2.4-6.3,5.7v154.9c0.1,3.4,2.9,6.2,6.3,6.3h2.7v22.9
		c0,15.4-4.4,30.6-12.6,43.6C1.4,374.4,0.5,391.4,0.5,409v54.3c0,12.1,9.9,21.9,22,21.9c4.5,0,8.9-1.4,12.6-4
		c5.8,10.6,19.2,14.5,29.8,8.6c2.1-1.1,3.9-2.6,5.5-4.3c8.5,9,22.6,9.4,31.6,0.9c0.2-0.2,0.5-0.4,0.7-0.7c7.8,8.5,21,9.1,29.5,1.3
		c4.1-3.7,6.5-8.9,6.8-14.4l-12-0.6c-0.3,4.9-4.4,8.7-9.4,8.4c-4.7-0.2-8.4-4.1-8.4-8.8v-31.2c0-3.3-2.7-6-6-6l0,0l0,0
		c-3.3-0.1-5.9,2.6-6,5.8c0,0,0,0,0,0.1V470c0.1,5.7-4.4,10.4-10.1,10.5s-10.5-4.3-10.6-10c0-0.2,0-0.3,0-0.5v-29.8c0-3.3-2.7-6-6-6
		c-3.4,0.1-6,2.9-6,6.2v30.1c0,5.5-4.5,10-10,10s-10-4.5-10-10v-40.2c0-3.3-2.7-6-6-6s-6,2.7-6,6v32.9c0,5.5-4.5,10-10,10
		s-10-4.5-10-10v-54.3c0-15.8,0.8-31,8.6-43.6c9.4-15,14.3-32.3,14.4-50v-22.8h86V310c0.4,18.1,10.9,34.4,27.2,42.3
		c4.1,1.9,6.8,4.2,8.5,7.1l10.4-6C164.7,348.3,160.3,344.4,154,341.4z M130.5,280.5h-104v-27h104V280.5z M130.5,241.5h-104v-104h104
		V241.5z"/>
	<path class="st1" d="M43.5,226.6c3.3,0,6-2.7,6-6l0,0v-49.1c0-3.3-2.7-6-6-6s-6,2.7-6,6v49.2C37.5,223.9,40.2,226.6,43.5,226.6
		L43.5,226.6z"/>
	<path class="st2" d="M493.3,406.5c0-6-2.4-11.8-6.8-16c8.5-7.8,9.1-21,1.3-29.5c-3.4-3.7-7.9-6-12.9-6.6l-1.5,11.9
		c4.5,0.6,7.8,4.3,7.8,8.8c0.2,4.7-3.5,8.7-8.3,8.9c-0.1,0-0.2,0-0.3,0l-31.1,0.5h-0.4c-3.2-0.1-5.9,2.4-6,5.6c0,0.1,0,0.1,0,0.2
		c0,3.3,2.7,5.9,5.9,5.9h0.1h29.8c5.6,0,10.2,4.6,10.2,10.2s-4.6,10.1-10.2,10.1l0,0h-29.8c-3.3,0-6,2.7-6,6s2.7,6,6,6h30.4
		c5.5,0,9.9,4.5,9.9,10s-4.5,10-10,10h-40.2c-3.3,0-6,2.7-6,6s2.7,6,6,6h32.9c5.5,0,10,4.5,10,10s-4.5,10-10,10h-54.3
		c-15.8,0-31-0.8-43.6-8.6c-15-9.4-32.3-14.3-50-14.4h-23.7v-86h18.3c18.1-0.3,34.5-10.8,42.3-27.2c2.1-4.4,4.6-7.3,7.9-9l-5.4-10.8
		c-5.8,2.9-10.2,7.7-13.4,14.5c-5.8,12.2-17.9,20.1-31.4,20.3h-18.3v-3.1c0-3.3-2.2-5.9-5.6-5.9H132c-3.3,0-5.5,2.6-5.5,5.9v115.9
		c0,3.3,2.2,6.2,5.5,6.2h154.9c3.3,0,5.6-2.9,5.6-6.2v-2.6h23.7c15.4,0,30.6,4.4,43.6,12.6c15.3,9.5,32.4,10.4,50,10.4h54.3
		c12.1,0,21.9-9.8,21.9-21.8c0-4.5-1.4-8.9-4-12.6c10.6-5.8,14.5-19.2,8.6-29.8c-1.1-2.1-2.6-3.9-4.3-5.5
		C490.7,418.5,493.3,412.6,493.3,406.5z M242.5,466.5h-104v-104h104V466.5z M280.5,466.5h-26v-104h26V466.5z"/>
	<path class="st1" d="M472.6,7.8c-4.5,0-8.9,1.4-12.6,4c-5.8-10.6-19.2-14.5-29.8-8.6c-2.1,1.1-3.9,2.6-5.5,4.3
		c-8.5-9-22.6-9.4-31.6-0.9c-0.2,0.2-0.5,0.4-0.7,0.7c-7.8-8.5-21-9.1-29.5-1.3c-4.1,3.7-6.5,8.9-6.8,14.4l12,0.6
		c0.3-4.9,4.4-8.7,9.4-8.4c4.7,0.2,8.4,4.1,8.4,8.8v31.2c0,3.3,2.7,6,6,6l0,0l0,0c3.3,0.1,5.9-2.6,6-5.8c0,0,0,0,0-0.1V23
		c-0.1-5.7,4.5-10.3,10.2-10.4s10.3,4.5,10.4,10.2c0,0.1,0,0.2,0,0.3v29.8c0,3.3,2.7,6,6,6s6-2.7,6-6l0,0V22.4c0-5.5,4.5-10,10-10
		s10,4.5,10,10v40.2c0,3.3,2.7,6,6,6s6-2.7,6-6V29.7c0-5.5,4.5-10,10-10s10,4.5,10,10V84c0,15.8-0.8,31-8.6,43.6
		c-9.4,15-14.3,32.3-14.4,50v22.9h-86V183c-0.4-18.1-10.9-34.4-27.2-42.3c-4.1-1.9-6.8-4.2-8.5-7.1l-10.4,6c3,5.1,7.5,9,13.8,12
		c8.7,4.1,15.4,11.5,18.5,20.6c1.2,3.5,1.9,7.1,2,10.8v17.5h-3.2c-3.3,0-5.8,3-5.8,6.3v154.9c-0.1,3.1,2.4,5.7,5.5,5.7
		c0.1,0,0.2,0,0.3,0h115.9c3.3,0,6.3-2.4,6.3-5.7V206.8c-0.1-3.4-2.9-6.2-6.3-6.3h-2.9v-22.9c0-15.4,4.4-30.6,12.6-43.6
		c9.5-15.3,10.4-32.4,10.4-50V29.7C494.5,17.6,484.7,7.8,472.6,7.8z M468.5,355.5h-104v-104h104V355.5z M468.5,239.5h-104v-27h104
		V239.5z"/>
	<path class="st2" d="M363,14.5H208.1c-3.3,0-5.6,2.9-5.6,6.2v2.8h-23.7c-15.4,0-30.6-4.4-43.6-12.6c-15.3-9.5-32.4-10.4-50-10.4
		H30.9C18.8,0.5,9,10.3,9,22.3c0,4.5,1.4,8.9,4,12.6C2.5,40.8-1.4,54.1,4.4,64.7c1.1,2.1,2.6,3.9,4.3,5.5c-9,8.5-9.4,22.6-0.9,31.6
		c0.2,0.2,0.5,0.5,0.7,0.7c-8.5,7.8-9.1,21-1.3,29.5c2,2.2,4.5,4,7.3,5.1v-6c0.1-2.5,1.7-4.7,4.1-5.4c-3-1.5-4.9-4.6-4.9-7.9
		c-0.2-4.7,3.5-8.7,8.3-8.9c0.1,0,0.2,0,0.3,0l31.2-0.4h0.4c3.2,0.1,5.9-2.4,6-5.6c0-0.1,0-0.1,0-0.2c0-3.3-2.7-5.9-5.9-5.9h-0.1
		H24.1c-5.6,0-10.2-4.6-10.2-10.2c0.1-5.5,4.6-10.1,10.3-10.1l0,0H54c3.3,0,6-2.7,6-6c0.1-3.2-2.5-5.9-5.7-6h-0.1H23.7
		c-5.5,0-10-4.5-10-10s4.5-10,10-10h40.2c3.3,0,6-2.7,6-6s-2.7-6-6-6h-33c-5.5,0-10-4.5-10-10s4.5-10,10-10h54.3
		c15.8,0,31,0.8,43.7,8.6c15,9.4,32.3,14.3,50,14.4h23.6v86h-18.3c-17.7,0.3-33.7,10.3-41.7,26.1v18.9c4.5-3.2,8.1-7.6,10.3-12.7
		c5.8-12.2,17.9-20.1,31.4-20.3h18.3v3.1c0,3.3,2.2,5.9,5.6,5.9H363c3.3,0,5.5-2.6,5.5-5.9V20.7C368.5,17.4,366.3,14.5,363,14.5z
		 M240.5,130.5h-26v-104h26V130.5z M356.5,130.5h-104v-104h104V130.5z"/>
</g>
</svg>
