<svg width="64" height="64" viewBox="0 0 64 64" fill="none" xmlns="http://www.w3.org/2000/svg">
<path fill-rule="evenodd" clip-rule="evenodd" d="M50.6667 13.3334H48V8.00004C48 6.52728 46.8061 5.33337 45.3334 5.33337C43.8606 5.33337 42.6667 6.52728 42.6667 8.00004V13.3334H21.3334V8.00004C21.3334 6.52728 20.1395 5.33337 18.6667 5.33337C17.1939 5.33337 16 6.52728 16 8.00004V13.3334H13.3334C8.9151 13.3334 5.33337 16.9151 5.33337 21.3334V50.6667C5.33337 55.085 8.9151 58.6667 13.3334 58.6667H50.6667C55.085 58.6667 58.6667 55.085 58.6667 50.6667V21.3334C58.6667 16.9151 55.085 13.3334 50.6667 13.3334ZM10.6667 21.3334C10.6667 19.8606 11.8606 18.6667 13.3334 18.6667H50.6667C52.1395 18.6667 53.3334 19.8606 53.3334 21.3334V24H10.6667V21.3334ZM50.6667 53.3334C52.1395 53.3334 53.3334 52.1395 53.3334 50.6667V29.3334H10.6667V50.6667C10.6667 52.1395 11.8606 53.3334 13.3334 53.3334H50.6667Z" fill="#231F20"/>
</svg>
