<svg width="64" height="64" viewBox="0 0 64 64" fill="none" xmlns="http://www.w3.org/2000/svg">
<path fill-rule="evenodd" clip-rule="evenodd" d="M32 5.33337C42.3093 5.33337 50.6667 13.6907 50.6667 24C51.04 32.3467 44.3467 43.4667 34.16 57.5467C33.6585 58.2394 32.8552 58.6496 32 58.6496C31.1448 58.6496 30.3415 58.2394 29.84 57.5467C19.6533 43.44 12.96 32.32 13.3333 24C13.3333 13.6907 21.6907 5.33337 32 5.33337ZM32 51.4934C39.12 41.4134 45.7067 30.7734 45.3333 24.24V24.16V24C45.3333 16.6362 39.3638 10.6667 32 10.6667C24.6362 10.6667 18.6667 16.6362 18.6667 24V24.16C18.2933 30.6934 24.88 41.3334 32 51.4934ZM32 16C27.5817 16 24 19.5818 24 24C24 28.4183 27.5817 32 32 32C36.4183 32 40 28.4183 40 24C40 21.8783 39.1572 19.8435 37.6569 18.3432C36.1566 16.8429 34.1217 16 32 16ZM29.3333 24C29.3333 25.4728 30.5272 26.6667 32 26.6667C33.4728 26.6667 34.6667 25.4728 34.6667 24C34.6667 22.5273 33.4728 21.3334 32 21.3334C30.5272 21.3334 29.3333 22.5273 29.3333 24Z" fill="#231F20"/>
</svg>
