<svg id="Layer_1" data-name="Layer 1" xmlns="http://www.w3.org/2000/svg" xmlns:xlink="http://www.w3.org/1999/xlink" viewBox="0 0 700 671.33"><defs><style>.cls-1{fill:#4f82c6;}.cls-12,.cls-2{fill:#326ebd;}.cls-3,.cls-57{fill:#fff;}.cls-4{fill:url(#linear-gradient);}.cls-5{fill:url(#linear-gradient-2);}.cls-6{fill:url(#linear-gradient-3);}.cls-7{fill:url(#linear-gradient-4);}.cls-8{fill:url(#linear-gradient-5);}.cls-9{fill:url(#linear-gradient-6);}.cls-10{fill:url(#linear-gradient-7);}.cls-11{fill:url(#linear-gradient-8);}.cls-12{opacity:0.1;}.cls-13{fill:#adc5e5;}.cls-14{fill:#f0f4fc;}.cls-15{fill:url(#linear-gradient-9);}.cls-16{opacity:0.98;fill:url(#linear-gradient-11);}.cls-17{opacity:0.95;fill:url(#linear-gradient-12);}.cls-18{opacity:0.93;fill:url(#linear-gradient-13);}.cls-19{opacity:0.9;fill:url(#linear-gradient-14);}.cls-20{opacity:0.88;fill:url(#linear-gradient-15);}.cls-21{opacity:0.85;fill:url(#linear-gradient-16);}.cls-22{opacity:0.83;fill:url(#linear-gradient-17);}.cls-23{opacity:0.8;fill:url(#linear-gradient-18);}.cls-24{opacity:0.78;fill:url(#linear-gradient-19);}.cls-25{opacity:0.76;fill:url(#linear-gradient-20);}.cls-26{opacity:0.73;fill:url(#linear-gradient-21);}.cls-27{opacity:0.71;fill:url(#linear-gradient-22);}.cls-28{opacity:0.68;fill:url(#linear-gradient-23);}.cls-29{opacity:0.66;fill:url(#linear-gradient-24);}.cls-30{opacity:0.63;fill:url(#linear-gradient-25);}.cls-31{opacity:0.61;fill:url(#linear-gradient-26);}.cls-32{opacity:0.59;fill:url(#linear-gradient-27);}.cls-33{opacity:0.56;fill:url(#linear-gradient-28);}.cls-34{opacity:0.54;fill:url(#linear-gradient-29);}.cls-35{opacity:0.51;fill:url(#linear-gradient-30);}.cls-36{opacity:0.49;fill:url(#linear-gradient-31);}.cls-37{opacity:0.46;fill:url(#linear-gradient-32);}.cls-38{opacity:0.44;fill:url(#linear-gradient-33);}.cls-39{opacity:0.41;fill:url(#linear-gradient-34);}.cls-40{opacity:0.39;fill:url(#linear-gradient-35);}.cls-41{opacity:0.37;fill:url(#linear-gradient-36);}.cls-42{opacity:0.34;fill:url(#linear-gradient-37);}.cls-43{opacity:0.32;fill:url(#linear-gradient-38);}.cls-44{opacity:0.29;fill:url(#linear-gradient-39);}.cls-45{opacity:0.27;fill:url(#linear-gradient-40);}.cls-46{opacity:0.24;fill:url(#linear-gradient-41);}.cls-47{opacity:0.22;fill:url(#linear-gradient-42);}.cls-48{opacity:0.2;fill:url(#linear-gradient-43);}.cls-49{opacity:0.17;fill:url(#linear-gradient-44);}.cls-50{opacity:0.15;fill:url(#linear-gradient-45);}.cls-51{opacity:0.12;fill:url(#linear-gradient-46);}.cls-52{opacity:0.1;fill:url(#linear-gradient-47);}.cls-53{opacity:0.07;fill:url(#linear-gradient-48);}.cls-54{opacity:0.05;fill:url(#linear-gradient-49);}.cls-55{opacity:0.02;fill:url(#linear-gradient-50);}.cls-56{opacity:0;fill:url(#linear-gradient-51);}.cls-57{opacity:0.31;}.cls-58,.cls-59,.cls-60,.cls-61,.cls-62,.cls-63,.cls-64{opacity:0.2;}.cls-58{fill:url(#linear-gradient-52);}.cls-59{fill:url(#linear-gradient-53);}.cls-60{fill:url(#linear-gradient-54);}.cls-61{fill:url(#linear-gradient-55);}.cls-62{fill:url(#linear-gradient-56);}.cls-63{fill:url(#linear-gradient-57);}.cls-64{fill:url(#linear-gradient-58);}.cls-65{fill:url(#linear-gradient-59);}.cls-66{fill:url(#linear-gradient-60);}.cls-67{fill:url(#linear-gradient-61);}.cls-68{fill:url(#linear-gradient-62);}.cls-69{fill:url(#linear-gradient-63);}.cls-70{fill:url(#linear-gradient-64);}.cls-71{fill:url(#linear-gradient-65);}.cls-72{fill:url(#linear-gradient-66);}.cls-73{fill:url(#linear-gradient-67);}.cls-74{fill:url(#linear-gradient-68);}.cls-75{fill:url(#linear-gradient-69);}.cls-76{fill:url(#linear-gradient-70);}.cls-77{fill:url(#linear-gradient-71);}.cls-78{fill:url(#linear-gradient-72);}.cls-79{fill:url(#linear-gradient-73);}.cls-80{fill:url(#linear-gradient-74);}.cls-81{fill:url(#linear-gradient-75);}.cls-82{fill:url(#linear-gradient-76);}.cls-83{fill:url(#linear-gradient-77);}.cls-84{fill:url(#linear-gradient-78);}.cls-85{fill:url(#linear-gradient-79);}.cls-86{fill:url(#linear-gradient-80);}.cls-87{fill:url(#linear-gradient-81);}.cls-88{fill:url(#linear-gradient-82);}.cls-89{fill:url(#linear-gradient-83);}.cls-90{fill:url(#linear-gradient-84);}.cls-91{fill:url(#linear-gradient-85);}.cls-92{fill:url(#linear-gradient-86);}.cls-93{fill:url(#linear-gradient-87);}.cls-94{fill:url(#linear-gradient-88);}.cls-95{fill:url(#linear-gradient-89);}.cls-96{fill:url(#linear-gradient-90);}.cls-97{fill:url(#linear-gradient-91);}.cls-98{fill:url(#linear-gradient-92);}.cls-99{fill:url(#linear-gradient-93);}.cls-100{fill:url(#linear-gradient-94);}.cls-101{fill:url(#linear-gradient-95);}.cls-102{fill:url(#linear-gradient-96);}.cls-103{fill:url(#linear-gradient-97);}.cls-104{fill:url(#linear-gradient-98);}.cls-105{fill:url(#linear-gradient-99);}.cls-106{fill:url(#linear-gradient-100);}.cls-107{fill:url(#linear-gradient-101);}.cls-108{fill:url(#linear-gradient-102);}.cls-109{fill:url(#linear-gradient-103);}.cls-110,.cls-111{opacity:0.5;}.cls-111,.cls-112{fill:#a5cbef;}.cls-113{fill:#dbeaf9;}.cls-114{fill:#f9fbfd;}.cls-115{fill:#c9e0f5;}.cls-116{fill:#f2b1b5;}.cls-117{fill:url(#linear-gradient-104);}.cls-118{fill:#3c5185;}.cls-119{fill:url(#linear-gradient-105);}.cls-120{fill:url(#linear-gradient-106);}.cls-121{fill:url(#linear-gradient-107);}.cls-122{fill:url(#linear-gradient-108);}.cls-123{fill:#5d7dbe;}.cls-124,.cls-134{fill:#2d3d64;}.cls-125{fill:#4a65a3;}.cls-126{fill:url(#linear-gradient-109);}.cls-127{opacity:0.62;}.cls-128{fill:#f6f9fc;}.cls-129{fill:url(#linear-gradient-110);}.cls-130{fill:#d6e2f2;}.cls-131{fill:#eaf0f8;}.cls-132{fill:url(#linear-gradient-111);}.cls-133{fill:url(#linear-gradient-112);}.cls-134{opacity:0.3;}.cls-135{fill:url(#linear-gradient-113);}</style><linearGradient id="linear-gradient" x1="643.59" y1="304.06" x2="658.46" y2="304.06" gradientTransform="translate(-84.34)" gradientUnits="userSpaceOnUse"><stop offset="0" stop-color="#4a65a3"/><stop offset="0.4" stop-color="#445c95"/><stop offset="1" stop-color="#3c5185"/></linearGradient><linearGradient id="linear-gradient-2" x1="663.2" y1="152.67" x2="682.64" y2="152.67" xlink:href="#linear-gradient"/><linearGradient id="linear-gradient-3" x1="672.69" y1="378.46" x2="683.28" y2="378.46" xlink:href="#linear-gradient"/><linearGradient id="linear-gradient-4" x1="769.9" y1="304.05" x2="789.34" y2="304.05" xlink:href="#linear-gradient"/><linearGradient id="linear-gradient-5" x1="989.47" y1="361.26" x2="1004.33" y2="361.26" gradientTransform="matrix(-1, 0, 0, 1, 1112.15, 0)" xlink:href="#linear-gradient"/><linearGradient id="linear-gradient-6" x1="905.41" y1="342.82" x2="916.6" y2="342.82" gradientTransform="matrix(-1, 0, 0, 1, 1112.15, 0)" xlink:href="#linear-gradient"/><linearGradient id="linear-gradient-7" x1="949.59" y1="165.07" x2="967.15" y2="165.07" gradientTransform="matrix(-1, 0, 0, 1, 1112.15, 0)" xlink:href="#linear-gradient"/><linearGradient id="linear-gradient-8" x1="1047.34" y1="284.92" x2="1064.91" y2="284.92" gradientTransform="matrix(-1, 0, 0, 1, 1112.15, 0)" xlink:href="#linear-gradient"/><linearGradient id="linear-gradient-9" x1="225.98" y1="470.69" x2="497.73" y2="470.69" gradientUnits="userSpaceOnUse"><stop offset="0.15" stop-color="#ff9800"/><stop offset="1" stop-color="#ffc107"/></linearGradient><linearGradient id="linear-gradient-11" x1="225.98" y1="461.47" x2="497.73" y2="461.47" xlink:href="#linear-gradient-9"/><linearGradient id="linear-gradient-12" x1="225.98" y1="452.24" x2="497.73" y2="452.24" xlink:href="#linear-gradient-9"/><linearGradient id="linear-gradient-13" x1="225.98" y1="443.02" x2="497.73" y2="443.02" xlink:href="#linear-gradient-9"/><linearGradient id="linear-gradient-14" x1="225.98" y1="433.8" x2="497.73" y2="433.8" xlink:href="#linear-gradient-9"/><linearGradient id="linear-gradient-15" x1="225.98" y1="424.57" x2="497.73" y2="424.57" xlink:href="#linear-gradient-9"/><linearGradient id="linear-gradient-16" x1="225.98" y1="415.35" x2="497.73" y2="415.35" xlink:href="#linear-gradient-9"/><linearGradient id="linear-gradient-17" x1="225.98" y1="406.13" x2="497.73" y2="406.13" xlink:href="#linear-gradient-9"/><linearGradient id="linear-gradient-18" x1="225.98" y1="396.91" x2="497.73" y2="396.91" xlink:href="#linear-gradient-9"/><linearGradient id="linear-gradient-19" x1="225.98" y1="387.68" x2="497.73" y2="387.68" xlink:href="#linear-gradient-9"/><linearGradient id="linear-gradient-20" x1="225.98" y1="378.46" x2="497.73" y2="378.46" xlink:href="#linear-gradient-9"/><linearGradient id="linear-gradient-21" x1="225.98" y1="369.24" x2="497.73" y2="369.24" xlink:href="#linear-gradient-9"/><linearGradient id="linear-gradient-22" x1="225.98" y1="360.02" x2="497.73" y2="360.02" xlink:href="#linear-gradient-9"/><linearGradient id="linear-gradient-23" x1="225.98" y1="350.79" x2="497.73" y2="350.79" xlink:href="#linear-gradient-9"/><linearGradient id="linear-gradient-24" x1="225.98" y1="341.57" x2="497.73" y2="341.57" xlink:href="#linear-gradient-9"/><linearGradient id="linear-gradient-25" x1="225.98" y1="332.35" x2="497.73" y2="332.35" xlink:href="#linear-gradient-9"/><linearGradient id="linear-gradient-26" x1="225.98" y1="323.13" x2="497.73" y2="323.13" xlink:href="#linear-gradient-9"/><linearGradient id="linear-gradient-27" x1="225.98" y1="313.9" x2="497.73" y2="313.9" xlink:href="#linear-gradient-9"/><linearGradient id="linear-gradient-28" x1="225.98" y1="304.68" x2="497.73" y2="304.68" xlink:href="#linear-gradient-9"/><linearGradient id="linear-gradient-29" x1="225.98" y1="295.46" x2="497.73" y2="295.46" xlink:href="#linear-gradient-9"/><linearGradient id="linear-gradient-30" x1="225.98" y1="286.24" x2="497.73" y2="286.24" xlink:href="#linear-gradient-9"/><linearGradient id="linear-gradient-31" x1="225.98" y1="277.01" x2="497.73" y2="277.01" xlink:href="#linear-gradient-9"/><linearGradient id="linear-gradient-32" x1="225.98" y1="267.79" x2="497.73" y2="267.79" xlink:href="#linear-gradient-9"/><linearGradient id="linear-gradient-33" x1="225.98" y1="258.57" x2="497.73" y2="258.57" xlink:href="#linear-gradient-9"/><linearGradient id="linear-gradient-34" x1="225.98" y1="249.35" x2="497.73" y2="249.35" xlink:href="#linear-gradient-9"/><linearGradient id="linear-gradient-35" x1="225.98" y1="240.12" x2="497.73" y2="240.12" xlink:href="#linear-gradient-9"/><linearGradient id="linear-gradient-36" x1="225.98" y1="230.9" x2="497.73" y2="230.9" xlink:href="#linear-gradient-9"/><linearGradient id="linear-gradient-37" x1="225.98" y1="221.68" x2="497.73" y2="221.68" xlink:href="#linear-gradient-9"/><linearGradient id="linear-gradient-38" x1="225.98" y1="212.46" x2="497.73" y2="212.46" xlink:href="#linear-gradient-9"/><linearGradient id="linear-gradient-39" x1="225.98" y1="203.23" x2="497.73" y2="203.23" xlink:href="#linear-gradient-9"/><linearGradient id="linear-gradient-40" x1="225.98" y1="194.01" x2="497.73" y2="194.01" xlink:href="#linear-gradient-9"/><linearGradient id="linear-gradient-41" x1="225.98" y1="184.79" x2="497.73" y2="184.79" xlink:href="#linear-gradient-9"/><linearGradient id="linear-gradient-42" x1="225.98" y1="175.57" x2="497.73" y2="175.57" xlink:href="#linear-gradient-9"/><linearGradient id="linear-gradient-43" x1="225.98" y1="166.34" x2="497.73" y2="166.34" xlink:href="#linear-gradient-9"/><linearGradient id="linear-gradient-44" x1="225.98" y1="157.12" x2="497.73" y2="157.12" xlink:href="#linear-gradient-9"/><linearGradient id="linear-gradient-45" x1="225.98" y1="147.9" x2="497.73" y2="147.9" xlink:href="#linear-gradient-9"/><linearGradient id="linear-gradient-46" x1="225.98" y1="138.68" x2="497.73" y2="138.68" xlink:href="#linear-gradient-9"/><linearGradient id="linear-gradient-47" x1="225.98" y1="129.45" x2="497.73" y2="129.45" xlink:href="#linear-gradient-9"/><linearGradient id="linear-gradient-48" x1="225.98" y1="120.23" x2="497.73" y2="120.23" xlink:href="#linear-gradient-9"/><linearGradient id="linear-gradient-49" x1="225.98" y1="111.01" x2="497.73" y2="111.01" xlink:href="#linear-gradient-9"/><linearGradient id="linear-gradient-50" x1="225.98" y1="101.79" x2="497.73" y2="101.79" xlink:href="#linear-gradient-9"/><linearGradient id="linear-gradient-51" x1="225.98" y1="92.56" x2="497.73" y2="92.56" xlink:href="#linear-gradient-9"/><linearGradient id="linear-gradient-52" x1="446.63" y1="-5.35" x2="445.16" y2="581.58" gradientUnits="userSpaceOnUse"><stop offset="0.17" stop-color="#fff"/><stop offset="0.2" stop-color="#fffefa"/><stop offset="0.25" stop-color="#fffaec"/><stop offset="0.29" stop-color="#fff4d5"/><stop offset="0.34" stop-color="#ffecb4"/><stop offset="0.39" stop-color="#ffe28a"/><stop offset="0.45" stop-color="#ffd556"/><stop offset="0.5" stop-color="#ffc61a"/><stop offset="0.52" stop-color="#ffc107"/></linearGradient><linearGradient id="linear-gradient-53" x1="394.58" y1="-19.14" x2="393.1" y2="567.79" xlink:href="#linear-gradient-52"/><linearGradient id="linear-gradient-54" x1="359.88" y1="18.31" x2="358.4" y2="605.24" xlink:href="#linear-gradient-52"/><linearGradient id="linear-gradient-55" x1="313.75" y1="18.32" x2="312.28" y2="605.23" xlink:href="#linear-gradient-52"/><linearGradient id="linear-gradient-56" x1="424.8" y1="0.6" x2="423.32" y2="587.48" xlink:href="#linear-gradient-52"/><linearGradient id="linear-gradient-57" x1="335.3" y1="19.81" x2="333.82" y2="606.7" xlink:href="#linear-gradient-52"/><linearGradient id="linear-gradient-58" x1="281.63" y1="1.78" x2="280.16" y2="588.71" xlink:href="#linear-gradient-52"/><linearGradient id="linear-gradient-59" x1="264.71" y1="443.77" x2="268.28" y2="443.77" xlink:href="#linear-gradient-9"/><linearGradient id="linear-gradient-60" x1="264.31" y1="391.02" x2="267.48" y2="391.02" xlink:href="#linear-gradient-9"/><linearGradient id="linear-gradient-61" x1="308.45" y1="390.7" x2="311.82" y2="390.7" xlink:href="#linear-gradient-9"/><linearGradient id="linear-gradient-62" x1="407.42" y1="374.51" x2="410.44" y2="374.51" xlink:href="#linear-gradient-9"/><linearGradient id="linear-gradient-63" x1="459.55" y1="365.08" x2="461.63" y2="365.08" xlink:href="#linear-gradient-9"/><linearGradient id="linear-gradient-64" x1="491.48" y1="346" x2="495.09" y2="346" xlink:href="#linear-gradient-9"/><linearGradient id="linear-gradient-65" x1="409.42" y1="315.47" x2="411.11" y2="315.47" xlink:href="#linear-gradient-9"/><linearGradient id="linear-gradient-66" x1="403.03" y1="264.13" x2="405.08" y2="264.13" xlink:href="#linear-gradient-9"/><linearGradient id="linear-gradient-67" x1="272.38" y1="159.21" x2="274.6" y2="159.21" xlink:href="#linear-gradient-9"/><linearGradient id="linear-gradient-68" x1="230.74" y1="109.92" x2="233.06" y2="109.92" xlink:href="#linear-gradient-9"/><linearGradient id="linear-gradient-69" x1="287.32" y1="119.2" x2="289.77" y2="119.2" xlink:href="#linear-gradient-9"/><linearGradient id="linear-gradient-70" x1="438.37" y1="121.78" x2="441.29" y2="121.78" xlink:href="#linear-gradient-9"/><linearGradient id="linear-gradient-71" x1="453.33" y1="73.46" x2="455.71" y2="73.46" xlink:href="#linear-gradient-9"/><linearGradient id="linear-gradient-72" x1="418.94" y1="79.91" x2="421.69" y2="79.91" xlink:href="#linear-gradient-9"/><linearGradient id="linear-gradient-73" x1="504.25" y1="117.5" x2="507.27" y2="117.5" xlink:href="#linear-gradient-9"/><linearGradient id="linear-gradient-74" x1="511.93" y1="56.14" x2="515.14" y2="56.14" xlink:href="#linear-gradient-9"/><linearGradient id="linear-gradient-75" x1="321.52" y1="52.13" x2="324.56" y2="52.13" xlink:href="#linear-gradient-9"/><linearGradient id="linear-gradient-76" x1="418.59" y1="32.26" x2="422.06" y2="32.26" xlink:href="#linear-gradient-9"/><linearGradient id="linear-gradient-77" x1="255.46" y1="93.5" x2="257.64" y2="93.5" xlink:href="#linear-gradient-9"/><linearGradient id="linear-gradient-78" x1="217.85" y1="57.32" x2="220.45" y2="57.32" xlink:href="#linear-gradient-9"/><linearGradient id="linear-gradient-79" x1="409.23" y1="170.17" x2="412.36" y2="170.17" xlink:href="#linear-gradient-9"/><linearGradient id="linear-gradient-80" x1="402.68" y1="217.53" x2="405.12" y2="217.53" xlink:href="#linear-gradient-9"/><linearGradient id="linear-gradient-81" x1="223.58" y1="322.21" x2="228.07" y2="322.21" xlink:href="#linear-gradient-9"/><linearGradient id="linear-gradient-82" x1="263.8" y1="356.94" x2="267.16" y2="356.94" xlink:href="#linear-gradient-9"/><linearGradient id="linear-gradient-83" x1="306" y1="376.5" x2="308.94" y2="376.5" xlink:href="#linear-gradient-9"/><linearGradient id="linear-gradient-84" x1="453.64" y1="390.27" x2="455.84" y2="390.27" xlink:href="#linear-gradient-9"/><linearGradient id="linear-gradient-85" x1="480.1" y1="328.68" x2="483.43" y2="328.68" xlink:href="#linear-gradient-9"/><linearGradient id="linear-gradient-86" x1="429.1" y1="346.59" x2="431.2" y2="346.59" xlink:href="#linear-gradient-9"/><linearGradient id="linear-gradient-87" x1="482.53" y1="414.33" x2="484.98" y2="414.33" xlink:href="#linear-gradient-9"/><linearGradient id="linear-gradient-88" x1="309.78" y1="114.37" x2="312.21" y2="114.37" xlink:href="#linear-gradient-9"/><linearGradient id="linear-gradient-89" x1="361.98" y1="101.98" x2="364.76" y2="101.98" xlink:href="#linear-gradient-9"/><linearGradient id="linear-gradient-90" x1="391.15" y1="38.96" x2="394.11" y2="38.96" xlink:href="#linear-gradient-9"/><linearGradient id="linear-gradient-91" x1="256.12" y1="17.24" x2="258.71" y2="17.24" xlink:href="#linear-gradient-9"/><linearGradient id="linear-gradient-92" x1="287.92" y1="171.27" x2="290.26" y2="171.27" xlink:href="#linear-gradient-9"/><linearGradient id="linear-gradient-93" x1="247.83" y1="362.15" x2="251.33" y2="362.15" xlink:href="#linear-gradient-9"/><linearGradient id="linear-gradient-94" x1="229.77" y1="414.46" x2="233.23" y2="414.46" xlink:href="#linear-gradient-9"/><linearGradient id="linear-gradient-95" x1="424.86" y1="397.15" x2="427.28" y2="397.15" xlink:href="#linear-gradient-9"/><linearGradient id="linear-gradient-96" x1="364.81" y1="408.43" x2="367.71" y2="408.43" xlink:href="#linear-gradient-9"/><linearGradient id="linear-gradient-97" x1="388" y1="321.31" x2="390.29" y2="321.31" xlink:href="#linear-gradient-9"/><linearGradient id="linear-gradient-98" x1="414.98" y1="245.66" x2="417.23" y2="245.66" xlink:href="#linear-gradient-9"/><linearGradient id="linear-gradient-99" x1="459.02" y1="145.9" x2="461.9" y2="145.9" xlink:href="#linear-gradient-9"/><linearGradient id="linear-gradient-100" x1="485.55" y1="132.01" x2="488.42" y2="132.01" xlink:href="#linear-gradient-9"/><linearGradient id="linear-gradient-101" x1="252.88" y1="149.69" x2="255.21" y2="149.69" xlink:href="#linear-gradient-9"/><linearGradient id="linear-gradient-102" x1="244.07" y1="171.64" x2="246.4" y2="171.64" xlink:href="#linear-gradient-9"/><linearGradient id="linear-gradient-103" x1="220.93" y1="159.75" x2="223.24" y2="159.75" xlink:href="#linear-gradient-9"/><linearGradient id="linear-gradient-104" x1="303.49" y1="190.91" x2="350.19" y2="190.91" gradientUnits="userSpaceOnUse"><stop offset="0" stop-color="#a8d9fb"/><stop offset="0.05" stop-color="#b3defc"/><stop offset="0.19" stop-color="#cfeafd"/><stop offset="0.34" stop-color="#e4f3fe"/><stop offset="0.51" stop-color="#f3fafe"/><stop offset="0.71" stop-color="#fcfeff"/><stop offset="1" stop-color="#fff"/></linearGradient><linearGradient id="linear-gradient-105" x1="321.87" y1="349.52" x2="359.46" y2="349.52" gradientUnits="userSpaceOnUse"><stop offset="0" stop-color="#3c5185"/><stop offset="0.4" stop-color="#4d68a3"/><stop offset="0.76" stop-color="#5977b7"/><stop offset="1" stop-color="#5d7dbe"/></linearGradient><linearGradient id="linear-gradient-106" x1="327.23" y1="369.13" x2="409.15" y2="369.13" xlink:href="#linear-gradient-105"/><linearGradient id="linear-gradient-107" x1="319.98" y1="228.97" x2="398.94" y2="228.97" xlink:href="#linear-gradient-104"/><linearGradient id="linear-gradient-108" x1="369.37" y1="213.35" x2="395.12" y2="213.35" xlink:href="#linear-gradient-104"/><linearGradient id="linear-gradient-109" x1="338.02" y1="144.42" x2="339.66" y2="144.42" xlink:href="#linear-gradient-9"/><linearGradient id="linear-gradient-110" x1="180.81" y1="290.07" x2="322.54" y2="290.07" gradientUnits="userSpaceOnUse"><stop offset="0" stop-color="#3c5185"/><stop offset="0.13" stop-color="#41588e"/><stop offset="0.69" stop-color="#5573b1"/><stop offset="1" stop-color="#5d7dbe"/></linearGradient><linearGradient id="linear-gradient-111" x1="730.3" y1="388.15" x2="747.56" y2="388.15" gradientTransform="matrix(-1, 0, 0, 1, 910.15, 0)" xlink:href="#linear-gradient-9"/><linearGradient id="linear-gradient-112" x1="136.3" y1="444.92" x2="242.51" y2="444.92" xlink:href="#linear-gradient-110"/><linearGradient id="linear-gradient-113" x1="997.03" y1="396.91" x2="1087.3" y2="396.91" gradientTransform="translate(-398.95)" xlink:href="#linear-gradient-9"/></defs><path class="cls-1" d="M52.26,327.74c-23-13.28-41.81-2.41-41.81,24.14S29.26,411,52.26,424.29s41.8,2.41,41.8-24.14S75.25,341,52.26,327.74Z" transform="translate(-5 -14.34)"/><path class="cls-2" d="M46.81,329.1C23.81,315.83,5,326.69,5,353.24s18.81,59.13,41.81,72.41,41.8,2.41,41.8-24.14S69.8,342.38,46.81,329.1Z" transform="translate(-5 -14.34)"/><path class="cls-3" d="M59.28,393.91c.93.53,1.74.14,2.45-1.16a12.72,12.72,0,0,0,1.05-5.83,34.4,34.4,0,0,0-4.17-16.27,28.65,28.65,0,0,0-11.16-11.87q-7-4-11.78-.95t-4.79,11.1a32.1,32.1,0,0,0,4.5,16,30.16,30.16,0,0,0,11.14,11.7q5.2,3,9.16.83l2.11,5.43a9.25,9.25,0,0,1-5.25.36,18.32,18.32,0,0,1-6-2.15,39.37,39.37,0,0,1-14.38-14.84,39.21,39.21,0,0,1-5.79-19.9q0-10,6.1-13.54t14.69,1.33q8.59,4.91,14.36,15a40.42,40.42,0,0,1,5.76,20.19c0,4.36-.79,7.41-2.34,9.16s-3.62,1.9-6.15.45a11.25,11.25,0,0,1-3.58-3.41A14.19,14.19,0,0,1,53,390.77q-2.82,2.63-7.17.14a21.05,21.05,0,0,1-7.57-8.13A23,23,0,0,1,35,371.28q0-5.86,2.9-8.22t7.64.34a12.19,12.19,0,0,1,3,2.54,16.56,16.56,0,0,1,2.06,2.75l.67,1.16v-2.44l6.43,3.67v19C57.74,392,58.25,393.32,59.28,393.91Zm-7.92-13.5A12.68,12.68,0,0,0,50,374.69a9,9,0,0,0-3.57-4c-1.48-.84-2.65-.86-3.53-.05s-1.31,2.18-1.31,4.1a14,14,0,0,0,1.31,5.78,8.84,8.84,0,0,0,3.58,4.18c1.51.86,2.7.86,3.57,0S51.36,382.39,51.36,380.41Z" transform="translate(-5 -14.34)"/><path class="cls-4" d="M564,313.24a4.48,4.48,0,0,1-2.27-.6c-1.6-.92-2.48-2.73-2.48-5.1A14.58,14.58,0,0,1,566,295.88c2.06-1.19,4.07-1.33,5.66-.41s2.47,2.73,2.47,5.1a14.69,14.69,0,0,1-6.73,11.66A6.85,6.85,0,0,1,564,313.24Zm4.22-12.88a2.38,2.38,0,0,0-1.15.36,6.87,6.87,0,0,0-3.08,5.34,1.36,1.36,0,0,0,2.29,1.33,7,7,0,0,0,3.09-5.34,1.72,1.72,0,0,0-.63-1.56A1,1,0,0,0,568.23,300.36Z" transform="translate(-5 -14.34)"/><path class="cls-5" d="M585.08,164.68a6,6,0,0,1-3-.77c-2.08-1.21-3.24-3.58-3.24-6.68a19.08,19.08,0,0,1,8.8-15.25c2.69-1.55,5.32-1.73,7.41-.53s3.22,3.57,3.22,6.67a19.17,19.17,0,0,1-8.8,15.24A8.89,8.89,0,0,1,585.08,164.68Zm5.52-16.84a3.12,3.12,0,0,0-1.5.47,9,9,0,0,0-4,7,1.78,1.78,0,0,0,3,1.73,9.07,9.07,0,0,0,4-7,2.28,2.28,0,0,0-.82-2A1.34,1.34,0,0,0,590.6,147.84Z" transform="translate(-5 -14.34)"/><path class="cls-6" d="M591.74,385a3.23,3.23,0,0,1-1.62-.42,4,4,0,0,1-1.77-3.64,10.4,10.4,0,0,1,4.8-8.31,3.6,3.6,0,0,1,5.79,3.35,10.45,10.45,0,0,1-4.8,8.3A4.8,4.8,0,0,1,591.74,385Zm3-9.17a1.76,1.76,0,0,0-.82.26,4.9,4.9,0,0,0-2.19,3.8,1,1,0,0,0,1.63.95,5,5,0,0,0,2.2-3.81,1.24,1.24,0,0,0-.44-1.11A.79.79,0,0,0,594.74,375.83Z" transform="translate(-5 -14.34)"/><path class="cls-7" d="M691.78,316.07a6,6,0,0,1-3-.78c-2.09-1.2-3.24-3.57-3.25-6.68a19.12,19.12,0,0,1,8.81-15.25c2.69-1.55,5.32-1.73,7.41-.53S705,296.4,705,299.5a19.18,19.18,0,0,1-8.8,15.24A8.91,8.91,0,0,1,691.78,316.07Zm5.52-16.85a3.12,3.12,0,0,0-1.5.47,9,9,0,0,0-4,7,1.79,1.79,0,0,0,3,1.73,9.07,9.07,0,0,0,4-7,2.26,2.26,0,0,0-.82-2A1.34,1.34,0,0,0,697.3,299.22Z" transform="translate(-5 -14.34)"/><path class="cls-8" d="M114.55,369.43a14.65,14.65,0,0,1-6.73-11.65c0-2.37.87-4.18,2.46-5.1s3.61-.78,5.67.4a14.64,14.64,0,0,1,6.73,11.66c0,2.38-.89,4.19-2.48,5.11a4.58,4.58,0,0,1-2.28.59A6.72,6.72,0,0,1,114.55,369.43Zm-1.37-11.74a1.75,1.75,0,0,0-.62,1.56,6.92,6.92,0,0,0,3.08,5.34,1.37,1.37,0,0,0,2.3-1.32,6.91,6.91,0,0,0-3.08-5.34,2.44,2.44,0,0,0-1.16-.37A1.11,1.11,0,0,0,113.18,357.69Z" transform="translate(-5 -14.34)"/><path class="cls-9" d="M200.62,349a11,11,0,0,1-5.07-8.78,3.8,3.8,0,0,1,6.12-3.53,11,11,0,0,1,5.07,8.78,4.2,4.2,0,0,1-1.87,3.85,3.49,3.49,0,0,1-1.71.45A5.09,5.09,0,0,1,200.62,349Zm-1-8.84a1.29,1.29,0,0,0-.47,1.17,5.22,5.22,0,0,0,2.32,4,1.33,1.33,0,0,0,1.25.18,1.3,1.3,0,0,0,.48-1.18,5.19,5.19,0,0,0-2.32-4A1.87,1.87,0,0,0,200,340,.81.81,0,0,0,199.59,340.13Z" transform="translate(-5 -14.34)"/><path class="cls-10" d="M153,174.73A17.34,17.34,0,0,1,145,161c0-2.8,1-4.93,2.91-6s4.27-.93,6.7.47a17.27,17.27,0,0,1,7.95,13.79c0,2.8-1,4.94-2.93,6a5.29,5.29,0,0,1-2.69.7A8.1,8.1,0,0,1,153,174.73Zm-1.61-13.88a2.05,2.05,0,0,0-.74,1.84,8.18,8.18,0,0,0,3.65,6.32,1.61,1.61,0,0,0,2.71-1.57,8.14,8.14,0,0,0-3.64-6.31,2.92,2.92,0,0,0-1.36-.43A1.24,1.24,0,0,0,151.34,160.85Z" transform="translate(-5 -14.34)"/><path class="cls-11" d="M55.2,294.58a17.35,17.35,0,0,1-8-13.77c0-2.8,1-4.94,2.92-6s4.26-.93,6.69.47a17.3,17.3,0,0,1,8,13.79c0,2.8-1.05,4.95-2.94,6a5.29,5.29,0,0,1-2.68.71A8,8,0,0,1,55.2,294.58ZM53.58,280.7a2.06,2.06,0,0,0-.74,1.85,8.18,8.18,0,0,0,3.65,6.31,1.61,1.61,0,0,0,2.71-1.57A8.14,8.14,0,0,0,55.56,281a2.88,2.88,0,0,0-1.36-.43A1.26,1.26,0,0,0,53.58,280.7Z" transform="translate(-5 -14.34)"/><path class="cls-12" d="M347.26,403.82,136.54,525.48a20.64,20.64,0,0,0,.2,35.86L347.67,680.1a43.3,43.3,0,0,0,42.47,0L601.07,561.34a20.64,20.64,0,0,0,.19-35.86L390.54,403.82A43.29,43.29,0,0,0,347.26,403.82Z" transform="translate(-5 -14.34)"/><path class="cls-13" d="M347.26,372.16l-221,99.71v36.64a24,24,0,0,0,12.13,20.85L347.67,648.44a43.3,43.3,0,0,0,42.47,0l208.7-117.61a24,24,0,0,0,12.22-20.9V476.18l-220.52-104A43.29,43.29,0,0,0,347.26,372.16Z" transform="translate(-5 -14.34)"/><path class="cls-14" d="M347.26,332.13,136.54,453.78a20.64,20.64,0,0,0,.2,35.87L347.67,608.4a43.25,43.25,0,0,0,42.47,0L601.07,489.65a20.65,20.65,0,0,0,.19-35.87L390.54,332.13A43.24,43.24,0,0,0,347.26,332.13Z" transform="translate(-5 -14.34)"/><path class="cls-15" d="M457.94,526.07c53.06-30.46,53.06-80.3,0-110.76s-139.63-30.47-192.39,0-52.76,80.3,0,110.76S404.88,556.53,457.94,526.07Z" transform="translate(-5 -14.34)"/><path class="cls-15" d="M457.94,526.07c53.06-30.46,53.06-80.3,0-110.76s-139.63-30.47-192.39,0-52.76,80.3,0,110.76S404.88,556.53,457.94,526.07Z" transform="translate(-5 -14.34)"/><path class="cls-16" d="M457.94,516.85c53.06-30.46,53.06-80.31,0-110.77s-139.63-30.46-192.39,0-52.76,80.31,0,110.77S404.88,547.31,457.94,516.85Z" transform="translate(-5 -14.34)"/><path class="cls-17" d="M457.94,507.63c53.06-30.47,53.06-80.31,0-110.77s-139.63-30.46-192.39,0-52.76,80.3,0,110.77S404.88,538.09,457.94,507.63Z" transform="translate(-5 -14.34)"/><path class="cls-18" d="M457.94,498.4c53.06-30.46,53.06-80.3,0-110.76s-139.63-30.46-192.39,0-52.76,80.3,0,110.76S404.88,528.86,457.94,498.4Z" transform="translate(-5 -14.34)"/><path class="cls-19" d="M457.94,489.18c53.06-30.46,53.06-80.3,0-110.76s-139.63-30.47-192.39,0-52.76,80.3,0,110.76S404.88,519.64,457.94,489.18Z" transform="translate(-5 -14.34)"/><path class="cls-20" d="M457.94,480c53.06-30.46,53.06-80.31,0-110.77s-139.63-30.46-192.39,0-52.76,80.31,0,110.77S404.88,510.42,457.94,480Z" transform="translate(-5 -14.34)"/><path class="cls-21" d="M457.94,470.74C511,440.27,511,390.43,457.94,360s-139.63-30.46-192.39,0-52.76,80.3,0,110.77S404.88,501.2,457.94,470.74Z" transform="translate(-5 -14.34)"/><path class="cls-22" d="M457.94,461.51c53.06-30.46,53.06-80.3,0-110.76s-139.63-30.46-192.39,0-52.76,80.3,0,110.76S404.88,492,457.94,461.51Z" transform="translate(-5 -14.34)"/><path class="cls-23" d="M457.94,452.29c53.06-30.46,53.06-80.3,0-110.76s-139.63-30.47-192.39,0-52.76,80.3,0,110.76S404.88,482.75,457.94,452.29Z" transform="translate(-5 -14.34)"/><path class="cls-24" d="M457.94,443.07c53.06-30.46,53.06-80.31,0-110.77s-139.63-30.46-192.39,0-52.76,80.31,0,110.77S404.88,473.53,457.94,443.07Z" transform="translate(-5 -14.34)"/><path class="cls-25" d="M457.94,433.84c53.06-30.46,53.06-80.3,0-110.76s-139.63-30.46-192.39,0-52.76,80.3,0,110.76S404.88,464.3,457.94,433.84Z" transform="translate(-5 -14.34)"/><path class="cls-26" d="M457.94,424.62c53.06-30.46,53.06-80.3,0-110.76s-139.63-30.46-192.39,0-52.76,80.3,0,110.76S404.88,455.08,457.94,424.62Z" transform="translate(-5 -14.34)"/><path class="cls-27" d="M457.94,415.4c53.06-30.46,53.06-80.3,0-110.76s-139.63-30.47-192.39,0-52.76,80.3,0,110.76S404.88,445.86,457.94,415.4Z" transform="translate(-5 -14.34)"/><path class="cls-28" d="M457.94,406.18c53.06-30.46,53.06-80.31,0-110.77s-139.63-30.46-192.39,0-52.76,80.31,0,110.77S404.88,436.64,457.94,406.18Z" transform="translate(-5 -14.34)"/><path class="cls-29" d="M457.94,397c53.06-30.46,53.06-80.3,0-110.76s-139.63-30.46-192.39,0-52.76,80.3,0,110.76S404.88,427.41,457.94,397Z" transform="translate(-5 -14.34)"/><path class="cls-30" d="M457.94,387.73c53.06-30.46,53.06-80.3,0-110.76s-139.63-30.46-192.39,0-52.76,80.3,0,110.76S404.88,418.19,457.94,387.73Z" transform="translate(-5 -14.34)"/><path class="cls-31" d="M457.94,378.51c53.06-30.46,53.06-80.3,0-110.76s-139.63-30.47-192.39,0-52.76,80.3,0,110.76S404.88,409,457.94,378.51Z" transform="translate(-5 -14.34)"/><path class="cls-32" d="M457.94,369.29C511,338.83,511,289,457.94,258.52s-139.63-30.46-192.39,0-52.76,80.31,0,110.77S404.88,399.75,457.94,369.29Z" transform="translate(-5 -14.34)"/><path class="cls-33" d="M457.94,360.06c53.06-30.46,53.06-80.3,0-110.76s-139.63-30.46-192.39,0-52.76,80.3,0,110.76S404.88,390.52,457.94,360.06Z" transform="translate(-5 -14.34)"/><path class="cls-34" d="M457.94,350.84c53.06-30.46,53.06-80.3,0-110.76s-139.63-30.46-192.39,0-52.76,80.3,0,110.76S404.88,381.3,457.94,350.84Z" transform="translate(-5 -14.34)"/><path class="cls-35" d="M457.94,341.62c53.06-30.46,53.06-80.31,0-110.76s-139.63-30.47-192.39,0-52.76,80.3,0,110.76S404.88,372.08,457.94,341.62Z" transform="translate(-5 -14.34)"/><path class="cls-36" d="M457.94,332.4c53.06-30.46,53.06-80.31,0-110.77s-139.63-30.46-192.39,0-52.76,80.31,0,110.77S404.88,362.86,457.94,332.4Z" transform="translate(-5 -14.34)"/><path class="cls-37" d="M457.94,323.17c53.06-30.46,53.06-80.3,0-110.76s-139.63-30.46-192.39,0-52.76,80.3,0,110.76S404.88,353.63,457.94,323.17Z" transform="translate(-5 -14.34)"/><path class="cls-38" d="M457.94,314c53.06-30.46,53.06-80.3,0-110.76s-139.63-30.46-192.39,0-52.76,80.3,0,110.76S404.88,344.41,457.94,314Z" transform="translate(-5 -14.34)"/><path class="cls-39" d="M457.94,304.73C511,274.27,511,224.42,457.94,194s-139.63-30.46-192.39,0-52.76,80.31,0,110.77S404.88,335.19,457.94,304.73Z" transform="translate(-5 -14.34)"/><path class="cls-40" d="M457.94,295.51c53.06-30.46,53.06-80.31,0-110.77s-139.63-30.46-192.39,0-52.76,80.31,0,110.77S404.88,326,457.94,295.51Z" transform="translate(-5 -14.34)"/><path class="cls-41" d="M457.94,286.28c53.06-30.46,53.06-80.3,0-110.76s-139.63-30.46-192.39,0-52.76,80.3,0,110.76S404.88,316.74,457.94,286.28Z" transform="translate(-5 -14.34)"/><path class="cls-42" d="M457.94,277.06c53.06-30.46,53.06-80.3,0-110.76s-139.63-30.46-192.39,0-52.76,80.3,0,110.76S404.88,307.52,457.94,277.06Z" transform="translate(-5 -14.34)"/><path class="cls-43" d="M457.94,267.84c53.06-30.46,53.06-80.31,0-110.77s-139.63-30.46-192.39,0-52.76,80.31,0,110.77S404.88,298.3,457.94,267.84Z" transform="translate(-5 -14.34)"/><path class="cls-44" d="M457.94,258.62c53.06-30.46,53.06-80.31,0-110.77s-139.63-30.46-192.39,0-52.76,80.31,0,110.77S404.88,289.08,457.94,258.62Z" transform="translate(-5 -14.34)"/><path class="cls-45" d="M457.94,249.39c53.06-30.46,53.06-80.3,0-110.76s-139.63-30.46-192.39,0-52.76,80.3,0,110.76S404.88,279.85,457.94,249.39Z" transform="translate(-5 -14.34)"/><path class="cls-46" d="M457.94,240.17c53.06-30.46,53.06-80.3,0-110.76s-139.63-30.46-192.39,0-52.76,80.3,0,110.76S404.88,270.63,457.94,240.17Z" transform="translate(-5 -14.34)"/><path class="cls-47" d="M457.94,231c53.06-30.46,53.06-80.31,0-110.77s-139.63-30.46-192.39,0-52.76,80.31,0,110.77S404.88,261.41,457.94,231Z" transform="translate(-5 -14.34)"/><path class="cls-48" d="M457.94,221.73C511,191.27,511,141.42,457.94,111S318.31,80.5,265.55,111s-52.76,80.31,0,110.77S404.88,252.19,457.94,221.73Z" transform="translate(-5 -14.34)"/><path class="cls-49" d="M457.94,212.5C511,182,511,132.2,457.94,101.74s-139.63-30.46-192.39,0-52.76,80.3,0,110.76S404.88,243,457.94,212.5Z" transform="translate(-5 -14.34)"/><path class="cls-50" d="M457.94,203.28C511,172.82,511,123,457.94,92.52s-139.63-30.46-192.39,0-52.76,80.3,0,110.76S404.88,233.74,457.94,203.28Z" transform="translate(-5 -14.34)"/><path class="cls-51" d="M457.94,194.06c53.06-30.46,53.06-80.31,0-110.77s-139.63-30.46-192.39,0-52.76,80.31,0,110.77S404.88,224.52,457.94,194.06Z" transform="translate(-5 -14.34)"/><path class="cls-52" d="M457.94,184.84c53.06-30.47,53.06-80.31,0-110.77s-139.63-30.46-192.39,0-52.76,80.3,0,110.77S404.88,215.3,457.94,184.84Z" transform="translate(-5 -14.34)"/><path class="cls-53" d="M457.94,175.61c53.06-30.46,53.06-80.3,0-110.76s-139.63-30.46-192.39,0-52.76,80.3,0,110.76S404.88,206.07,457.94,175.61Z" transform="translate(-5 -14.34)"/><path class="cls-54" d="M457.94,166.39c53.06-30.46,53.06-80.3,0-110.76s-139.63-30.46-192.39,0-52.76,80.3,0,110.76S404.88,196.85,457.94,166.39Z" transform="translate(-5 -14.34)"/><path class="cls-55" d="M457.94,157.17C511,126.71,511,76.86,457.94,46.4s-139.63-30.46-192.39,0-52.76,80.31,0,110.77S404.88,187.63,457.94,157.17Z" transform="translate(-5 -14.34)"/><path class="cls-56" d="M457.94,148c53.06-30.46,53.06-80.31,0-110.77s-139.63-30.46-192.39,0-52.76,80.31,0,110.77S404.88,178.41,457.94,148Z" transform="translate(-5 -14.34)"/><path class="cls-57" d="M443.6,517.8c45.13-25.91,45.13-68.31,0-94.23s-118.79-25.91-163.67,0-44.89,68.32,0,94.23S398.46,543.72,443.6,517.8Z" transform="translate(-5 -14.34)"/><path class="cls-57" d="M424,506.48c34.29-19.69,34.29-51.9,0-71.59s-90.25-19.68-124.35,0-34.1,51.9,0,71.59S389.67,526.17,424,506.48Z" transform="translate(-5 -14.34)"/><rect class="cls-58" x="434.04" y="16.32" width="23.91" height="467.52"/><rect class="cls-59" x="381.98" y="2.54" width="23.91" height="467.52"/><rect class="cls-60" x="347.28" y="39.99" width="23.91" height="467.52"/><rect class="cls-61" x="304.92" y="39.99" width="16.39" height="467.52"/><rect class="cls-62" x="420.06" y="22.25" width="8.2" height="467.52"/><rect class="cls-63" x="330.56" y="41.47" width="8.2" height="467.52"/><rect class="cls-64" x="269.04" y="23.45" width="23.91" height="467.52"/><path class="cls-65" d="M268.28,443.77A1.79,1.79,0,1,1,266.5,442,1.79,1.79,0,0,1,268.28,443.77Z" transform="translate(-5 -14.34)"/><path class="cls-66" d="M267.48,391a1.59,1.59,0,1,1-1.59-1.59A1.59,1.59,0,0,1,267.48,391Z" transform="translate(-5 -14.34)"/><circle class="cls-67" cx="310.13" cy="390.7" r="1.69"/><path class="cls-68" d="M410.44,374.51a1.51,1.51,0,1,1-1.51-1.51A1.51,1.51,0,0,1,410.44,374.51Z" transform="translate(-5 -14.34)"/><path class="cls-69" d="M461.63,365.08a1,1,0,1,1-1-1A1,1,0,0,1,461.63,365.08Z" transform="translate(-5 -14.34)"/><path class="cls-70" d="M495.09,346a1.81,1.81,0,1,1-1.8-1.8A1.81,1.81,0,0,1,495.09,346Z" transform="translate(-5 -14.34)"/><path class="cls-71" d="M411.11,315.47a.85.85,0,0,1-.85.84.85.85,0,0,1,0-1.69A.85.85,0,0,1,411.11,315.47Z" transform="translate(-5 -14.34)"/><path class="cls-72" d="M405.08,264.13a1,1,0,1,1-1-1A1,1,0,0,1,405.08,264.13Z" transform="translate(-5 -14.34)"/><circle class="cls-73" cx="273.49" cy="159.21" r="1.11"/><circle class="cls-74" cx="231.9" cy="109.92" r="1.16"/><circle class="cls-75" cx="288.54" cy="119.2" r="1.22"/><path class="cls-76" d="M441.29,121.78a1.46,1.46,0,1,1-1.46-1.46A1.46,1.46,0,0,1,441.29,121.78Z" transform="translate(-5 -14.34)"/><path class="cls-77" d="M455.71,73.46a1.19,1.19,0,1,1-1.19-1.19A1.19,1.19,0,0,1,455.71,73.46Z" transform="translate(-5 -14.34)"/><circle class="cls-78" cx="420.32" cy="79.91" r="1.37"/><path class="cls-79" d="M507.27,117.5a1.51,1.51,0,1,1-1.51-1.52A1.52,1.52,0,0,1,507.27,117.5Z" transform="translate(-5 -14.34)"/><path class="cls-80" d="M515.14,56.14a1.61,1.61,0,1,1-1.61-1.6A1.61,1.61,0,0,1,515.14,56.14Z" transform="translate(-5 -14.34)"/><path class="cls-81" d="M324.56,52.13A1.52,1.52,0,1,1,323,50.62,1.52,1.52,0,0,1,324.56,52.13Z" transform="translate(-5 -14.34)"/><circle class="cls-82" cx="420.33" cy="32.26" r="1.73"/><path class="cls-83" d="M257.64,93.5a1.09,1.09,0,1,1-1.09-1.08A1.09,1.09,0,0,1,257.64,93.5Z" transform="translate(-5 -14.34)"/><circle class="cls-84" cx="219.15" cy="57.32" r="1.3"/><path class="cls-85" d="M412.36,170.17a1.57,1.57,0,1,1-1.57-1.56A1.56,1.56,0,0,1,412.36,170.17Z" transform="translate(-5 -14.34)"/><path class="cls-86" d="M405.12,217.53a1.22,1.22,0,1,1-1.22-1.22A1.22,1.22,0,0,1,405.12,217.53Z" transform="translate(-5 -14.34)"/><circle class="cls-87" cx="225.83" cy="322.21" r="2.25"/><path class="cls-88" d="M267.16,356.94a1.68,1.68,0,1,1-1.68-1.68A1.68,1.68,0,0,1,267.16,356.94Z" transform="translate(-5 -14.34)"/><path class="cls-89" d="M308.94,376.5a1.47,1.47,0,1,1-1.47-1.47A1.47,1.47,0,0,1,308.94,376.5Z" transform="translate(-5 -14.34)"/><path class="cls-90" d="M455.84,390.27a1.1,1.1,0,1,1-1.1-1.11A1.1,1.1,0,0,1,455.84,390.27Z" transform="translate(-5 -14.34)"/><path class="cls-91" d="M483.43,328.68a1.67,1.67,0,1,1-1.66-1.67A1.66,1.66,0,0,1,483.43,328.68Z" transform="translate(-5 -14.34)"/><circle class="cls-92" cx="430.15" cy="346.59" r="1.05"/><path class="cls-93" d="M485,414.33a1.23,1.23,0,1,1-1.22-1.22A1.22,1.22,0,0,1,485,414.33Z" transform="translate(-5 -14.34)"/><path class="cls-94" d="M312.21,114.37a1.22,1.22,0,1,1-1.22-1.21A1.22,1.22,0,0,1,312.21,114.37Z" transform="translate(-5 -14.34)"/><path class="cls-95" d="M364.76,102a1.39,1.39,0,1,1-1.39-1.39A1.39,1.39,0,0,1,364.76,102Z" transform="translate(-5 -14.34)"/><path class="cls-96" d="M394.11,39a1.48,1.48,0,1,1-1.48-1.48A1.48,1.48,0,0,1,394.11,39Z" transform="translate(-5 -14.34)"/><circle class="cls-97" cx="257.41" cy="17.24" r="1.3"/><circle class="cls-98" cx="289.09" cy="171.27" r="1.17"/><path class="cls-99" d="M251.33,362.15a1.75,1.75,0,1,1-1.75-1.75A1.76,1.76,0,0,1,251.33,362.15Z" transform="translate(-5 -14.34)"/><path class="cls-100" d="M233.23,414.46a1.73,1.73,0,1,1-1.73-1.73A1.73,1.73,0,0,1,233.23,414.46Z" transform="translate(-5 -14.34)"/><path class="cls-101" d="M427.28,397.15a1.21,1.21,0,1,1-1.21-1.21A1.21,1.21,0,0,1,427.28,397.15Z" transform="translate(-5 -14.34)"/><path class="cls-102" d="M367.71,408.43a1.45,1.45,0,1,1-1.45-1.45A1.45,1.45,0,0,1,367.71,408.43Z" transform="translate(-5 -14.34)"/><circle class="cls-103" cx="389.15" cy="321.31" r="1.14"/><path class="cls-104" d="M417.23,245.66a1.13,1.13,0,1,1-1.12-1.12A1.13,1.13,0,0,1,417.23,245.66Z" transform="translate(-5 -14.34)"/><path class="cls-105" d="M461.9,145.9a1.44,1.44,0,1,1-1.44-1.44A1.43,1.43,0,0,1,461.9,145.9Z" transform="translate(-5 -14.34)"/><path class="cls-106" d="M488.42,132a1.44,1.44,0,1,1-1.44-1.44A1.43,1.43,0,0,1,488.42,132Z" transform="translate(-5 -14.34)"/><path class="cls-107" d="M255.21,149.69a1.17,1.17,0,1,1-1.16-1.17A1.16,1.16,0,0,1,255.21,149.69Z" transform="translate(-5 -14.34)"/><path class="cls-108" d="M246.4,171.64a1.17,1.17,0,1,1-1.17-1.16A1.16,1.16,0,0,1,246.4,171.64Z" transform="translate(-5 -14.34)"/><path class="cls-109" d="M223.24,159.75a1.16,1.16,0,1,1-1.16-1.16A1.15,1.15,0,0,1,223.24,159.75Z" transform="translate(-5 -14.34)"/><g class="cls-110"><path class="cls-111" d="M447,112.73a263.47,263.47,0,0,0-162.77,0,3,3,0,0,1-3.95-2.85V33.13a3,3,0,0,1,2.06-2.88,263.42,263.42,0,0,1,166.54,0A3,3,0,0,1,451,33.13v76.75A3,3,0,0,1,447,112.73Z" transform="translate(-5 -14.34)"/><path class="cls-112" d="M282.31,111.87V35.12a3,3,0,0,1,2.06-2.88,263.45,263.45,0,0,1,166.48,0,3,3,0,0,0-1.93-2,263.42,263.42,0,0,0-166.54,0,3,3,0,0,0-2.06,2.88v76.75a3,3,0,0,0,2.12,2.85A3,3,0,0,1,282.31,111.87Z" transform="translate(-5 -14.34)"/><path class="cls-113" d="M441,46.78a255.39,255.39,0,0,0-68.41-13.37V28.1A255.47,255.47,0,0,1,441,41.47Z" transform="translate(-5 -14.34)"/><path class="cls-113" d="M441,59.38A255.39,255.39,0,0,0,372.63,46V40.7A255.47,255.47,0,0,1,441,54.07Z" transform="translate(-5 -14.34)"/><path class="cls-113" d="M441,72a255.39,255.39,0,0,0-68.41-13.37V53.3A255.47,255.47,0,0,1,441,66.67Z" transform="translate(-5 -14.34)"/><path class="cls-113" d="M441,84.58a255.39,255.39,0,0,0-68.41-13.37V65.9A255.47,255.47,0,0,1,441,79.27Z" transform="translate(-5 -14.34)"/><path class="cls-113" d="M405,87.71a255.74,255.74,0,0,0-32.34-3.9V78.5a256.71,256.71,0,0,1,32.3,3.89Z" transform="translate(-5 -14.34)"/><path class="cls-112" d="M301.71,96.57l-8,2V67.86l8-1.77ZM316.9,45.14l-8,1.36V95.09l8-1.56Zm15.18,5.78-8,1V92.54l8-1.19Zm15.19,3.9-8,.27V90.73l8-.45Zm15.19,4.75-8-.19V90.05h8Z" transform="translate(-5 -14.34)"/></g><g class="cls-110"><path class="cls-112" d="M555.27,107.36s7.38-25.5-34.23-36.91V213.39s37.42,2.5,34.73,26.66Z" transform="translate(-5 -14.34)"/><path class="cls-114" d="M416.86,186s118.78-30.87,138.91-83.22V245c-20.13,52.34-138.91,83.21-138.91,83.21Z" transform="translate(-5 -14.34)"/><path class="cls-115" d="M447.85,199.48s92.28-24,107.92-64.65v8c-12.23,34.87-107.92,63.3-107.92,63.3Z" transform="translate(-5 -14.34)"/><path class="cls-115" d="M447.85,221.73s92.28-24,107.92-64.64v8c-12.23,34.88-107.92,63.3-107.92,63.3Z" transform="translate(-5 -14.34)"/><path class="cls-115" d="M447.85,244s92.28-24,107.92-64.65v8c-12.23,34.87-107.92,63.3-107.92,63.3Z" transform="translate(-5 -14.34)"/><path class="cls-115" d="M447.85,266.25s92.28-24,107.92-64.65v8c-12.23,34.87-107.92,63.3-107.92,63.3Z" transform="translate(-5 -14.34)"/><path class="cls-115" d="M447.85,288.51s92.28-24,107.92-64.65v8c-12.23,34.87-107.92,63.3-107.92,63.3Z" transform="translate(-5 -14.34)"/><path class="cls-112" d="M555.77,102.77v5.62c-24.3,50-137.17,79.33-137.17,79.33V327.78l-1.74.47V186S535.64,155.12,555.77,102.77Z" transform="translate(-5 -14.34)"/></g><path class="cls-116" d="M268,236.89a9,9,0,0,1-2.54-17.68l24.16-7.09a34.17,34.17,0,0,0,16.5-10.73l27.65-32.63a9,9,0,1,1,13.77,11.67l-27.66,32.63a52.14,52.14,0,0,1-25.18,16.37l-24.16,7.09A9,9,0,0,1,268,236.89Z" transform="translate(-5 -14.34)"/><path class="cls-117" d="M313,216.75a9.52,9.52,0,0,1-7.26-15.68l27.65-32.63a9.52,9.52,0,1,1,14.53,12.31l-27.65,32.63A9.53,9.53,0,0,1,313,216.75Z" transform="translate(-5 -14.34)"/><path class="cls-118" d="M388,464.28l-5.72,36.81h0a9.06,9.06,0,0,0,6.9,8.18l2.64.64a9,9,0,0,0,7.22-1.29h0a26.86,26.86,0,0,0,11.67-19L413,470.7a12.28,12.28,0,0,0-1.7-7.85l-2.79-4.56Z" transform="translate(-5 -14.34)"/><path class="cls-118" d="M333.16,437.62,312.38,454a9.87,9.87,0,0,0-3.3,5.64l-.48,2.52a8.9,8.9,0,0,0,5.07,9.81h0a9.88,9.88,0,0,0,9.12-.51l34.15-19.95a9.59,9.59,0,0,0,4.67-8.22h0a15.1,15.1,0,0,0-3.74-9.94l-4.52-5.18-17.07,5.94Z" transform="translate(-5 -14.34)"/><path class="cls-119" d="M346.07,440.72A12,12,0,0,1,334.12,430l-6.43-67.15-5.8-91.71a12,12,0,0,1,11.25-12.77c6.62-.4,25.9,17.49,26.32,24.12l-4.12,80.33.7,64.66c.7,6.6-2.09,12.52-8.7,13.22C346.92,440.69,346.49,440.72,346.07,440.72Z" transform="translate(-5 -14.34)"/><path class="cls-120" d="M398.93,472.85a12,12,0,0,1-11.66-9.1l-23.51-91.6L343,299.56l-15.69-24.41c-1.14-6.55,23.58-8.52,30.12-9.66s33.61,9.77,34.75,16.32V367l16.46,90.93c1.62,6.44-.29,13-6.73,14.6A11.9,11.9,0,0,1,398.93,472.85Z" transform="translate(-5 -14.34)"/><path class="cls-116" d="M247.55,225.7l0-.13a2.74,2.74,0,0,1,2.19-3.2l17.51-3.3a2.73,2.73,0,0,1,3.2,2.18l0,.13a2.74,2.74,0,0,1-2.19,3.2l-17.51,3.31A2.74,2.74,0,0,1,247.55,225.7Z" transform="translate(-5 -14.34)"/><path class="cls-116" d="M257.5,212.73l.07-.11a2.76,2.76,0,0,1,3.8-.81l14.94,9.7a2.76,2.76,0,0,1,.81,3.8l-.07.11a2.73,2.73,0,0,1-3.79.8l-14.95-9.7A2.74,2.74,0,0,1,257.5,212.73Z" transform="translate(-5 -14.34)"/><path class="cls-121" d="M354,161.67l33.81,19.52a22.3,22.3,0,0,1,11,21.36l-3.6,38.92a136.58,136.58,0,0,0-.14,23.67l.61,29.25c-15.06,12.11-60.22-2.12-71.15-18.05-10.31-15,0-97.69,0-97.69A19.61,19.61,0,0,1,354,161.67Z" transform="translate(-5 -14.34)"/><path class="cls-116" d="M340.43,289.56A9,9,0,0,1,334.26,274L362.45,240a25.81,25.81,0,0,0,7.63-13.39l6.7-30.41a9,9,0,0,1,17.62,3.88l-6.69,30.41a43.94,43.94,0,0,1-12.93,22.7l-28.19,33.93A9,9,0,0,1,340.43,289.56Z" transform="translate(-5 -14.34)"/><path class="cls-122" d="M378.91,238.08a9.69,9.69,0,0,1-2.06-.22,9.52,9.52,0,0,1-7.25-11.35l6.69-30.41a9.52,9.52,0,0,1,18.6,4.1l-6.69,30.4A9.53,9.53,0,0,1,378.91,238.08Z" transform="translate(-5 -14.34)"/><path class="cls-116" d="M353.71,138.2h11.06a1.87,1.87,0,0,1,1.87,1.87v28.19a2.93,2.93,0,0,1-2.93,2.93h-8.94a2.93,2.93,0,0,1-2.93-2.93V140.07A1.87,1.87,0,0,1,353.71,138.2Z"/><path class="cls-116" d="M367.44,175.76H361c-16.71,0-23.81-13.56-23.81-30.28v-6.75a9.34,9.34,0,0,1,9.34-9.34h15.82a12,12,0,0,1,12,12l7,25.76C381.32,170.92,371.23,175.76,367.44,175.76Z" transform="translate(-5 -14.34)"/><path class="cls-123" d="M388.86,140c-.08-4.48-.49-9-2.2-13.08-5.19-12.46-27.55-18.08-39.51-15.17-7.08,1.72-16.44,7.09-13.46,15.4,2.48,6.89,9.69,7.78,15.88,9.66,4.5,1.36,10.6,3.66,12.69,8.32,2.29,5.1.71,12.14,3,17.81a6.87,6.87,0,0,0,4.14.59c1.16-1.42.66-3.48.64-5.3s1.3-4.11,3-3.55,1.51,3,1.05,4.74c-.83,3.1-1.14,6.95,1.34,9,2,1.61,5.08,1.23,7.13-.32a12.92,12.92,0,0,0,4-6.39c2-5.9,2.2-12.22,2.24-18.44C388.88,142.12,388.88,141,388.86,140Z" transform="translate(-5 -14.34)"/><path class="cls-116" d="M322.44,291.9l-.1-.09a2.75,2.75,0,0,1-.19-3.88l12-13.19a2.75,2.75,0,0,1,3.87-.19l.1.09a2.75,2.75,0,0,1,.18,3.88l-12,13.19A2.75,2.75,0,0,1,322.44,291.9Z" transform="translate(-5 -14.34)"/><path class="cls-116" d="M326.44,298.49l-.11-.07a2.75,2.75,0,0,1-.82-3.79l9.65-15a2.73,2.73,0,0,1,3.79-.82l.11.07a2.74,2.74,0,0,1,.82,3.79l-9.65,15A2.75,2.75,0,0,1,326.44,298.49Z" transform="translate(-5 -14.34)"/><path class="cls-116" d="M333.06,300.05l-.12-.06a2.74,2.74,0,0,1-1.25-3.67l7.85-16a2.74,2.74,0,0,1,3.67-1.25l.12.06a2.74,2.74,0,0,1,1.25,3.67l-7.85,16A2.74,2.74,0,0,1,333.06,300.05Z" transform="translate(-5 -14.34)"/><path class="cls-116" d="M340.6,300.07l-.13,0a2.74,2.74,0,0,1-2.11-3.25l3.71-17.43a2.74,2.74,0,0,1,3.25-2.11l.13,0a2.73,2.73,0,0,1,2.11,3.25L343.85,298A2.74,2.74,0,0,1,340.6,300.07Z" transform="translate(-5 -14.34)"/><path class="cls-116" d="M321.87,271v-.13a2.75,2.75,0,0,1,2.88-2.6l17.8.94a2.74,2.74,0,0,1,2.59,2.89v.13a2.74,2.74,0,0,1-2.88,2.59l-17.79-.94A2.75,2.75,0,0,1,321.87,271Z" transform="translate(-5 -14.34)"/><path class="cls-3" d="M334.21,125.55a3.45,3.45,0,0,1,3.38,0l.58.48a72.21,72.21,0,0,0,19.49,11.69l1.12.46a9.94,9.94,0,0,1,5.93,7.16h0a15.13,15.13,0,0,1,.13,5.45l-.39,2.46a11,11,0,0,1-5.35,7.79l-3.65,2.07-12.13-22.6a5.45,5.45,0,0,1-2.46-4.25l-13.33-7.2Z" transform="translate(-5 -14.34)"/><path class="cls-118" d="M329.56,127.87a3.49,3.49,0,0,1,3.4,0l23.74,13.68a5.48,5.48,0,0,1,2.48,4.28V159.8a2,2,0,0,1-1,1.71l-5.43,3.31L335,145.29a5.48,5.48,0,0,1-2.48-4.28l-7.82-10.46Z" transform="translate(-5 -14.34)"/><polygon class="cls-124" points="339.4 120.16 333.27 123.71 333.41 123.95 339.69 120.33 339.4 120.16"/><path class="cls-125" d="M324,132.09c0-1.57,1.11-2.21,2.47-1.43l24.7,14.26a5.5,5.5,0,0,1,2.47,4.29v13.84c0,1.58-1.11,2.22-2.47,1.43l-24.7-14.26a5.47,5.47,0,0,1-2.47-4.28Z" transform="translate(-5 -14.34)"/><polygon class="cls-124" points="333.84 142.94 334.13 143.1 334.13 123.54 333.84 123.37 333.84 142.94"/><path class="cls-126" d="M338.84,149.22c.45.26.82,0,.82-.63V141.2a2,2,0,0,0-.82-1.58c-.45-.25-.82,0-.82.64v7.38A2,2,0,0,0,338.84,149.22Z" transform="translate(-5 -14.34)"/><path class="cls-118" d="M358.29,148.07l26.54-15c1.56-.91,2-2.31,2.63-4l.89.25a4.08,4.08,0,0,1,.33,1.62v7.11a6.13,6.13,0,0,1-3.06,5.36l-27.33,15.42Z" transform="translate(-5 -14.34)"/><path class="cls-118" d="M347.43,136.28l-8.38-4.83,19.41-12.76a118.06,118.06,0,0,1,12.13-5.51,7.79,7.79,0,0,1,10.59,6.55h0c-2.28.5-5.66,1.53-8.79,2.57a61.36,61.36,0,0,0-14.69,7.17Z" transform="translate(-5 -14.34)"/><g class="cls-127"><path class="cls-112" d="M181.32,130.59s-7.53-26,34.92-37.66V238.77s-38.17,2.55-35.43,27.2Z" transform="translate(-5 -14.34)"/><path class="cls-128" d="M322.54,210.81s-121.19-31.49-141.73-84.9V271.06C201.35,324.47,322.54,356,322.54,356Z" transform="translate(-5 -14.34)"/><path class="cls-129" d="M322.54,257.74c-7.14,5.14-14.18,10.54-22.56,12.75-13.84,3.65-29.74-3.17-36.64-15.72-2.54-4.64-4.21-10.2-8.65-13.07-6.51-4.2-15.18-.36-21.29,4.39s-12.26,10.71-20,10.92c-8.33.23-15.24-6.43-19.73-13.45-4.18-6.55-7.37-13.95-12.86-19.38v46.88C201.35,324.47,322.54,356,322.54,356Z" transform="translate(-5 -14.34)"/><path class="cls-112" d="M180.81,125.91v5.73c24.8,51,140,80.94,140,80.94V355.49l1.78.48V210.81S201.35,179.32,180.81,125.91Z" transform="translate(-5 -14.34)"/></g><path class="cls-2" d="M454.91,437.2l.71,17.15c.07,1.69,2,2.89,2,2.89h0a103.27,103.27,0,0,0,9.78,6.43l1.35-12.85,0,0c1.46-.95,2.75-.65,3.33.65.35.78.73,1.53,1.13,2.25.67,1.2.52,3.19-.45,5.1l-5.92,11.52c-1.53,3-1.4,6.11.29,7l10.25,6.43c.3.15,1-.75,1.37-.75v0H491v-9.53H486.4l3.16-6.16c.95-1.83,2.42-3.15,3.73-3.32.84-.11,1.81-.24,2.73-.4,1.32-.23,2.24.71,2.3,2.38l.44,10.61a3.06,3.06,0,0,0,1.8,2.84v0l10.47,7,.67-13.27,5.71-3.75a9.64,9.64,0,0,0,3.92-7.62l-.43-10.54a8.23,8.23,0,0,1,2.15-5.37c.81-.9,1.6-1.84,2.38-2.79,1.3-1.59,2.86-2.35,3.94-1.79l22-19.21c1.53-3,1.4-6.1-.29-7l-6.59-3.41c-1-.54-1.39-2.13-.89-4,.32-1.21.68-2.62,1-3.94a8,8,0,0,1,3-4.64l8.87-5.8a9.62,9.62,0,0,0,3.92-7.61l-.27-6.9,10.05-5.05-.28-1.55a8.08,8.08,0,0,0-7.94-6.6h-4.43v0a3.53,3.53,0,0,0-2.14.66l-8.8,5.76c-1.46.95-2.75.64-3.33-.66a24.73,24.73,0,0,0-1.18-2.36c-.67-1.19-.53-3.19.45-5.09l5.9-11.53c1.53-3,12,2,12,2l-8.16-12.52a4.62,4.62,0,0,0-3.87-2.1H536.37v0c-1.57.12-3.46,1.66-4.67,4l-6,11.64c-.94,1.83-2.42,3.16-3.73,3.33-.83.1-1.81.24-2.73.41-1.33.23-2.24-.71-2.31-2.37l0-.88,8.81-.49,1.23-4-12.91-8.12v0a3.78,3.78,0,0,0-1.86.66l-14.34,9.42A9.71,9.71,0,0,0,494,361l.45,10.53a8.25,8.25,0,0,1-2.15,5.37c-.81.9-1.6,1.84-2.38,2.8a6.92,6.92,0,0,1-1.28,1.22l-9.33-2.83a2.48,2.48,0,0,0-1.76,0h-.05a7.74,7.74,0,0,0-3.88,3.86l-9.63,18.78c-1.52,3-1.39,6.1.3,7l8.34,4.28c-.06.22-1.08,3.92-1.84,7.08a8,8,0,0,1-3.05,4.64l-8.86,5.81A9.69,9.69,0,0,0,454.91,437.2Zm35.47-28.62c5-13.05,15.58-23.69,24.56-24.8,11.82-1.47,16.77,12.9,10,30.42-5,13.05-15.58,23.68-24.56,24.8C488.6,440.46,483.65,426.09,490.38,408.58Z" transform="translate(-5 -14.34)"/><path class="cls-1" d="M481.88,426.44a8,8,0,0,1-3.05,4.64L470,436.89a9.67,9.67,0,0,0-3.91,7.64l.71,17.15c.12,2.72,2.05,3.72,4.33,2.22l8.8-5.77c1.45-1,2.75-.65,3.33.65.35.78.73,1.53,1.13,2.25.66,1.19.52,3.19-.46,5.1L478,477.65c-1.53,3-1.4,6.1.29,7l10.63,5.49c1.69.87,4.3-.84,5.83-3.82l6-11.64c.95-1.83,2.42-3.16,3.73-3.32.84-.11,1.81-.25,2.73-.4,1.32-.23,2.23.7,2.3,2.37l.44,10.62c.11,2.72,2,3.72,4.32,2.23l14.33-9.39a9.63,9.63,0,0,0,3.92-7.63L532,458.59a8.2,8.2,0,0,1,2.15-5.36c.81-.91,1.6-1.84,2.38-2.8,1.3-1.59,2.86-2.34,3.94-1.78L547,452c1.69.87,4.3-.84,5.83-3.82l9.65-18.77c1.53-3,1.4-6.1-.29-7l-6.59-3.41c-1-.54-1.4-2.14-.89-4,.31-1.21.68-2.63,1-3.94a8.06,8.06,0,0,1,3.06-4.64l8.87-5.8a9.61,9.61,0,0,0,3.92-7.63l-.69-17.16c-.11-2.73-2-3.73-4.32-2.24l-8.8,5.75c-1.46,1-2.75.65-3.33-.65-.36-.83-.76-1.61-1.18-2.37-.67-1.19-.53-3.18.45-5.09l5.9-11.53c1.53-3,1.4-6.1-.3-7l-10.65-5.46c-1.69-.86-4.3.85-5.82,3.83l-6,11.65c-.94,1.83-2.42,3.15-3.73,3.32-.84.11-1.81.25-2.73.41-1.33.23-2.24-.7-2.31-2.37l-.45-10.6c-.11-2.72-2-3.71-4.33-2.22L509,360.74a9.59,9.59,0,0,0-3.91,7.63l.44,10.53a8.14,8.14,0,0,1-2.14,5.36c-.81.91-1.6,1.85-2.38,2.8-1.3,1.59-2.86,2.35-3.94,1.8l-6.53-3.36c-1.69-.87-4.3.84-5.83,3.82l-9.63,18.78c-1.52,3-1.39,6.1.3,7l8.34,4.29C483.65,419.58,482.64,423.28,481.88,426.44Zm29.68,19.88c-11.82,1.47-16.77-12.9-10-30.42,5-13,15.58-23.68,24.56-24.79,11.82-1.47,16.77,12.9,10,30.41C531.11,434.57,520.54,445.21,511.56,446.32Z" transform="translate(-5 -14.34)"/><path class="cls-2" d="M22.31,145.07c-1.69-1-3.08-.18-3.08,1.78v84a6.81,6.81,0,0,0,3.08,5.32l125.3,72.35c1.69,1,3.08.18,3.08-1.77v-84a6.81,6.81,0,0,0-3.08-5.32Z" transform="translate(-5 -14.34)"/><path class="cls-1" d="M147.61,217.42,22.31,145.07c-1.69-1-3.08-.18-3.08,1.78v.81l124.34,71.78a6.82,6.82,0,0,1,3.07,5.32v83.17l1,.56c1.69,1,3.08.18,3.08-1.77v-84A6.81,6.81,0,0,0,147.61,217.42Z" transform="translate(-5 -14.34)"/><polygon class="cls-3" points="51.02 180.55 135.43 230.46 135.43 235.81 51.02 186.14 51.02 180.55"/><polygon class="cls-3" points="51.02 197.17 135.43 247.09 135.43 252.43 51.02 202.76 51.02 197.17"/><polygon class="cls-3" points="50.68 214.32 94.15 239.76 94.15 245.11 50.68 219.91 50.68 214.32"/><path class="cls-3" d="M43,205.81c1.33-1.06,2.14-2.95,2.14-5.52,0-5.78-4.11-12.86-9.09-15.74S27,184,27,189.81c0,3.93,1.9,8.47,4.69,11.87a14.53,14.53,0,0,0-8.36,13.15v3.62l27,15.82v-7.34A34,34,0,0,0,43,205.81Z" transform="translate(-5 -14.34)"/><path class="cls-130" d="M137.87,340.31l-.4.55a6,6,0,0,0-1.17,3.55v75.33a11.12,11.12,0,0,0,5,8.69l96,55.28a6.4,6.4,0,0,0,4.26.77l.21,0a6.36,6.36,0,0,0,5.32-6.27V401.76a11.05,11.05,0,0,0-5-8.67l-95.71-54.6A6.56,6.56,0,0,0,137.87,340.31Z" transform="translate(-5 -14.34)"/><path class="cls-131" d="M141.33,341c-2.76-1.59-5-.27-5,2.91v75.44a11.12,11.12,0,0,0,5,8.69l96.18,55.53c2.76,1.59,5,.29,5-2.9v-76a11.07,11.07,0,0,0-5-8.66Z" transform="translate(-5 -14.34)"/><path class="cls-132" d="M171.22,378.08c-4.75-2.74-8.63-.57-8.63,4.83s3.88,12.23,8.63,15.18,8.63.77,8.63-4.83S176,380.82,171.22,378.08Z" transform="translate(-5 -14.34)"/><path class="cls-133" d="M221.78,412.29l-23.71,17.48-9.81-18.67L164.71,421,136.3,405.6v13.75a11.12,11.12,0,0,0,5,8.69l96.18,55.53c2.76,1.59,5,.29,5-2.9V448.91Z" transform="translate(-5 -14.34)"/><polygon class="cls-134" points="216.87 398.12 216.87 421.57 210.98 413.47 202.89 419.11 202.89 416.94 193.07 415.43 216.78 397.95 216.87 398.12"/><polygon class="cls-134" points="183.26 396.76 183.26 402.43 178.35 402.43 177.37 406.68 174.85 403.66 159.71 406.68 183.26 396.76"/><ellipse class="cls-131" cx="631.71" cy="227.13" rx="70.14" ry="40.5" transform="translate(114.16 646.31) rotate(-60)"/><path class="cls-130" d="M638.18,171.47c27.28-15.75,49.6-2.86,49.6,28.64s-22.32,70.15-49.6,85.9-49.6,2.87-49.6-28.63S610.9,187.22,638.18,171.47Z" transform="translate(-5 -14.34)"/><path class="cls-118" d="M635.28,261.13,613.7,243.55A6.56,6.56,0,0,1,622,233.38l9.19,7.49,21.55-40.69a6.56,6.56,0,0,1,11.59,6.14Z" transform="translate(-5 -14.34)"/><path class="cls-123" d="M625.18,451.65a23.27,23.27,0,0,1-11.77-3c-8.45-4.87-13.12-14.9-13.16-28.24-.06-26.66,18.7-59.15,41.81-72.42h0c11.58-6.65,22.6-7.62,31-2.73s13.06,14.89,13.06,28.19c0,26.62-18.75,59.1-41.8,72.41C637.65,449.7,631.13,451.65,625.18,451.65Zm36.06-105.12c-5.18,0-11,1.75-17,5.21h0c-21.91,12.58-39.69,43.36-39.62,68.62,0,11.73,3.92,20.42,11,24.48s16.48,3.05,26.6-2.79c21.84-12.61,39.62-43.4,39.62-68.63,0-11.68-3.87-20.35-10.89-24.42A19.09,19.09,0,0,0,661.24,346.53Z" transform="translate(-5 -14.34)"/><path class="cls-135" d="M625.18,453.84a25.42,25.42,0,0,1-12.86-3.33c-9.15-5.27-14.21-16-14.25-30.13l8.73,0c0,10.91,3.53,18.93,9.87,22.58s15,2.66,24.41-2.78c20.89-12.06,38.53-42.62,38.53-66.74,0-10.87-3.48-18.87-9.79-22.53s-15-2.69-24.5,2.74L641,346.07c12.28-7.05,24.08-8,33.21-2.73s14.15,16,14.15,30.08c0,27.31-19.24,60.64-42.89,74.3C638.4,451.79,631.5,453.84,625.18,453.84Z" transform="translate(-5 -14.34)"/><path class="cls-118" d="M627.54,386.91a14.77,14.77,0,0,1,5.53-5.84c2.18-1.23,3.95-1.31,5.34-.27s2,2.93,2,5.64a19.15,19.15,0,0,1-2.16,8.11q2.63,1.86,2.46,7.38a20.43,20.43,0,0,1-2.57,9.15,15.88,15.88,0,0,1-6.14,6.59c-2.49,1.4-4.48,1.48-6,.22s-2.18-3.45-2.09-6.55a22.12,22.12,0,0,1,3-10.45c-1.25-1.24-1.84-3.22-1.76-5.92A17.28,17.28,0,0,1,627.54,386.91Zm2.27,24.33a2.31,2.31,0,0,0,2.35-.15,7.21,7.21,0,0,0,2.42-2.53,8.08,8.08,0,0,0,1.2-4.08c0-1.52-.28-2.48-1-2.9a2.27,2.27,0,0,0-2.38.14A7,7,0,0,0,630,404.3a8.2,8.2,0,0,0-1.18,4.09C628.76,409.9,629.1,410.86,629.81,411.24Zm.76-15.63a1.7,1.7,0,0,0,2.06,0,5.81,5.81,0,0,0,2.12-2.39,7.86,7.86,0,0,0,1-3.51,3.11,3.11,0,0,0-.79-2.53,1.68,1.68,0,0,0-2.06,0,5.73,5.73,0,0,0-2.14,2.38,7.88,7.88,0,0,0-1,3.52A3,3,0,0,0,630.57,395.61Z" transform="translate(-5 -14.34)"/><path class="cls-118" d="M645.26,381.63l.21-6.73,13.43-7.55-.17,5.47L654,383.6a3.21,3.21,0,0,1,4,1.27,10,10,0,0,1,1.25,5.81,22.26,22.26,0,0,1-2.61,10,15.87,15.87,0,0,1-6.07,6.52,6.93,6.93,0,0,1-7.25,0l2.2-7.4c2,1.19,3.81,1.34,5.44.42a6.61,6.61,0,0,0,2.47-2.53,8.22,8.22,0,0,0,1.06-3.9c0-1.47-.28-2.43-1-2.88s-1.71-.31-3,.41a15.17,15.17,0,0,0-3,2.61l.18-5.82,4.45-10.37Z" transform="translate(-5 -14.34)"/></svg>