<?xml version="1.0" encoding="utf-8"?>
<!-- Generator: Adobe Illustrator 25.2.3, SVG Export Plug-In . SVG Version: 6.00 Build 0)  -->
<svg version="1.1" id="Layer_1" xmlns="http://www.w3.org/2000/svg" xmlns:xlink="http://www.w3.org/1999/xlink" x="0px" y="0px"
	 viewBox="0 0 501 140.9" style="enable-background:new 0 0 501 140.9;" xml:space="preserve">
<style type="text/css">
	.st0{fill:url(#SVGID_1_);}
	.st1{fill:url(#SVGID_2_);}
	.st2{fill:#FFFFFF;}
	.st3{fill:url(#SVGID_3_);}
	.st4{fill:url(#SVGID_4_);}
	.st5{fill:url(#SVGID_5_);}
	.st6{fill:url(#SVGID_6_);}
	.st7{fill:url(#SVGID_7_);}
	.st8{fill:url(#SVGID_8_);}
	.st9{fill:url(#SVGID_9_);}
</style>
<g>
	<g>
		<g>
			<g>
				<linearGradient id="SVGID_1_" gradientUnits="userSpaceOnUse" x1="212.4298" y1="38.1453" x2="212.4298" y2="101.8642">
					<stop  offset="0" style="stop-color:#F6901E"/>
					<stop  offset="1" style="stop-color:#EC1459"/>
				</linearGradient>
				<path class="st0" d="M225,86.1h-25.4l-4.9,11.7h-13L206.1,43h12.5l24.5,54.8h-13.3L225,86.1z M221,76.4l-8.7-21l-8.7,21H221z"/>
				<linearGradient id="SVGID_2_" gradientUnits="userSpaceOnUse" x1="254.8213" y1="38.1453" x2="254.8213" y2="101.8642">
					<stop  offset="0" style="stop-color:#F6901E"/>
					<stop  offset="1" style="stop-color:#EC1459"/>
				</linearGradient>
				<path class="st1" d="M248.5,43h12.7v54.8h-12.7V43z"/>
			</g>
			<g>
				<path class="st2" d="M316.7,74.2c1.8,2.3,2.7,5.3,2.7,8.8c0,4.7-1.8,8.4-5.4,11c-3.6,2.6-8.8,3.8-15.6,3.8h-26.1V43h24.6
					c6.3,0,11.1,1.3,14.5,3.8c3.4,2.5,5.1,6,5.1,10.4c0,2.9-0.7,5.4-2,7.4c-1.3,2.1-3.1,3.7-5.4,4.8
					C312.4,70.3,314.9,71.9,316.7,74.2z M280.2,49.4v17.5h16c4,0,7.1-0.7,9.3-2.2c2.2-1.5,3.2-3.7,3.2-6.5c0-2.9-1.1-5-3.2-6.5
					c-2.2-1.5-5.3-2.2-9.3-2.2H280.2z M308.2,89.3c2.2-1.5,3.4-3.8,3.4-6.9c0-6.1-4.5-9.2-13.4-9.2h-18v18.2h18
					C302.6,91.5,306,90.7,308.2,89.3z"/>
				<path class="st2" d="M335.2,95.5c-3.3-1.8-5.9-4.3-7.7-7.6c-1.9-3.2-2.8-6.8-2.8-10.9s0.9-7.7,2.8-10.9c1.9-3.2,4.4-5.7,7.7-7.5
					c3.3-1.8,7-2.7,11.1-2.7c4.1,0,7.8,0.9,11.1,2.7c3.3,1.8,5.8,4.3,7.7,7.5c1.9,3.2,2.8,6.8,2.8,10.9s-0.9,7.7-2.8,10.9
					c-1.9,3.2-4.4,5.7-7.7,7.6c-3.3,1.8-7,2.7-11.1,2.7C342.2,98.3,338.5,97.4,335.2,95.5z M353.5,89.9c2.1-1.2,3.8-2.9,5-5.2
					c1.2-2.2,1.8-4.8,1.8-7.6c0-2.9-0.6-5.4-1.8-7.6c-1.2-2.2-2.9-3.9-5-5.1c-2.1-1.2-4.5-1.8-7.2-1.8c-2.7,0-5.1,0.6-7.2,1.8
					c-2.1,1.2-3.8,2.9-5,5.1c-1.2,2.2-1.8,4.8-1.8,7.6c0,2.9,0.6,5.4,1.8,7.6c1.2,2.2,2.9,3.9,5,5.2c2.1,1.2,4.5,1.8,7.2,1.8
					C349,91.7,351.4,91.1,353.5,89.9z"/>
				<path class="st2" d="M399.6,95.4c-1.1,0.9-2.5,1.7-4.1,2.2c-1.6,0.5-3.3,0.7-5,0.7c-4.2,0-7.4-1.1-9.7-3.4
					c-2.3-2.2-3.4-5.5-3.4-9.6V62.5h-7v-6.2h7v-9.1h7.5v9.1h11.9v6.2h-11.9V85c0,2.2,0.6,4,1.7,5.2c1.1,1.2,2.7,1.8,4.8,1.8
					c2.3,0,4.3-0.7,5.9-2L399.6,95.4z"/>
				<path class="st2" d="M406.9,46.9c-1-0.9-1.4-2.1-1.4-3.4c0-1.4,0.5-2.5,1.4-3.5c1-1,2.2-1.4,3.6-1.4c1.5,0,2.7,0.5,3.6,1.4
					c1,0.9,1.4,2,1.4,3.4c0,1.4-0.5,2.6-1.4,3.6c-1,1-2.2,1.4-3.6,1.4C409.1,48.3,407.8,47.9,406.9,46.9z M406.8,56.3h7.5v41.5h-7.5
					V56.3z"/>
				<path class="st2" d="M433.4,95.5c-3.3-1.8-5.9-4.3-7.8-7.6c-1.9-3.2-2.8-6.8-2.8-10.9s0.9-7.7,2.8-10.9c1.9-3.2,4.5-5.7,7.8-7.5
					c3.3-1.8,7.1-2.7,11.3-2.7c3.8,0,7.1,0.8,10.1,2.3c2.9,1.5,5.2,3.7,6.8,6.6l-5.7,3.7c-1.3-2-2.9-3.5-4.9-4.5
					c-1.9-1-4.1-1.5-6.4-1.5c-2.7,0-5.2,0.6-7.3,1.8c-2.2,1.2-3.9,2.9-5.1,5.1c-1.2,2.2-1.8,4.8-1.8,7.6c0,2.9,0.6,5.5,1.8,7.7
					c1.2,2.2,2.9,3.9,5.1,5.1c2.2,1.2,4.6,1.8,7.3,1.8c2.3,0,4.5-0.5,6.4-1.5c1.9-1,3.5-2.5,4.9-4.5l5.7,3.6
					c-1.6,2.9-3.9,5.1-6.8,6.6c-2.9,1.5-6.3,2.3-10.1,2.3C440.5,98.3,436.7,97.4,433.4,95.5z"/>
				<path class="st2" d="M472.8,96.9c-3.1-0.9-5.6-2.1-7.4-3.5l3.1-6c1.8,1.3,4,2.3,6.7,3.1c2.6,0.8,5.2,1.2,7.9,1.2
					c6.6,0,9.9-1.9,9.9-5.6c0-1.3-0.4-2.2-1.3-3c-0.9-0.7-2-1.3-3.3-1.6c-1.3-0.3-3.2-0.7-5.7-1.1c-3.3-0.5-6.1-1.1-8.2-1.8
					c-2.1-0.7-3.9-1.8-5.4-3.4c-1.5-1.6-2.3-3.9-2.3-6.8c0-3.8,1.6-6.8,4.7-9c3.1-2.3,7.3-3.4,12.6-3.4c2.8,0,5.5,0.3,8.3,1
					c2.8,0.7,5,1.6,6.8,2.7l-3.2,6c-3.4-2.2-7.4-3.3-12-3.3c-3.2,0-5.6,0.5-7.3,1.6c-1.7,1-2.5,2.4-2.5,4.1c0,1.4,0.5,2.4,1.4,3.2
					c0.9,0.8,2.1,1.4,3.5,1.7c1.4,0.4,3.3,0.8,5.8,1.3c3.3,0.6,6,1.2,8.1,1.8c2.1,0.7,3.8,1.8,5.3,3.3c1.5,1.6,2.2,3.8,2.2,6.6
					c0,3.8-1.6,6.7-4.8,9c-3.2,2.2-7.6,3.3-13.1,3.3C479.2,98.3,475.9,97.8,472.8,96.9z"/>
			</g>
		</g>
	</g>
	<g>
		<linearGradient id="SVGID_3_" gradientUnits="userSpaceOnUse" x1="137.9635" y1="140.9961" x2="58.6592" y2="-5.1239">
			<stop  offset="0" style="stop-color:#EC1459"/>
			<stop  offset="1" style="stop-color:#F6901E"/>
		</linearGradient>
		<path class="st3" d="M147.8,85.7c5.7-2.2,11.4-1.9,6.9-9.9l-8-14.2l-0.3-0.5c0,0,0-0.1,0.1-0.5c0.6-5.2,0.6-5.7,0.2-10.6
			c-1.1-12.6-6.1-23.7-14.5-32.7C108.7-7.6,68.9-4.6,49.2,22.1c-0.4-0.1-0.9-0.2-1.4-0.2c-2.8,0-5,2.3-5,5c0,2.8,2.3,5,5,5
			c2.8,0,5-2.3,5-5c0-0.4-0.1-0.8-0.2-1.2c15.6-6.1,33.2-6.5,49.1-1.1c0,0,0,0,0,0c-13,4.2-24.6,11.8-33.5,22
			c-0.6-0.2-1.2-0.3-1.8-0.3c-2.7,0-5,2.2-5,5c0,1.1,0.4,2.1,0.9,2.9c-2.9,4.3-5.4,8.9-7.3,13.9c-0.7-0.3-1.5-0.4-2.3-0.4
			c-3.9,0-7.1,3.2-7.1,7.1c0,3.9,3.2,7.1,7.1,7.1c0.7,0,1.3-0.1,1.9-0.3c1.9,3.8,4.2,7.5,6.7,10.9c-0.4,0.7-0.7,1.6-0.7,2.5
			c0,2.8,2.3,5.1,5.1,5.1c0.6,0,1.2-0.1,1.7-0.3c8.1,8.4,18.2,15,29.6,18.8c-7.3,2.8-15.1,4.4-23.2,4.6c-0.5-1.6-2-2.8-3.8-2.8
			c-2.2,0-4,1.8-4,4c0,2.2,1.8,4,4,4c1.1,0,2.2-0.5,2.9-1.3l39.7,13.4l0.4-2.7l0,0c1.3-9.2,2-13.8,8.8-15.2
			c12.2-0.1,22.7,0.8,21-16.6h0c-0.2-2-0.4-2.1,0.8-3.5c2.7-3,2.8-4.6,2.4-5.6c0.2-0.1,0.5-0.3,0.5-0.3l0,0c4-2.2,3.5-4.8,2.1-7.5
			C146.8,85.5,146.2,86.3,147.8,85.7z M136,28c4.8,8,7.6,17.8,7.5,27c-1.8-3.1-3.8-6.1-6-9c0.3-0.7,0.5-1.4,0.5-2.2
			c0-1.3-0.5-2.4-1.2-3.3c0,0-0.1-0.1-0.1-0.1c0,0,0,0,0,0c-0.3-0.4-0.7-0.7-1.2-1L136,28z M135.1,48.4c3,3.8,5.6,7.9,7.7,12.3
			c-5.3,2.3-10.7,4-16.2,5c0-0.1-0.1-0.2-0.2-0.3c3.1-5.1,5.6-10.7,7.2-16.6C134.2,48.7,134.7,48.6,135.1,48.4z M118.2,76.1
			c1.3-1.4,2.5-2.8,3.7-4.2c0.3,0.1,0.6,0.1,1,0.1c1.9,0,3.5-1.2,4.1-3c5.2-0.9,10.3-2.4,15.3-4.4c-1.6,9-4.8,17.2-9.3,24.6
			c-0.2,0-0.3,0-0.5,0c-0.3,0-0.7,0-1,0.1c-3.9-3.9-8.2-7.2-12.8-10.1c0.1-0.3,0.1-0.6,0.1-0.9C118.7,77.5,118.5,76.8,118.2,76.1z
			 M132.4,24.9c0.5,4.6,0.4,9.2-0.2,13.9c-0.3,0-0.7,0.1-1,0.2c-5.4-5.4-11.7-9.9-18.6-13.4c0,0,0-0.1,0-0.1
			C119.1,24.3,125.7,24.1,132.4,24.9z M53.8,21.7c20.2-24,57.1-24.2,77.5-0.3c-6.4-0.6-12.8-0.3-18.9,0.7c-0.8-2-2.8-3.3-5.1-3.3
			c-2,0-3.7,1-4.7,2.6C86.9,16,69.3,16.2,53.8,21.7z M103,27.7c1,1.2,2.5,2,4.3,2c1.4,0,2.6-0.5,3.6-1.4c6.6,3.3,12.5,7.6,17.7,12.7
			c-0.5,0.8-0.8,1.7-0.8,2.7c0,1.9,1,3.5,2.5,4.4c-1.6,5.5-3.8,10.7-6.7,15.4c-0.2,0-0.5-0.1-0.7-0.1c-2,0-3.6,1.3-4.1,3.1
			c-16.8,1.1-33.7-3.7-47.5-14c0.1-0.5,0.2-0.9,0.2-1.4c0-0.9-0.2-1.7-0.7-2.5C79.4,39,90.6,31.7,103,27.7z M65.3,56.1
			c0.4,0.1,0.8,0.2,1.3,0.2c1,0,2-0.3,2.8-0.8c14.5,10.8,32.2,15.8,49.8,14.6c-1,1.3-2.1,2.5-3.2,3.7c-0.7-0.3-1.4-0.5-2.3-0.5
			c-1.4,0-2.6,0.5-3.5,1.4c-15.9-7.3-34.2-8.9-51.5-4c-0.2-0.2-0.4-0.5-0.6-0.7C60,65,62.4,60.3,65.3,56.1z M66,89.9
			c-0.7,0-1.3,0.1-1.9,0.4c-2.4-3.3-4.5-6.7-6.3-10.4c1.4-1.3,2.2-3.1,2.2-5.2c0-0.3,0-0.7-0.1-1c16.4-4.5,33.7-3,48.7,3.9
			c0,0.2,0,0.4,0,0.6c0,0.7,0.1,1.3,0.3,1.8c-10.6,8.3-23.9,13.2-38,13.3C70.2,91.4,68.3,89.9,66,89.9z M70.3,97.7
			c0.2-0.3,0.3-0.6,0.4-0.9c15-0.1,29.1-5.3,40.3-14.2c0.7,0.4,1.6,0.7,2.5,0.7c1.3,0,2.4-0.5,3.3-1.2c4.2,2.7,8.2,5.8,11.8,9.3
			c-0.2,0.5-0.4,1.1-0.4,1.7c0,0.7,0.2,1.3,0.5,1.9c-6.5,8.5-14.8,15.5-24.3,20.4c-0.7-0.5-1.6-0.9-2.5-0.9c-1.1,0-2.2,0.5-2.9,1.2
			C88.1,112.1,78.3,106,70.3,97.7z M110.1,136.2l-29.6-10c6.5-0.7,12.8-2.3,18.7-4.7c0.7,0.7,1.7,1.2,2.8,1.2c1.4,0,2.6-0.7,3.3-1.7
			l9.2,1.4C111.8,125.1,111.1,129.6,110.1,136.2z M133.3,118.6c-1.4,0.1-3,0.2-4.6,0.2c-8.9,0.4-11.1,1.2-21.6-1
			c9.5-5.1,17.9-12.2,24.4-20.8c0.3,0.1,0.5,0.1,0.8,0.1c0.5,0,1-0.1,1.4-0.3c2.1,2.5,4,5.1,5.7,7.9
			C140.2,113.3,140.2,117.9,133.3,118.6z M146.5,82.6c-5.5,2.3-2,5.8-0.7,8.2c2.3,4.3-6.2,3-2.9,7.3l-2,2.7
			c-1.5-2.2-3.1-4.4-4.8-6.4c0.1-0.4,0.2-0.8,0.2-1.3c0-0.8-0.2-1.5-0.6-2.2c4.6-7.5,7.9-16,9.7-25.1c1.4,2.1,8,14.1,7.5,14.4
			C151.9,80.9,149.5,81.3,146.5,82.6z"/>
		<linearGradient id="SVGID_4_" gradientUnits="userSpaceOnUse" x1="83.0743" y1="172.3114" x2="4.2632" y2="27.1001">
			<stop  offset="0" style="stop-color:#EC1459"/>
			<stop  offset="1" style="stop-color:#F6901E"/>
		</linearGradient>
		<circle class="st4" cx="47.3" cy="106.5" r="6.6"/>
		<linearGradient id="SVGID_5_" gradientUnits="userSpaceOnUse" x1="63.2777" y1="183.964" x2="-15.5334" y2="38.7527">
			<stop  offset="0" style="stop-color:#EC1459"/>
			<stop  offset="1" style="stop-color:#F6901E"/>
		</linearGradient>
		<circle class="st5" cx="19" cy="102.3" r="3.6"/>
		<linearGradient id="SVGID_6_" gradientUnits="userSpaceOnUse" x1="77.7265" y1="175.4373" x2="-1.0847" y2="30.226">
			<stop  offset="0" style="stop-color:#EC1459"/>
			<stop  offset="1" style="stop-color:#F6901E"/>
		</linearGradient>
		<circle class="st6" cx="24.4" cy="77.1" r="5.2"/>
		<linearGradient id="SVGID_7_" gradientUnits="userSpaceOnUse" x1="65.9756" y1="182.3491" x2="-12.8355" y2="37.1378">
			<stop  offset="0" style="stop-color:#EC1459"/>
			<stop  offset="1" style="stop-color:#F6901E"/>
		</linearGradient>
		<circle class="st7" cx="4.1" cy="68.3" r="3.6"/>
		<linearGradient id="SVGID_8_" gradientUnits="userSpaceOnUse" x1="85.4241" y1="170.8855" x2="6.613" y2="25.6742">
			<stop  offset="0" style="stop-color:#EC1459"/>
			<stop  offset="1" style="stop-color:#F6901E"/>
		</linearGradient>
		<circle class="st8" cx="20.8" cy="51.9" r="3.6"/>
		<linearGradient id="SVGID_9_" gradientUnits="userSpaceOnUse" x1="103.7373" y1="160.1018" x2="24.9261" y2="14.8905">
			<stop  offset="0" style="stop-color:#EC1459"/>
			<stop  offset="1" style="stop-color:#F6901E"/>
		</linearGradient>
		<circle class="st9" cx="44.1" cy="50.2" r="6.6"/>
	</g>
</g>
</svg>
