<?xml version="1.0" encoding="utf-8"?>
<!-- Generator: Adobe Illustrator 26.0.3, SVG Export Plug-In . SVG Version: 6.00 Build 0)  -->
<svg version="1.1" id="Layer_1" xmlns="http://www.w3.org/2000/svg" xmlns:xlink="http://www.w3.org/1999/xlink" x="0px" y="0px"
	 viewBox="0 0 25 25" style="enable-background:new 0 0 25 25;" xml:space="preserve">
<style type="text/css">
	.st0{fill:#032774;}
	.st1{fill:#FFFFFF;}
	.st2{fill:#DF0333;}
</style>
<g id="XMLID_6638_">
	<path id="XMLID_6660_" class="st0" d="M22.02,5.2c-2.2-2.86-5.65-4.7-9.52-4.7c-3.87,0-7.32,1.84-9.52,4.7
		c-0.15,0.19-0.3,0.39-0.43,0.6C2.41,6,2.28,6.21,2.16,6.42C2.08,6.56,1.99,6.7,1.92,6.85C1.88,6.92,1.84,6.99,1.81,7.06
		c-0.1,0.19-0.19,0.38-0.27,0.58c-0.07,0.16-0.14,0.32-0.2,0.48C1.14,8.59,0.98,9.08,0.86,9.58C0.82,9.74,0.78,9.9,0.75,10.06
		c-0.08,0.39-0.14,0.79-0.18,1.2c-0.03,0.28-0.05,0.56-0.06,0.84C0.5,12.23,0.5,12.37,0.5,12.5c0,2.74,0.93,5.28,2.48,7.3
		c2.2,2.86,5.65,4.7,9.52,4.7c3.87,0,7.32-1.85,9.52-4.7c1.56-2.02,2.48-4.55,2.48-7.3S23.58,7.22,22.02,5.2z"/>
	<g id="XMLID_6645_">
		<path id="XMLID_6659_" class="st0" d="M2.96,10.06l-2.39,1.2c0.04-0.4,0.1-0.81,0.18-1.2H2.96z"/>
		<path id="XMLID_6658_" class="st0" d="M5.8,5.2v2.22L2.55,5.8c0.14-0.2,0.28-0.4,0.43-0.6H5.8z"/>
		<path id="XMLID_6657_" class="st0" d="M2.96,7.64H1.53c0.09-0.2,0.18-0.39,0.27-0.58L2.96,7.64z"/>
		<polygon id="XMLID_6656_" class="st0" points="14.31,7.64 14.31,6.01 11.07,7.64 		"/>
		<polygon id="XMLID_6655_" class="st0" points="12.68,5.2 8.23,5.2 8.23,7.43 		"/>
		<polygon id="XMLID_6654_" class="st0" points="14.31,11.69 14.31,10.06 11.07,10.06 		"/>
		<polygon id="XMLID_6653_" class="st0" points="1.35,12.5 5.8,12.5 5.8,10.27 		"/>
		<polygon id="XMLID_6652_" class="st0" points="8.23,12.5 12.68,12.5 8.23,10.27 		"/>
		<path id="XMLID_6651_" class="st1" d="M14.32,6.01l-3.24,1.62h3.24v2.43h-3.24l3.24,1.62v0.27l-3.79-1.9H9.43l4.86,2.44h-1.62
			l-4.45-2.23v2.23H5.8v-2.23L1.35,12.5H0.8l4.87-2.44H4.58L0.51,12.1c0.01-0.28,0.03-0.56,0.06-0.84l2.39-1.2H0.75
			C0.78,9.9,0.82,9.74,0.86,9.58c0.12-0.5,0.28-0.99,0.47-1.46c0.06-0.16,0.13-0.33,0.2-0.48h1.42L1.81,7.06
			c0.04-0.07,0.07-0.14,0.11-0.21L3.5,7.64h1.09L2.16,6.42C2.28,6.21,2.41,6,2.55,5.8L5.8,7.43V5.2h2.43v2.22l4.45-2.22h0.54
			L8.35,7.64h1.09l4.87-2.44h0.01V6.01z"/>
		<path id="XMLID_6650_" class="st2" d="M4.59,7.64H3.5L1.92,6.85C1.99,6.7,2.08,6.56,2.16,6.42L4.59,7.64z"/>
		<polygon id="XMLID_6649_" class="st2" points="9.43,10.06 14.3,12.5 14.31,12.5 14.31,11.96 10.53,10.06 		"/>
		<polygon id="XMLID_6648_" class="st2" points="8.35,7.64 9.44,7.64 14.31,5.2 13.22,5.2 		"/>
		<path id="XMLID_6647_" class="st2" d="M5.67,10.06L0.8,12.5H0.5c0-0.13,0-0.27,0.01-0.4l4.07-2.04H5.67z"/>
		<path id="XMLID_6646_" class="st2" d="M14.32,8.12v1.46H7.74v2.92H6.28V9.58H0.86c0.12-0.5,0.28-0.99,0.47-1.46h4.96V5.2h1.46
			v2.92H14.32z"/>
	</g>
	<polygon id="XMLID_6644_" class="st1" points="7.01,17.15 6.06,18.12 6.23,16.77 4.88,16.64 6.04,15.93 5.3,14.79 6.58,15.26 
		7.01,13.96 7.44,15.26 8.72,14.79 7.98,15.93 9.14,16.64 7.79,16.77 7.96,18.12 	"/>
	<polygon id="XMLID_6643_" class="st1" points="18.97,17.85 18.52,18.32 18.6,17.67 17.95,17.6 18.51,17.26 18.15,16.72 
		18.77,16.94 18.97,16.32 19.18,16.94 19.79,16.72 19.44,17.26 19.99,17.6 19.34,17.67 19.43,18.32 	"/>
	<polygon id="XMLID_6642_" class="st1" points="16.38,12.07 15.93,12.53 16.01,11.89 15.36,11.82 15.92,11.48 15.56,10.94 
		16.17,11.16 16.38,10.54 16.59,11.16 17.2,10.94 16.84,11.48 17.4,11.82 16.75,11.89 16.83,12.53 	"/>
	<polygon id="XMLID_6641_" class="st1" points="18.97,8.11 18.52,8.58 18.6,7.93 17.95,7.87 18.51,7.53 18.15,6.98 18.77,7.21 
		18.97,6.59 19.18,7.21 19.79,6.98 19.44,7.53 19.99,7.87 19.34,7.93 19.43,8.58 	"/>
	<polygon id="XMLID_6640_" class="st1" points="22.21,11.09 21.76,11.56 21.84,10.91 21.19,10.85 21.75,10.51 21.39,9.96 
		22.01,10.19 22.21,9.57 22.42,10.19 23.03,9.96 22.68,10.51 23.23,10.85 22.58,10.91 22.67,11.56 	"/>
	<polygon id="XMLID_6639_" class="st1" points="20.43,13.37 20.06,13.62 20.18,13.19 19.83,12.91 20.28,12.9 20.43,12.48 
		20.59,12.9 21.03,12.91 20.68,13.19 20.8,13.62 	"/>
</g>
</svg>
