<?xml version="1.0" encoding="utf-8"?>
<!-- Generator: Adobe Illustrator 26.0.3, SVG Export Plug-In . SVG Version: 6.00 Build 0)  -->
<svg version="1.1" id="Layer_1" xmlns="http://www.w3.org/2000/svg" xmlns:xlink="http://www.w3.org/1999/xlink" x="0px" y="0px"
	 viewBox="0 0 25 25" style="enable-background:new 0 0 25 25;" xml:space="preserve">
<style type="text/css">
	.st0{fill:#DD2911;}
	.st1{fill:#FEDD19;}
</style>
<g id="XMLID_3773_">
	<g id="XMLID_3780_">
		<circle id="XMLID_3781_" class="st0" cx="12.5" cy="12.5" r="12"/>
	</g>
	<g id="XMLID_3774_">
		<polygon id="XMLID_3779_" class="st1" points="7.36,4.82 8.06,6.95 10.3,6.95 8.49,8.26 9.18,10.4 7.36,9.08 5.55,10.4 6.24,8.26 
			4.43,6.95 6.67,6.95 		"/>
		<polygon id="XMLID_3778_" class="st1" points="12.86,3.89 12.8,4.63 13.48,4.92 12.76,5.09 12.69,5.83 12.31,5.19 11.58,5.36 
			12.07,4.8 11.69,4.16 12.38,4.45 		"/>
		<polygon id="XMLID_3777_" class="st1" points="15.25,6.17 14.9,6.83 15.41,7.36 14.68,7.23 14.33,7.89 14.23,7.15 13.5,7.02 
			14.17,6.7 14.06,5.96 14.58,6.5 		"/>
		<polygon id="XMLID_3776_" class="st1" points="15.47,9.6 14.88,10.06 15.13,10.75 14.52,10.34 13.93,10.79 14.14,10.08 
			13.53,9.66 14.27,9.64 14.48,8.92 14.73,9.62 		"/>
		<polygon id="XMLID_3775_" class="st1" points="13.49,12.04 12.77,12.24 12.74,12.98 12.33,12.36 11.61,12.56 12.08,11.98 
			11.67,11.36 12.37,11.62 12.83,11.04 12.8,11.78 		"/>
	</g>
</g>
</svg>
