<?xml version="1.0" encoding="utf-8"?>
<!-- Generator: Adobe Illustrator 26.0.3, SVG Export Plug-In . SVG Version: 6.00 Build 0)  -->
<svg version="1.1" id="Layer_1" xmlns="http://www.w3.org/2000/svg" xmlns:xlink="http://www.w3.org/1999/xlink" x="0px" y="0px"
	 viewBox="0 0 25 25" style="enable-background:new 0 0 25 25;" xml:space="preserve">
<style type="text/css">
	.st0{fill:#FFFFFF;}
	.st1{fill:#04357F;}
</style>
<g id="XMLID_4800_">
	<path id="XMLID_4802_" class="st0" d="M24.5,12.5c0,1.13-0.16,2.22-0.45,3.26c-1.39,4.89-5.81,8.53-11.09,8.72v0.01H12.5
		c-2.21,0-4.29-0.6-6.07-1.66c-2.63-1.55-4.62-4.08-5.47-7.08C0.66,14.72,0.5,13.63,0.5,12.5s0.16-2.23,0.45-3.27
		c0.85-3,2.84-5.53,5.47-7.08C8.21,1.1,10.29,0.5,12.5,0.5h0.46v0.01c5.29,0.2,9.71,3.83,11.09,8.72
		C24.34,10.27,24.5,11.37,24.5,12.5z"/>
	<path id="XMLID_4801_" class="st1" d="M24.5,12.5c0,1.13-0.16,2.22-0.45,3.26H12.96v8.74H12.5c-2.21,0-4.29-0.6-6.07-1.66v-7.08
		H0.95C0.66,14.72,0.5,13.63,0.5,12.5s0.16-2.23,0.45-3.27h5.47V2.16C8.21,1.1,10.29,0.5,12.5,0.5h0.46v8.73h11.09
		C24.34,10.27,24.5,11.37,24.5,12.5z"/>
</g>
</svg>
