<?xml version="1.0" encoding="utf-8"?>
<!-- Generator: Adobe Illustrator 26.0.3, SVG Export Plug-In . SVG Version: 6.00 Build 0)  -->
<svg version="1.1" id="Layer_1" xmlns="http://www.w3.org/2000/svg" xmlns:xlink="http://www.w3.org/1999/xlink" x="0px" y="0px"
	 viewBox="0 0 25 25" style="enable-background:new 0 0 25 25;" xml:space="preserve">
<style type="text/css">
	.st0{fill:#062493;}
	.st1{fill:#EC2938;}
	.st2{fill:#FFFFFF;}
</style>
<g id="XMLID_5534_">
	<path id="XMLID_5537_" class="st0" d="M0.5,12.5c0,5.21,3.34,9.66,8,11.31V1.19C3.84,2.84,0.5,7.29,0.5,12.5z"/>
	<path id="XMLID_5536_" class="st1" d="M24.5,12.5c0-5.21-3.35-9.66-8-11.31v22.63C21.15,22.16,24.5,17.71,24.5,12.5z"/>
	<path id="XMLID_5535_" class="st2" d="M12.5,0.5c-1.4,0-2.75,0.24-4,0.69v22.63c1.25,0.44,2.6,0.69,4,0.69c1.4,0,2.75-0.24,4-0.69
		V1.19C15.25,0.74,13.9,0.5,12.5,0.5z"/>
</g>
</svg>
