<?xml version="1.0" encoding="utf-8"?>
<!-- Generator: Adobe Illustrator 26.0.3, SVG Export Plug-In . SVG Version: 6.00 Build 0)  -->
<svg version="1.1" id="Layer_1" xmlns="http://www.w3.org/2000/svg" xmlns:xlink="http://www.w3.org/1999/xlink" x="0px" y="0px"
	 viewBox="0 0 25 25" style="enable-background:new 0 0 25 25;" xml:space="preserve">
<style type="text/css">
	.st0{fill:#DE2910;}
	.st1{fill:#FFFFFF;}
</style>
<g id="XMLID_5017_">
	<g id="XMLID_5042_">
		<path id="XMLID_5043_" class="st0" d="M12.5,24.5c-6.62,0-12-5.38-12-12c0-6.62,5.38-12,12-12s12,5.38,12,12
			C24.5,19.12,19.12,24.5,12.5,24.5z"/>
	</g>
	<g id="XMLID_5018_">
		<g id="XMLID_5037_">
			<polygon id="XMLID_5041_" class="st1" points="12.19,12.59 12.19,12.59 12.19,12.59 			"/>
			<path id="XMLID_5038_" class="st1" d="M10.71,13.08c-0.33,0-0.66-0.06-0.98-0.19c-0.43-0.17-0.83-0.45-1.16-0.82l0.09-0.08
				c0.45,0.48,1.65,1.49,3.32,0.65c-1.6,0.29-1.89-1.09-1.98-1.59C9.9,10.53,9.05,9.45,7.91,9.69c-1.44,0.34-1.65-1.04-1.65-1.04
				c-1.5,3.97,3.19,6.88,5.81,4.07C11.61,12.96,11.16,13.08,10.71,13.08z M8.15,12.05l-0.08-0.43l-0.42-0.11l0.38-0.21L8,10.87
				l0.32,0.29L8.73,11l-0.18,0.4l0.27,0.33l-0.43-0.05L8.15,12.05z"/>
		</g>
		<g id="XMLID_5032_">
			<polygon id="XMLID_5036_" class="st1" points="12.5,12.66 12.5,12.66 12.5,12.66 			"/>
			<path id="XMLID_5033_" class="st1" d="M12.59,12.81c0.09,0.51,0.06,0.98-0.08,1.41c-0.1,0.31-0.26,0.6-0.48,0.87
				c-0.3,0.35-0.69,0.65-1.14,0.85l-0.05-0.11c0.6-0.28,1.93-1.11,1.64-2.96c-0.22,1.61-1.62,1.46-2.13,1.39
				c-0.52-0.07-1.81,0.41-1.93,1.57c-0.12,1.47-1.5,1.25-1.5,1.25C10.23,19.73,14.45,16.18,12.59,12.81z M10.31,16.28l-0.23,0.36
				l-0.08-0.43l-0.42-0.11l0.38-0.21l-0.03-0.43l0.32,0.3l0.4-0.16l-0.18,0.39l0.27,0.34L10.31,16.28z"/>
		</g>
		<g id="XMLID_5027_">
			<polygon id="XMLID_5031_" class="st1" points="12.66,12.39 12.66,12.39 12.66,12.39 			"/>
			<path id="XMLID_5028_" class="st1" d="M12.83,12.35c0.51,0.08,0.95,0.25,1.32,0.51c0.27,0.19,0.49,0.44,0.68,0.73
				c0.25,0.39,0.4,0.85,0.46,1.34l-0.12,0.01c-0.08-0.66-0.46-2.18-2.31-2.48c1.46,0.71,0.89,2,0.67,2.45
				c-0.23,0.47-0.17,1.85,0.89,2.32c1.37,0.57,0.72,1.81,0.72,1.81C18.68,16.73,16.61,11.62,12.83,12.35z M15.27,15.87l-0.23,0.37
				l-0.08-0.43l-0.42-0.11l0.38-0.21l-0.03-0.43l0.32,0.29l0.4-0.16l-0.18,0.4l0.27,0.33L15.27,15.87z"/>
		</g>
		<g id="XMLID_5022_">
			<polygon id="XMLID_5026_" class="st1" points="12.45,12.15 12.45,12.15 12.45,12.15 			"/>
			<path id="XMLID_5023_" class="st1" d="M12.46,11.97c0.23-0.46,0.53-0.83,0.89-1.09c0.27-0.19,0.57-0.33,0.9-0.42
				c0.44-0.11,0.94-0.12,1.42-0.02l-0.02,0.12c-0.65-0.13-2.21-0.24-3.07,1.43c1.12-1.17,2.17-0.23,2.54,0.12
				c0.38,0.36,1.7,0.74,2.48-0.13c0.97-1.12,1.95-0.13,1.95-0.13C18.44,7.76,12.94,8.16,12.46,11.97z M16.41,11.03l-0.23,0.36
				l-0.08-0.43l-0.42-0.11l0.38-0.21l-0.02-0.43l0.32,0.3l0.4-0.16l-0.18,0.39l0.28,0.34L16.41,11.03z"/>
		</g>
		<path id="XMLID_5019_" class="st1" d="M14.07,5.42c-4.24-0.2-5.56,5.16-2.08,6.78c-0.37-0.36-0.62-0.76-0.76-1.19
			c-0.1-0.32-0.14-0.64-0.12-0.99c0.03-0.46,0.18-0.93,0.42-1.36l0.11,0.06c-0.32,0.58-0.91,2.03,0.41,3.36
			c-0.77-1.43,0.46-2.14,0.9-2.38c0.46-0.25,1.22-1.39,0.64-2.4C12.83,6.04,14.07,5.42,14.07,5.42z M12.17,8.44l-0.23,0.37
			l-0.09-0.43l-0.42-0.11l0.38-0.21l-0.02-0.43l0.32,0.29l0.4-0.16l-0.18,0.4l0.28,0.33L12.17,8.44z"/>
	</g>
</g>
</svg>
