<?xml version="1.0" encoding="utf-8"?>
<!-- Generator: Adobe Illustrator 26.0.3, SVG Export Plug-In . SVG Version: 6.00 Build 0)  -->
<svg version="1.1" id="Layer_1" xmlns="http://www.w3.org/2000/svg" xmlns:xlink="http://www.w3.org/1999/xlink" x="0px" y="0px"
	 viewBox="0 0 25 25" style="enable-background:new 0 0 25 25;" xml:space="preserve">
<style type="text/css">
	.st0{fill:#FFFFFF;}
	.st1{fill:#213F9A;}
	.st2{fill:#2CB572;}
</style>
<g>
	<circle class="st0" cx="12.5" cy="12.5" r="12"/>
	<g>
		<rect x="10.23" y="17.96" class="st1" width="4.54" height="4.54"/>
		<rect x="10.23" y="2.5" class="st1" width="4.54" height="4.54"/>
		
			<rect x="2.5" y="10.23" transform="matrix(-1.836970e-16 1 -1 -1.836970e-16 17.2687 7.7313)" class="st1" width="4.54" height="4.54"/>
		
			<rect x="17.96" y="10.23" transform="matrix(-1.836970e-16 1 -1 -1.836970e-16 32.7313 -7.7313)" class="st1" width="4.54" height="4.54"/>
		
			<rect x="4.76" y="15.7" transform="matrix(0.7071 0.7071 -0.7071 0.7071 14.7645 0.2892)" class="st1" width="4.54" height="4.54"/>
		
			<rect x="15.7" y="4.76" transform="matrix(0.7071 0.7071 -0.7071 0.7071 10.2355 -10.6445)" class="st1" width="4.54" height="4.54"/>
		
			<rect x="4.76" y="4.76" transform="matrix(-0.7071 0.7071 -0.7071 -0.7071 16.9795 7.0331)" class="st1" width="4.54" height="4.54"/>
		
			<rect x="15.7" y="15.7" transform="matrix(-0.7071 0.7071 -0.7071 -0.7071 43.3759 17.9669)" class="st1" width="4.54" height="4.54"/>
		<circle class="st2" cx="12.5" cy="12.5" r="2.84"/>
	</g>
</g>
</svg>
