<?xml version="1.0" encoding="utf-8"?>
<!-- Generator: Adobe Illustrator 26.0.3, SVG Export Plug-In . SVG Version: 6.00 Build 0)  -->
<svg version="1.1" id="Layer_1" xmlns="http://www.w3.org/2000/svg" xmlns:xlink="http://www.w3.org/1999/xlink" x="0px" y="0px"
	 viewBox="0 0 25 25" style="enable-background:new 0 0 25 25;" xml:space="preserve">
<style type="text/css">
	.st0{fill:#FFFFFF;}
	.st1{fill:#0A39B6;}
</style>
<g id="XMLID_4147_">
	<path id="XMLID_4161_" class="st0" d="M24.5,12.5c0,2.18-0.58,4.23-1.6,5.99c-0.86,1.48-2.02,2.76-3.41,3.76
		c-1.97,1.41-4.38,2.25-6.99,2.25c-2.6,0-5.02-0.83-6.99-2.25c-1.38-1-2.55-2.28-3.41-3.76C1.08,16.73,0.5,14.68,0.5,12.5
		s0.58-4.23,1.61-5.99c0.86-1.48,2.02-2.77,3.41-3.76C7.48,1.33,9.9,0.5,12.5,0.5c2.61,0,5.02,0.83,6.99,2.25
		c1.39,0.99,2.55,2.28,3.41,3.76C23.92,8.27,24.5,10.32,24.5,12.5z"/>
	<g id="XMLID_4158_">
		<path id="XMLID_4160_" class="st1" d="M22.9,6.51H2.11c0.86-1.48,2.02-2.77,3.41-3.76h13.97C20.87,3.74,22.04,5.03,22.9,6.51z"/>
		<path id="XMLID_4159_" class="st1" d="M22.9,18.49c-0.86,1.48-2.02,2.76-3.41,3.76H5.51c-1.38-1-2.55-2.28-3.41-3.76H22.9z"/>
	</g>
	<path id="XMLID_4148_" class="st1" d="M16.99,9.9h-3L12.5,7.34L11.02,9.9h-3l1.5,2.6l-1.5,2.6h3l1.48,2.56l1.48-2.56h3l-1.5-2.6
		L16.99,9.9z M15.56,10.72l-0.55,0.95l-0.55-0.95H15.56z M12.5,8.99l0.53,0.91h-1.05L12.5,8.99z M9.45,10.72h1.1L10,11.67
		L9.45,10.72z M9.45,14.28L10,13.33l0.55,0.95H9.45z M12.5,16.01l-0.53-0.91h1.05L12.5,16.01z M13.5,14.28H11.5l-1.03-1.78
		l1.03-1.78h2.01l1.03,1.78L13.5,14.28z M15.56,14.28h-1.1l0.55-0.95L15.56,14.28z"/>
</g>
</svg>
