<?xml version="1.0" encoding="utf-8"?>
<!-- Generator: Adobe Illustrator 26.0.3, SVG Export Plug-In . SVG Version: 6.00 Build 0)  -->
<svg version="1.1" id="Layer_1" xmlns="http://www.w3.org/2000/svg" xmlns:xlink="http://www.w3.org/1999/xlink" x="0px" y="0px"
	 viewBox="0 0 25 25" style="enable-background:new 0 0 25 25;" xml:space="preserve">
<style type="text/css">
	.st0{fill:#FFFFFF;}
	.st1{fill:#C60C30;}
	.st2{fill:#003478;}
</style>
<g id="XMLID_6908_">
	<g id="XMLID_6943_">
		<circle id="XMLID_6944_" class="st0" cx="12.5" cy="12.5" r="12"/>
	</g>
	<g id="XMLID_6940_">
		<path id="XMLID_6942_" class="st1" d="M12.5,8.36c-1.66,0-3.09,0.97-3.75,2.38l0,0c-0.01,0.44,0.03,1.76,0.86,2.29
			c0.74,0.47,1.72,0.68,2.89-0.53s2.17-0.97,2.69-0.72c0.53,0.25,1.23,0.85,1.05,2.48h0c0.25-0.54,0.39-1.13,0.39-1.76
			C16.64,10.21,14.79,8.36,12.5,8.36z"/>
		<path id="XMLID_6941_" class="st2" d="M16.25,14.26c0.17-1.63-0.53-2.23-1.05-2.48c-0.53-0.25-1.52-0.48-2.69,0.72
			s-2.14,1-2.89,0.53c-0.83-0.53-0.87-1.85-0.86-2.29l0,0c-0.25,0.53-0.39,1.13-0.39,1.76c0,2.29,1.85,4.14,4.14,4.14
			C14.16,16.64,15.59,15.66,16.25,14.26L16.25,14.26L16.25,14.26z"/>
	</g>
	<g id="XMLID_6923_">
		<g id="XMLID_6931_">
			<g id="XMLID_6937_">
				
					<rect id="XMLID_6939_" x="6.7" y="14.08" transform="matrix(0.8321 -0.5547 0.5547 0.8321 -7.7724 6.618)" width="0.68" height="4.14"/>
				
					<rect id="XMLID_6938_" x="4.99" y="15.22" transform="matrix(0.8321 -0.5547 0.5547 0.8321 -8.6953 5.8581)" width="0.68" height="4.14"/>
			</g>
			<g id="XMLID_6932_">
				
					<rect id="XMLID_6936_" x="5.22" y="14.84" transform="matrix(0.8321 -0.5547 0.5547 0.8321 -7.821 5.7359)" width="0.68" height="1.89"/>
				<polygon id="XMLID_6935_" points="6,17.05 7.05,18.63 7.62,18.25 6.56,16.67 				"/>
			</g>
		</g>
		<g id="XMLID_6924_">
			
				<rect id="XMLID_6930_" x="19.35" y="16.01" transform="matrix(0.5501 -0.8351 0.8351 0.5501 -4.5233 24.3065)" width="1.89" height="0.68"/>
			
				<rect id="XMLID_6929_" x="18.11" y="17.88" transform="matrix(0.5519 -0.8339 0.8339 0.5519 -6.6563 24.0559)" width="1.89" height="0.68"/>
			
				<rect id="XMLID_6928_" x="18.49" y="15.44" transform="matrix(0.5529 -0.8333 0.8333 0.5529 -4.459 23.2543)" width="1.89" height="0.68"/>
			
				<rect id="XMLID_6927_" x="17.25" y="17.31" transform="matrix(0.5519 -0.8339 0.8339 0.5519 -6.566 23.0837)" width="1.89" height="0.68"/>
			
				<rect id="XMLID_6926_" x="16.39" y="16.74" transform="matrix(0.5547 -0.8321 0.8321 0.5547 -6.4925 22.0337)" width="1.89" height="0.68"/>
			
				<rect id="XMLID_6925_" x="17.63" y="14.87" transform="matrix(0.5529 -0.8333 0.8333 0.5529 -4.3677 22.2829)" width="1.89" height="0.68"/>
		</g>
	</g>
	<g id="XMLID_6909_">
		<g id="XMLID_6916_">
			<polygon id="XMLID_6922_" points="20.25,9.81 19.68,10.19 17.39,6.74 17.96,6.36 			"/>
			<g id="XMLID_6917_">
				
					<rect id="XMLID_6921_" x="19.96" y="7.69" transform="matrix(0.8351 -0.5501 0.5501 0.8351 -1.4054 12.5916)" width="0.68" height="1.89"/>
				<polygon id="XMLID_6920_" points="18.82,5.79 18.25,6.16 19.3,7.75 19.87,7.37 				"/>
				
					<rect id="XMLID_6919_" x="18.24" y="8.83" transform="matrix(0.8339 -0.5519 0.5519 0.8339 -2.3105 11.8792)" width="0.68" height="1.89"/>
				
					<rect id="XMLID_6918_" x="17" y="6.96" transform="matrix(0.8321 -0.5547 0.5547 0.8321 -1.4724 10.9466)" width="0.68" height="1.89"/>
			</g>
		</g>
		<g id="XMLID_6910_">
			
				<rect id="XMLID_6913_" x="6.7" y="6.78" transform="matrix(0.8302 0.5574 -0.5574 0.8302 6.1267 -2.4243)" width="0.68" height="4.14"/>
			<polygon id="XMLID_6912_" points="5.32,10.18 4.75,9.8 7.05,6.36 7.62,6.74 			"/>
			<polygon id="XMLID_6911_" points="4.46,9.61 3.9,9.23 6.2,5.79 6.76,6.17 			"/>
		</g>
	</g>
</g>
</svg>
