<?xml version="1.0" encoding="utf-8"?>
<!-- Generator: Adobe Illustrator 26.0.3, SVG Export Plug-In . SVG Version: 6.00 Build 0)  -->
<svg version="1.1" id="Layer_1" xmlns="http://www.w3.org/2000/svg" xmlns:xlink="http://www.w3.org/1999/xlink" x="0px" y="0px"
	 viewBox="0 0 25 25" style="enable-background:new 0 0 25 25;" xml:space="preserve">
<style type="text/css">
	.st0{fill:#CB0202;}
	.st1{fill:#FFFFFF;}
	.st2{fill:#040264;}
	.st3{fill:#FECB17;}
</style>
<g id="XMLID_2922_">
	<g id="XMLID_2928_">
		<path id="XMLID_2942_" class="st0" d="M22.34,5.64H2.66c0.43-0.62,0.92-1.19,1.45-1.71h16.77C21.42,4.45,21.91,5.03,22.34,5.64z"
			/>
		<path id="XMLID_2941_" class="st1" d="M24.5,12.5c0,0.58-0.04,1.15-0.12,1.71H0.62C0.54,13.66,0.5,13.08,0.5,12.5H24.5z"/>
		<path id="XMLID_2940_" class="st0" d="M24.38,14.22c-0.08,0.58-0.21,1.16-0.38,1.71H1c-0.17-0.55-0.29-1.13-0.38-1.71H24.38z"/>
		<path id="XMLID_2939_" class="st1" d="M24,15.93c-0.18,0.59-0.4,1.17-0.66,1.71H1.66C1.4,17.09,1.18,16.52,1,15.93H24z"/>
		<path id="XMLID_2938_" class="st1" d="M18.67,22.79c-1.8,1.09-3.92,1.71-6.17,1.71c-2.26,0-4.37-0.63-6.18-1.71H18.67z"/>
		<path id="XMLID_2937_" class="st0" d="M20.89,21.07c-0.67,0.65-1.41,1.23-2.21,1.71H6.33c-0.8-0.48-1.55-1.06-2.21-1.71H20.89z"/>
		<path id="XMLID_2936_" class="st1" d="M22.34,19.36c-0.43,0.62-0.92,1.19-1.45,1.71H4.11c-0.54-0.52-1.02-1.1-1.45-1.71H22.34z"/>
		<path id="XMLID_2935_" class="st0" d="M23.34,17.64c-0.29,0.6-0.62,1.17-1,1.71H2.66c-0.38-0.54-0.71-1.11-1-1.71H23.34z"/>
		<path id="XMLID_2934_" class="st0" d="M18.67,2.21H6.33c1.8-1.09,3.92-1.71,6.18-1.71c1.57,0,3.08,0.31,4.45,0.86
			C17.55,1.6,18.13,1.89,18.67,2.21z"/>
		<path id="XMLID_2933_" class="st1" d="M20.89,3.93H4.11C4.78,3.28,5.52,2.7,6.33,2.21h12.35C19.48,2.7,20.22,3.28,20.89,3.93z"/>
		<path id="XMLID_2932_" class="st1" d="M23.34,7.36H1.66c0.29-0.6,0.62-1.17,1-1.71h19.68C22.72,6.18,23.05,6.76,23.34,7.36z"/>
		<path id="XMLID_2931_" class="st0" d="M24,9.07H1c0.17-0.59,0.4-1.16,0.66-1.71h21.68C23.6,7.91,23.82,8.48,24,9.07z"/>
		<path id="XMLID_2930_" class="st1" d="M24.38,10.79H0.62C0.71,10.2,0.83,9.63,1,9.07h23C24.17,9.63,24.29,10.2,24.38,10.79z"/>
		<path id="XMLID_2929_" class="st0" d="M24.5,12.5h-24c0-0.58,0.04-1.15,0.12-1.71h23.75C24.46,11.35,24.5,11.92,24.5,12.5z"/>
	</g>
	<g id="XMLID_2923_">
		<path id="XMLID_2927_" class="st2" d="M16.95,1.36v12.86H0.62C0.54,13.66,0.5,13.08,0.5,12.5c0-0.58,0.04-1.15,0.12-1.71
			C0.71,10.2,0.83,9.63,1,9.07c0.17-0.59,0.4-1.16,0.66-1.71c0.29-0.6,0.62-1.17,1-1.71c0.43-0.62,0.92-1.19,1.45-1.71
			C4.78,3.28,5.52,2.7,6.33,2.21c1.8-1.09,3.92-1.71,6.18-1.71C14.07,0.5,15.58,0.81,16.95,1.36z"/>
		<g id="XMLID_2924_">
			<path id="XMLID_2926_" class="st3" d="M9.31,11.12c-2.08,0-3.76-1.68-3.76-3.76c0-2.08,1.68-3.76,3.76-3.76
				c0.47,0,0.92,0.09,1.33,0.24c-0.68-0.46-1.5-0.73-2.39-0.73c-2.35,0-4.25,1.9-4.25,4.25c0,2.34,1.9,4.25,4.25,4.25
				c0.88,0,1.71-0.27,2.39-0.73C10.23,11.03,9.78,11.12,9.31,11.12z"/>
			<polygon id="XMLID_2925_" class="st3" points="12.5,3.82 12.88,5.72 14.04,4.17 13.55,6.04 15.27,5.15 14.02,6.63 15.95,6.57 
				14.19,7.36 15.95,8.15 14.02,8.09 15.27,9.56 13.55,8.68 14.04,10.54 12.88,9 12.5,10.89 12.13,9 10.97,10.54 11.45,8.68 
				9.74,9.56 10.99,8.09 9.06,8.15 10.82,7.36 9.06,6.57 10.99,6.63 9.74,5.15 11.45,6.04 10.97,4.17 12.13,5.72 			"/>
		</g>
	</g>
</g>
</svg>
