<?xml version="1.0" encoding="utf-8"?>
<!-- Generator: Adobe Illustrator 26.0.3, SVG Export Plug-In . SVG Version: 6.00 Build 0)  -->
<svg version="1.1" id="Layer_1" xmlns="http://www.w3.org/2000/svg" xmlns:xlink="http://www.w3.org/1999/xlink" x="0px" y="0px"
	 viewBox="0 0 25 25" style="enable-background:new 0 0 25 25;" xml:space="preserve">
<style type="text/css">
	.st0{fill:#00247D;}
	.st1{fill:#FFFFFF;}
	.st2{fill:#CB142A;}
</style>
<g id="XMLID_00000036964219600432390210000002586087861591167677_">
	<path id="XMLID_00000145051407629811191140000007876547445659108784_" class="st0" d="M22.02,5.2c-2.2-2.85-5.65-4.7-9.52-4.7
		c-3.87,0-7.32,1.84-9.52,4.7c-0.21,0.27-0.41,0.56-0.6,0.85c-0.13,0.2-0.26,0.42-0.37,0.63C1.93,6.82,1.86,6.96,1.78,7.11
		C1.75,7.18,1.71,7.25,1.68,7.32c-0.05,0.1-0.1,0.2-0.14,0.31C1.46,7.8,1.39,7.96,1.33,8.12C1.14,8.59,0.99,9.08,0.86,9.58
		C0.82,9.74,0.78,9.9,0.75,10.07c-0.06,0.28-0.11,0.56-0.14,0.84c-0.04,0.28-0.06,0.57-0.08,0.85c-0.01,0.18-0.02,0.37-0.02,0.56
		c0,0.06,0,0.12,0,0.18c0,2.74,0.93,5.28,2.48,7.3c2.2,2.85,5.65,4.7,9.52,4.7c3.87,0,7.32-1.84,9.52-4.7
		c1.56-2.03,2.48-4.56,2.48-7.3S23.58,7.23,22.02,5.2z"/>
	<g id="XMLID_00000009564995725412547020000009364838363967889076_">
		<path id="XMLID_00000018918076150832372160000003806522305944443829_" class="st0" d="M2.3,10.07l-1.69,0.84
			c0.04-0.28,0.09-0.57,0.14-0.84H2.3z"/>
		<path id="XMLID_00000098910146608753957430000004193548171071863484_" class="st0" d="M5.14,5.2v2.23L2.39,6.05
			c0.19-0.29,0.39-0.57,0.6-0.85H5.14z"/>
		<path id="XMLID_00000121970872761779850310000006206486942667335350_" class="st0" d="M2.3,7.63H1.53
			c0.05-0.11,0.09-0.21,0.14-0.31L2.3,7.63z"/>
		<polygon id="XMLID_00000085208140011161049290000009908669653039399093_" class="st0" points="13.65,7.63 13.65,6.01 10.41,7.63 
					"/>
		<polygon id="XMLID_00000170273241988074561840000016265123274182505907_" class="st0" points="12.02,5.2 7.57,5.2 7.57,7.43 		"/>
		<polygon id="XMLID_00000165930548094784800450000017005213675109177740_" class="st0" points="13.65,11.69 13.65,10.06 
			10.41,10.06 		"/>
		<polygon id="XMLID_00000121993286273886276910000000004299406880314280_" class="st0" points="0.69,12.5 5.14,12.5 5.14,10.27 		
			"/>
		<polygon id="XMLID_00000101794475754062751810000012534587640752270222_" class="st0" points="7.57,12.5 12.02,12.5 7.57,10.27 		
			"/>
		<path id="XMLID_00000074425139014476274590000005973084617407577488_" class="st1" d="M13.65,6.01l-3.24,1.62h3.24v2.43h-3.24
			l3.24,1.62v0.27l-3.79-1.9H8.77l4.86,2.43h-1.62l-4.45-2.22v2.22H5.14v-2.22L0.69,12.5H0.5c0-0.06,0-0.12,0-0.18l4.51-2.25H3.92
			l-3.4,1.7c0.02-0.29,0.05-0.57,0.08-0.85l1.69-0.84H0.75C0.78,9.9,0.82,9.74,0.86,9.58c0.12-0.5,0.28-0.99,0.47-1.46
			c0.06-0.16,0.13-0.32,0.2-0.48H2.3L1.68,7.32c0.04-0.07,0.07-0.15,0.11-0.22l1.05,0.53h1.09L2.01,6.68
			c0.12-0.21,0.25-0.43,0.37-0.63l2.75,1.38V5.2h2.43v2.23l4.45-2.23h0.54L7.69,7.63h1.09l4.86-2.43h0.01V6.01z"/>
		<path id="XMLID_00000003066914047999259930000000828932218173049749_" class="st2" d="M3.93,7.63H2.84L1.78,7.11
			c0.07-0.15,0.15-0.29,0.23-0.43L3.93,7.63z"/>
		<polygon id="XMLID_00000013187418030759898710000013400698401533895076_" class="st2" points="8.77,10.06 13.64,12.5 13.65,12.5 
			13.65,11.96 9.86,10.06 		"/>
		<polygon id="XMLID_00000070094583864999007750000014794598967372109967_" class="st2" points="7.69,7.63 8.78,7.63 13.64,5.2 
			12.55,5.2 		"/>
		<path id="XMLID_00000170971837845487756070000008004109735525498009_" class="st2" d="M5.01,10.07L0.5,12.32
			c0-0.19,0.01-0.37,0.02-0.56l3.4-1.7H5.01z"/>
		<path id="XMLID_00000183238290900398305590000017341737820321634997_" class="st2" d="M13.65,8.12v1.46H7.08v2.92H5.62V9.58H0.86
			c0.12-0.5,0.28-0.99,0.47-1.46h4.3V5.2h1.46v2.92H13.65z"/>
	</g>
	<g id="XMLID_00000181775183005335223690000014991310166518478464_">
		<g id="XMLID_00000016774006742840626060000013902084268090135208_">
			<polygon id="XMLID_00000013190231194184653570000016589309893093504919_" class="st2" points="19.24,17.33 18.6,17.77 
				18.83,17.02 18.2,16.55 18.99,16.53 19.24,15.79 19.5,16.53 20.29,16.55 19.66,17.02 19.89,17.77 			"/>
			<path id="XMLID_00000053508177431423768360000008160052825842781574_" class="st1" d="M20.49,16.48l-0.93-0.02l-0.31-0.88
				l-0.31,0.88L18,16.48l0.74,0.57l-0.27,0.89l0.77-0.53l0.77,0.53l-0.27-0.89L20.49,16.48z M19.24,17.24l-0.52,0.36L18.9,17
				l-0.51-0.39l0.64-0.01l0.21-0.6l0.21,0.6l0.64,0.01L19.58,17l0.19,0.61L19.24,17.24z"/>
		</g>
		<g id="XMLID_00000017481236105985387960000009481636211405925023_">
			<polygon id="XMLID_00000167357699641913664440000012371545989844916407_" class="st2" points="19.24,8.5 18.66,8.91 18.87,8.23 
				18.3,7.8 19.01,7.79 19.24,7.12 19.48,7.79 20.18,7.8 19.62,8.23 19.83,8.91 			"/>
			<path id="XMLID_00000018957978484356747560000014800362676380692366_" class="st1" d="M20.38,7.74l-0.86-0.02l-0.28-0.81
				l-0.28,0.81L18.1,7.74l0.69,0.52l-0.25,0.82l0.71-0.49l0.7,0.49L19.7,8.26L20.38,7.74z M19.24,8.42l-0.46,0.32l0.16-0.53
				L18.5,7.87l0.56-0.01l0.19-0.53l0.18,0.53l0.56,0.01l-0.45,0.34l0.16,0.53L19.24,8.42z"/>
		</g>
		<g id="XMLID_00000143582218727798080660000006123726393667592843_">
			<polygon id="XMLID_00000088102362923278158340000005505047536456806291_" class="st2" points="15.85,11.92 15.26,12.33 
				15.46,11.64 14.89,11.21 15.61,11.2 15.85,10.52 16.08,11.2 16.8,11.21 16.22,11.64 16.43,12.33 			"/>
			<path id="XMLID_00000043439609234187202260000007368272372103510432_" class="st1" d="M17,11.14l-0.86-0.02l-0.29-0.82
				l-0.29,0.82l-0.87,0.02l0.69,0.53l-0.25,0.83l0.71-0.5l0.71,0.5l-0.25-0.83L17,11.14z M15.85,11.84l-0.47,0.33l0.16-0.54
				l-0.45-0.34l0.57-0.01l0.19-0.54l0.19,0.54l0.57,0.01l-0.45,0.34l0.16,0.54L15.85,11.84z"/>
		</g>
		<g id="XMLID_00000049930705721753591680000007173538691515737493_">
			<polygon id="XMLID_00000132801874916429287190000018211709237206441124_" class="st2" points="22.13,11 21.61,11.36 21.79,10.76 
				21.29,10.38 21.92,10.37 22.13,9.78 22.33,10.37 22.96,10.38 22.46,10.76 22.64,11.36 			"/>
			<path id="XMLID_00000106121467877504699070000000140003812551715980_" class="st1" d="M23.15,10.31l-0.78-0.01l-0.25-0.73
				l-0.26,0.73l-0.78,0.01l0.62,0.47l-0.23,0.74l0.64-0.44l0.64,0.44l-0.22-0.74L23.15,10.31z M22.13,10.91l-0.39,0.27l0.14-0.46
				l-0.38-0.29l0.48-0.01l0.16-0.45l0.16,0.45l0.48,0.01l-0.38,0.29l0.14,0.46L22.13,10.91z"/>
		</g>
	</g>
</g>
</svg>
