<?xml version="1.0" encoding="utf-8"?>
<!-- Generator: Adobe Illustrator 26.2.1, SVG Export Plug-In . SVG Version: 6.00 Build 0)  -->
<svg version="1.1" id="Layer_1" xmlns="http://www.w3.org/2000/svg" xmlns:xlink="http://www.w3.org/1999/xlink" x="0px" y="0px"
	 viewBox="0 0 25 25" style="enable-background:new 0 0 25 25;" xml:space="preserve">
<style type="text/css">
	.st0{fill:#0738A6;}
	.st1{fill:#CD1225;}
	.st2{fill:#FFFFFF;}
	.st3{fill:#FBD023;}
</style>
<g id="XMLID_5157_">
	<g id="XMLID_5167_">
		<path id="XMLID_5169_" class="st0" d="M24.5,12.5h-24c0-2.9,1.1-5.6,2.8-7.7c2.2-2.6,5.5-4.3,9.2-4.3C19.1,0.5,24.5,5.9,24.5,12.5
			z"/>
		<path id="XMLID_5168_" class="st1" d="M24.5,12.5c0,6.6-5.4,12-12,12c-3.7,0-7-1.7-9.2-4.3c-1.8-2.1-2.8-4.8-2.8-7.7H24.5z"/>
	</g>
	<g id="XMLID_5158_">
		<path id="XMLID_5166_" class="st2" d="M16.7,12.5L3.3,20.2c-1.8-2.1-2.8-4.8-2.8-7.7s1.1-5.6,2.8-7.7L16.7,12.5z"/>
		<g id="XMLID_5159_">
			<path id="XMLID_5165_" class="st3" d="M10.9,12.7l0.2-0.2l-0.2-0.2l-1.6,0.1c0,0,0-0.1,0-0.1l1.5-0.2l-0.2-0.2l-1.3,0.3
				c0-0.2-0.1-0.4-0.2-0.6l1.1-0.7l0-0.3L9,11.5c0,0,0-0.1-0.1-0.1l1.2-1.1l0-0.3l-0.3,0l-1.1,1.2c0,0-0.1,0-0.1-0.1L9.6,10l-0.3,0
				l-0.7,1.1C8.4,11,8.2,10.9,8,10.9l0.3-1.3L8.1,9.4l-0.2,1.5c0,0-0.1,0-0.1,0l0.1-1.6L7.7,9L7.5,9.2l0.1,1.6c0,0-0.1,0-0.1,0
				L7.3,9.4L7.1,9.6l0.3,1.3c-0.2,0-0.4,0.1-0.6,0.2L6,10l-0.3,0l0.9,1.2c0,0-0.1,0-0.1,0.1L5.5,10l-0.3,0l0,0.3l1.2,1.1
				c0,0,0,0.1-0.1,0.1l-1.2-0.9l0,0.3l1.1,0.7c-0.1,0.2-0.2,0.4-0.2,0.6l-1.3-0.3l-0.2,0.2l1.5,0.2c0,0,0,0.1,0,0.1l-1.6-0.1
				l-0.2,0.2l0.2,0.2L6,12.6c0,0,0,0.1,0,0.1l-1.5,0.2l0.2,0.2l1.3-0.3c0,0.2,0.1,0.4,0.2,0.6l-1.1,0.7l0,0.3l1.2-0.9
				c0,0,0,0.1,0.1,0.1l-1.2,1.1l0,0.3l0.3,0l1.1-1.2c0,0,0.1,0,0.1,0.1L5.8,15L6,15l0.7-1.1c0.2,0.1,0.4,0.2,0.6,0.2l-0.3,1.3
				l0.2,0.2l0.2-1.5c0,0,0.1,0,0.1,0l-0.1,1.6L7.7,16l0.2-0.2l-0.1-1.6c0,0,0.1,0,0.1,0l0.2,1.5l0.2-0.2L8,14.1
				c0.2,0,0.4-0.1,0.6-0.2L9.3,15l0.3,0l-0.9-1.2c0,0,0.1,0,0.1-0.1L9.8,15l0.3,0l0-0.3l-1.2-1.1c0,0,0-0.1,0.1-0.1l1.2,0.9l0-0.3
				L9,13.4c0.1-0.2,0.2-0.4,0.2-0.6l1.3,0.3l0.2-0.2l-1.5-0.2c0,0,0-0.1,0-0.1L10.9,12.7z"/>
			<g id="XMLID_5160_">
				<polygon id="XMLID_5164_" class="st3" points="14.5,11.6 14.5,12.3 15.1,12.5 14.5,12.7 14.5,13.4 14.1,12.8 13.5,13 13.8,12.5 
					13.5,12 14.1,12.2 				"/>
				<g id="XMLID_5161_">
					<polygon id="XMLID_5163_" class="st3" points="4.7,18.1 4.2,18.5 4.5,19.1 3.9,18.8 3.4,19.2 3.5,18.6 3,18.3 3.6,18.2 
						3.8,17.6 4,18.2 					"/>
					<polygon id="XMLID_5162_" class="st3" points="3.4,5.8 3.9,6.2 4.5,5.9 4.2,6.5 4.7,6.9 4,6.8 3.8,7.4 3.6,6.8 3,6.7 3.5,6.4 
											"/>
				</g>
			</g>
		</g>
	</g>
</g>
</svg>
