<?xml version="1.0" encoding="utf-8"?>
<!-- Generator: Adobe Illustrator 26.0.3, SVG Export Plug-In . SVG Version: 6.00 Build 0)  -->
<svg version="1.1" id="Layer_1" xmlns="http://www.w3.org/2000/svg" xmlns:xlink="http://www.w3.org/1999/xlink" x="0px" y="0px"
	 viewBox="0 0 25 25" style="enable-background:new 0 0 25 25;" xml:space="preserve">
<style type="text/css">
	.st0{fill:#EC2938;}
	.st1{fill:#FFFFFF;}
</style>
<g id="XMLID_4343_">
	<g id="XMLID_4351_">
		<path id="XMLID_4353_" class="st0" d="M24.5,12.5h-24c0-6.62,5.38-12,12-12C19.12,0.5,24.5,5.88,24.5,12.5z"/>
		<path id="XMLID_4352_" class="st1" d="M24.5,12.5c0,6.62-5.38,12-12,12c-6.61,0-12-5.38-12-12H24.5z"/>
	</g>
	<g id="XMLID_4344_">
		<path id="XMLID_4350_" class="st1" d="M7.52,6.5c0-2.29,1.81-4.15,4.09-4.27c-0.47-0.16-0.97-0.25-1.49-0.25
			c-2.5,0-4.52,2.02-4.52,4.52s2.02,4.52,4.52,4.52c0.52,0,1.03-0.09,1.49-0.25C9.33,10.65,7.52,8.78,7.52,6.5z"/>
		<polygon id="XMLID_4349_" class="st1" points="10.06,4.64 10.3,5.39 11.08,5.39 10.45,5.85 10.69,6.6 10.06,6.14 9.43,6.6 
			9.67,5.85 9.03,5.39 9.82,5.39 		"/>
		<polygon id="XMLID_4348_" class="st1" points="14.87,4.64 15.11,5.39 15.9,5.39 15.26,5.85 15.5,6.6 14.87,6.14 14.24,6.6 
			14.48,5.85 13.85,5.39 14.63,5.39 		"/>
		<polygon id="XMLID_4347_" class="st1" points="12.46,2.84 12.71,3.59 13.49,3.59 12.86,4.05 13.1,4.79 12.46,4.33 11.83,4.79 
			12.07,4.05 11.44,3.59 12.22,3.59 		"/>
		<polygon id="XMLID_4346_" class="st1" points="13.97,7.49 14.21,8.23 15,8.23 14.36,8.69 14.6,9.44 13.97,8.98 13.34,9.44 
			13.58,8.69 12.94,8.23 13.73,8.23 		"/>
		<polygon id="XMLID_4345_" class="st1" points="10.96,7.49 11.2,8.23 11.99,8.23 11.35,8.69 11.59,9.44 10.96,8.98 10.33,9.44 
			10.57,8.69 9.93,8.23 10.72,8.23 		"/>
	</g>
</g>
</svg>
