<?xml version="1.0" encoding="utf-8"?>
<!-- Generator: Adobe Illustrator 26.0.3, SVG Export Plug-In . SVG Version: 6.00 Build 0)  -->
<svg version="1.1" id="Layer_1" xmlns="http://www.w3.org/2000/svg" xmlns:xlink="http://www.w3.org/1999/xlink" x="0px" y="0px"
	 viewBox="0 0 25 25" style="enable-background:new 0 0 25 25;" xml:space="preserve">
<style type="text/css">
	.st0{fill:#FD0302;}
	.st1{fill:#060593;}
	.st2{fill:#FFFFFF;}
</style>
<g id="XMLID_5127_">
	<path id="XMLID_5145_" class="st0" d="M24.5,12.5c0,6.62-5.38,12-12,12c-6.62,0-12-5.38-12-12c0-6.62,5.38-12,12-12h1.39v0.08
		C19.86,1.27,24.5,6.35,24.5,12.5z"/>
	<g id="XMLID_5128_">
		<path id="XMLID_5144_" class="st1" d="M13.89,0.5v12H0.5c0-6.62,5.38-12,12-12H13.89z"/>
		<g id="XMLID_5129_">
			<g id="XMLID_5131_">
				<path id="XMLID_5143_" class="st2" d="M8.58,4.75C8.42,4.72,8.25,4.7,8.08,4.7c-0.17,0-0.34,0.02-0.5,0.05l0.5-1.82L8.58,4.75z"
					/>
				<path id="XMLID_5142_" class="st2" d="M7.37,4.81c-0.33,0.1-0.62,0.28-0.87,0.5L6.03,3.48L7.37,4.81z"/>
				<path id="XMLID_5141_" class="st2" d="M6.35,5.46C6.13,5.7,5.95,6,5.85,6.33L4.53,4.98L6.35,5.46z"/>
				<path id="XMLID_5140_" class="st2" d="M5.74,7.03c0,0.17,0.02,0.34,0.05,0.5l-1.81-0.5l1.81-0.5C5.76,6.69,5.74,6.86,5.74,7.03z
					"/>
				<path id="XMLID_5139_" class="st2" d="M6.35,8.6L4.53,9.08l1.32-1.34C5.95,8.06,6.13,8.36,6.35,8.6z"/>
				<path id="XMLID_5138_" class="st2" d="M7.37,9.26l-1.34,1.32L6.5,8.75C6.75,8.98,7.05,9.15,7.37,9.26z"/>
				<path id="XMLID_5137_" class="st2" d="M8.58,9.31l-0.5,1.81l-0.5-1.81c0.16,0.04,0.33,0.05,0.5,0.05
					C8.25,9.36,8.42,9.34,8.58,9.31z"/>
				<path id="XMLID_5136_" class="st2" d="M10.12,10.58L8.78,9.26c0.33-0.11,0.62-0.28,0.87-0.5L10.12,10.58z"/>
				<path id="XMLID_5135_" class="st2" d="M11.62,9.08L9.8,8.6c0.23-0.25,0.4-0.54,0.5-0.87L11.62,9.08z"/>
				<path id="XMLID_5134_" class="st2" d="M10.35,7.53c0.04-0.16,0.05-0.33,0.05-0.5s-0.02-0.34-0.05-0.5l1.82,0.5L10.35,7.53z"/>
				<path id="XMLID_5133_" class="st2" d="M11.62,4.98L10.3,6.33C10.2,6,10.02,5.7,9.8,5.45L11.62,4.98z"/>
				<path id="XMLID_5132_" class="st2" d="M10.12,3.48L9.65,5.31c-0.25-0.23-0.54-0.4-0.87-0.5L10.12,3.48z"/>
			</g>
			<circle id="XMLID_5130_" class="st2" cx="8.08" cy="7.03" r="2.07"/>
		</g>
	</g>
</g>
</svg>
