<?xml version="1.0" encoding="utf-8"?>
<!-- Generator: Adobe Illustrator 26.0.3, SVG Export Plug-In . SVG Version: 6.00 Build 0)  -->
<svg version="1.1" id="Layer_1" xmlns="http://www.w3.org/2000/svg" xmlns:xlink="http://www.w3.org/1999/xlink" x="0px" y="0px"
	 viewBox="0 0 25 25" style="enable-background:new 0 0 25 25;" xml:space="preserve">
<style type="text/css">
	.st0{fill:#EC1C24;}
	.st1{fill:#FFFFFF;}
	.st2{fill:#241D4E;}
</style>
<g id="XMLID_2968_">
	<path id="XMLID_2973_" class="st0" d="M21.44,4.5H3.56c2.2-2.46,5.39-4,8.94-4S19.24,2.05,21.44,4.5z"/>
	<path id="XMLID_2972_" class="st1" d="M23.82,8.51H1.18C1.71,7.02,2.52,5.66,3.56,4.5h17.88C22.48,5.66,23.29,7.02,23.82,8.51z"/>
	<path id="XMLID_2971_" class="st1" d="M23.82,16.49c-0.53,1.49-1.34,2.85-2.38,4.01H3.56c-1.04-1.16-1.85-2.51-2.38-4.01H23.82z"/>
	<path id="XMLID_2970_" class="st2" d="M24.5,12.5c0,1.4-0.24,2.74-0.68,3.99H1.18C0.74,15.24,0.5,13.9,0.5,12.5
		c0-1.4,0.24-2.74,0.68-3.99h22.63C24.26,9.76,24.5,11.1,24.5,12.5z"/>
	<path id="XMLID_2969_" class="st0" d="M21.44,20.5c-2.2,2.46-5.39,4-8.94,4s-6.74-1.55-8.94-4H21.44z"/>
</g>
</svg>
