<?xml version="1.0" encoding="utf-8"?>
<!-- Generator: Adobe Illustrator 26.0.3, SVG Export Plug-In . SVG Version: 6.00 Build 0)  -->
<svg version="1.1" id="Layer_1" xmlns="http://www.w3.org/2000/svg" xmlns:xlink="http://www.w3.org/1999/xlink" x="0px" y="0px"
	 viewBox="0 0 25 25" style="enable-background:new 0 0 25 25;" xml:space="preserve">
<style type="text/css">
	.st0{fill:#FFFFFF;}
	.st1{fill:#B12233;}
	.st2{fill:#3C3B6D;}
</style>
<g id="XMLID_6321_">
	<g id="XMLID_6369_">
		<path id="XMLID_6382_" class="st0" d="M23.58,17.12c-0.27,0.65-0.6,1.26-0.97,1.84H2.39c-0.37-0.58-0.7-1.2-0.97-1.84H23.58z"/>
		<path id="XMLID_6381_" class="st1" d="M24.18,15.27c-0.15,0.64-0.35,1.25-0.6,1.85H1.42c-0.25-0.59-0.45-1.21-0.6-1.85H24.18z"/>
		<path id="XMLID_6380_" class="st0" d="M24.46,13.42c-0.05,0.63-0.15,1.25-0.29,1.85H0.82c-0.14-0.6-0.24-1.22-0.29-1.85H24.46z"/>
		<path id="XMLID_6379_" class="st1" d="M22.61,18.96c-0.42,0.66-0.91,1.28-1.46,1.85H3.85c-0.54-0.57-1.03-1.18-1.46-1.85H22.61z"
			/>
		<path id="XMLID_6378_" class="st1" d="M18.89,22.65c-1.85,1.17-4.04,1.85-6.39,1.85s-4.54-0.68-6.39-1.85H18.89z"/>
		<path id="XMLID_6377_" class="st0" d="M21.15,20.81c-0.67,0.7-1.43,1.32-2.26,1.85H6.11c-0.83-0.52-1.59-1.14-2.26-1.85H21.15z"/>
		<path id="XMLID_6376_" class="st0" d="M21.15,4.19H3.85c0.68-0.7,1.43-1.32,2.26-1.85h12.77C19.71,2.87,20.47,3.49,21.15,4.19z"/>
		<path id="XMLID_6375_" class="st1" d="M18.89,2.35H6.11C6.49,2.1,6.89,1.89,7.3,1.69c0.04-0.02,0.08-0.03,0.12-0.05
			c0.14-0.06,0.28-0.13,0.42-0.19C7.9,1.42,7.96,1.39,8.02,1.37C9.41,0.81,10.92,0.5,12.5,0.5c0,0,0,0,0,0
			C14.85,0.5,17.04,1.18,18.89,2.35z"/>
		<path id="XMLID_6374_" class="st1" d="M22.61,6.04H2.39c0.1-0.16,0.22-0.33,0.33-0.49c0.01-0.01,0.02-0.03,0.03-0.04
			c0.33-0.46,0.7-0.9,1.1-1.32h17.3C21.69,4.76,22.18,5.38,22.61,6.04z"/>
		<path id="XMLID_6373_" class="st1" d="M24.18,9.73H0.82c0.15-0.64,0.35-1.25,0.6-1.85h22.15C23.82,8.48,24.03,9.1,24.18,9.73z"/>
		<path id="XMLID_6372_" class="st0" d="M23.58,7.88H1.42c0.05-0.12,0.1-0.24,0.16-0.36C1.71,7.25,1.85,6.97,2,6.7
			c0.12-0.22,0.26-0.44,0.39-0.66h20.21C22.98,6.62,23.31,7.24,23.58,7.88z"/>
		<path id="XMLID_6371_" class="st0" d="M24.46,11.58H0.54c0.01-0.08,0.01-0.15,0.02-0.23c0.02-0.23,0.05-0.45,0.08-0.67
			c0.05-0.32,0.11-0.64,0.19-0.94h23.35C24.32,10.33,24.42,10.95,24.46,11.58z"/>
		<path id="XMLID_6370_" class="st1" d="M24.5,12.5c0,0.31-0.01,0.62-0.03,0.92H0.54c-0.02-0.3-0.03-0.61-0.03-0.92
			c0-0.31,0.01-0.62,0.03-0.92h23.93C24.49,11.88,24.5,12.19,24.5,12.5z"/>
	</g>
	<g id="XMLID_6322_">
		<path id="XMLID_6368_" class="st2" d="M12.5,0.5v12.92H0.54c-0.02-0.3-0.03-0.61-0.03-0.92c0-0.31,0.01-0.62,0.03-0.92
			c0.01-0.08,0.01-0.15,0.02-0.23c0.02-0.23,0.05-0.45,0.08-0.67c0.05-0.32,0.11-0.64,0.19-0.94c0.15-0.64,0.35-1.25,0.6-1.85
			c0.05-0.12,0.1-0.24,0.16-0.36C1.71,7.25,1.85,6.97,2,6.7c0.12-0.22,0.26-0.44,0.39-0.66c0.1-0.16,0.22-0.33,0.33-0.49
			c0.01-0.01,0.02-0.03,0.03-0.04c0.33-0.46,0.7-0.9,1.1-1.32c0.68-0.7,1.43-1.32,2.26-1.85C6.49,2.1,6.89,1.89,7.3,1.69
			c0.04-0.02,0.08-0.03,0.12-0.05c0.14-0.06,0.28-0.13,0.42-0.19C7.9,1.42,7.96,1.39,8.02,1.37C9.41,0.81,10.92,0.5,12.5,0.5z"/>
		<g id="XMLID_6323_">
			<g id="XMLID_6365_">
				<polygon id="XMLID_6367_" class="st0" points="10.98,1.12 11.15,1.63 11.7,1.63 11.25,1.96 11.42,2.48 10.98,2.15 10.54,2.48 
					10.71,1.96 10.27,1.63 10.81,1.63 				"/>
				<path id="XMLID_6366_" class="st0" d="M8.34,2.35l0.04,0.13L8.21,2.35L7.94,2.15L7.68,2.35L7.5,2.48l0.04-0.13l0.13-0.39
					L7.3,1.69c0.04-0.02,0.08-0.03,0.12-0.05h0.36l0.06-0.19C7.9,1.42,7.96,1.39,8.02,1.37l0.09,0.26h0.54L8.22,1.96L8.34,2.35z"/>
			</g>
			<g id="XMLID_6361_">
				<polygon id="XMLID_6364_" class="st0" points="10.98,3.7 11.15,4.22 11.7,4.22 11.25,4.54 11.42,5.06 10.98,4.74 10.54,5.06 
					10.71,4.54 10.27,4.22 10.81,4.22 				"/>
				<polygon id="XMLID_6363_" class="st0" points="7.94,3.7 8.11,4.22 8.66,4.22 8.21,4.54 8.38,5.06 7.94,4.74 7.5,5.06 7.67,4.54 
					7.23,4.22 7.77,4.22 				"/>
				<polygon id="XMLID_6362_" class="st0" points="4.91,3.7 5.07,4.22 5.62,4.22 5.18,4.54 5.35,5.06 4.91,4.74 4.46,5.06 
					4.63,4.54 4.19,4.22 4.74,4.22 				"/>
			</g>
			<g id="XMLID_6354_">
				<polygon id="XMLID_6358_" class="st0" points="10.98,6.28 11.15,6.8 11.7,6.8 11.25,7.12 11.42,7.64 10.98,7.32 10.54,7.64 
					10.71,7.12 10.27,6.8 10.81,6.8 				"/>
				<polygon id="XMLID_6357_" class="st0" points="7.94,6.28 8.11,6.8 8.66,6.8 8.21,7.12 8.38,7.64 7.94,7.32 7.5,7.64 7.67,7.12 
					7.23,6.8 7.77,6.8 				"/>
				<polygon id="XMLID_6356_" class="st0" points="4.91,6.28 5.07,6.8 5.62,6.8 5.18,7.12 5.35,7.64 4.91,7.32 4.46,7.64 4.63,7.12 
					4.19,6.8 4.74,6.8 				"/>
				<path id="XMLID_6355_" class="st0" d="M2.14,7.12l0.17,0.52L1.87,7.32L1.58,7.53C1.71,7.25,1.85,6.97,2,6.7l0.03,0.1h0.54
					L2.14,7.12z"/>
			</g>
			<g id="XMLID_6347_">
				<polygon id="XMLID_6353_" class="st0" points="10.98,8.86 11.15,9.38 11.7,9.38 11.25,9.71 11.42,10.22 10.98,9.9 10.54,10.22 
					10.71,9.71 10.27,9.38 10.81,9.38 				"/>
				<polygon id="XMLID_6352_" class="st0" points="7.94,8.86 8.11,9.38 8.66,9.38 8.21,9.71 8.38,10.22 7.94,9.9 7.5,10.22 
					7.67,9.71 7.23,9.38 7.77,9.38 				"/>
				<polygon id="XMLID_6351_" class="st0" points="4.91,8.86 5.07,9.38 5.62,9.38 5.18,9.71 5.35,10.22 4.91,9.9 4.46,10.22 
					4.63,9.71 4.19,9.38 4.74,9.38 				"/>
				<polygon id="XMLID_6348_" class="st0" points="1.87,8.86 2.04,9.38 2.58,9.38 2.14,9.71 2.31,10.22 1.87,9.9 1.42,10.22 
					1.59,9.71 1.15,9.38 1.7,9.38 				"/>
			</g>
			<g id="XMLID_6342_">
				<polygon id="XMLID_6346_" class="st0" points="10.98,11.45 11.15,11.97 11.7,11.97 11.25,12.29 11.42,12.81 10.98,12.49 
					10.54,12.81 10.71,12.29 10.27,11.97 10.81,11.97 				"/>
				<polygon id="XMLID_6345_" class="st0" points="7.94,11.45 8.11,11.97 8.66,11.97 8.21,12.29 8.38,12.81 7.94,12.49 7.5,12.81 
					7.67,12.29 7.23,11.97 7.77,11.97 				"/>
				<polygon id="XMLID_6344_" class="st0" points="4.91,11.45 5.07,11.97 5.62,11.97 5.18,12.29 5.35,12.81 4.91,12.49 4.46,12.81 
					4.63,12.29 4.19,11.97 4.74,11.97 				"/>
				<polygon id="XMLID_6343_" class="st0" points="1.87,11.45 2.04,11.97 2.58,11.97 2.14,12.29 2.31,12.81 1.87,12.49 1.42,12.81 
					1.59,12.29 1.15,11.97 1.7,11.97 				"/>
			</g>
			<g id="XMLID_6337_">
				<polygon id="XMLID_6341_" class="st0" points="9.46,10.16 9.63,10.68 10.18,10.68 9.74,11 9.9,11.52 9.46,11.2 9.02,11.52 
					9.19,11 8.75,10.68 9.29,10.68 				"/>
				<polygon id="XMLID_6340_" class="st0" points="6.42,10.16 6.59,10.68 7.14,10.68 6.7,11 6.87,11.52 6.42,11.2 5.98,11.52 
					6.15,11 5.71,10.68 6.25,10.68 				"/>
				<polygon id="XMLID_6339_" class="st0" points="3.38,10.16 3.55,10.68 4.1,10.68 3.66,11 3.83,11.52 3.38,11.2 2.94,11.52 
					3.11,11 2.67,10.68 3.22,10.68 				"/>
				<path id="XMLID_6338_" class="st0" d="M0.62,11l0.17,0.52l-0.23-0.17c0.02-0.23,0.05-0.45,0.08-0.67h0.42L0.62,11z"/>
			</g>
			<g id="XMLID_6333_">
				<polygon id="XMLID_6336_" class="st0" points="9.46,7.57 9.63,8.09 10.18,8.09 9.74,8.41 9.9,8.93 9.46,8.61 9.02,8.93 
					9.19,8.41 8.75,8.09 9.29,8.09 				"/>
				<polygon id="XMLID_6335_" class="st0" points="6.42,7.57 6.59,8.09 7.14,8.09 6.7,8.41 6.87,8.93 6.42,8.61 5.98,8.93 
					6.15,8.41 5.71,8.09 6.25,8.09 				"/>
				<polygon id="XMLID_6334_" class="st0" points="3.38,7.57 3.55,8.09 4.1,8.09 3.66,8.41 3.83,8.93 3.38,8.61 2.94,8.93 
					3.11,8.41 2.67,8.09 3.22,8.09 				"/>
			</g>
			<g id="XMLID_6327_">
				<polygon id="XMLID_6332_" class="st0" points="9.46,4.99 9.63,5.51 10.18,5.51 9.74,5.83 9.9,6.35 9.46,6.03 9.02,6.35 
					9.19,5.83 8.75,5.51 9.29,5.51 				"/>
				<polygon id="XMLID_6329_" class="st0" points="6.42,4.99 6.59,5.51 7.14,5.51 6.7,5.83 6.87,6.35 6.42,6.03 5.98,6.35 
					6.15,5.83 5.71,5.51 6.25,5.51 				"/>
				<path id="XMLID_6328_" class="st0" d="M3.73,6.04l0.1,0.31L3.4,6.04L3.38,6.03L3.37,6.04L2.94,6.35l0.1-0.31l0.07-0.21
					L2.73,5.55c0.01-0.01,0.02-0.03,0.03-0.04h0.46l0.17-0.52l0.17,0.52H4.1L3.66,5.83L3.73,6.04z"/>
			</g>
			<g id="XMLID_6324_">
				<polygon id="XMLID_6326_" class="st0" points="9.46,2.41 9.63,2.93 10.18,2.93 9.74,3.25 9.9,3.77 9.46,3.45 9.02,3.77 
					9.19,3.25 8.75,2.93 9.29,2.93 				"/>
				<polygon id="XMLID_6325_" class="st0" points="6.42,2.41 6.59,2.93 7.14,2.93 6.7,3.25 6.87,3.77 6.42,3.45 5.98,3.77 
					6.15,3.25 5.71,2.93 6.25,2.93 				"/>
			</g>
		</g>
	</g>
</g>
</svg>
