<?xml version="1.0" encoding="utf-8"?>
<!-- Generator: Adobe Illustrator 26.4.1, SVG Export Plug-In . SVG Version: 6.00 Build 0)  -->
<svg version="1.1" id="Layer_1" xmlns="http://www.w3.org/2000/svg" xmlns:xlink="http://www.w3.org/1999/xlink" x="0px" y="0px"
	 viewBox="0 0 1920 1080" style="enable-background:new 0 0 1920 1080;" xml:space="preserve">
<style type="text/css">
	.st0{fill:#F11B26;}
	.st1{font-family:'NexaHeavy';}
	.st2{font-size:63.7884px;}
	.st3{font-family:'NexaRegular';}
	.st4{fill:#6A696C;}
	.st5{font-family:'Nexa-Light';}
	.st6{font-size:129.0982px;}
	.st7{font-size:53.9636px;}
	.st8{font-size:196.3053px;}
	.st9{font-size:88.7107px;}
</style>
<image style="display:none;overflow:visible;enable-background:new    ;" width="1200" height="651" xlink:href="68CE1F407D6E7FA0.png"  transform="matrix(0.9985 0 0 0.9985 360.9216 -14.1394)">
</image>
<text transform="matrix(1 0 0 1 702.3626 891.5139)" class="st0 st1 st2">23 August 2022</text>
<text transform="matrix(1 0 0 1 504.1424 974.9915)" class="st0 st3 st2">Raffles Town Club, Singapore</text>
<g>
	<g>
		<text transform="matrix(1 0 0 1 817.4479 195.8591)" class="st4 st5 st6">WORLD OF</text>
	</g>
	<g>
		<text transform="matrix(1 0 0 1 817.4479 646.8411)" class="st4 st5 st6">CONGRESS</text>
	</g>
	<g>
		<text transform="matrix(1 0 0 1 1874.387 434.9109)" class="st4 st5 st7">®</text>
	</g>
	<text transform="matrix(1 0 0 1 817.447 372.3201)" class="st4 st1 st8">DRONES &amp;</text>
	<text transform="matrix(1 0 0 1 817.447 532.1802)" class="st4 st1 st8">ROBOTICS</text>
	<g>
		<text transform="matrix(1 0 0 1 828.5666 750.5256)" class="st4 st1 st9">SINGAPORE</text>
	</g>
	<g>
		<g>
			<path class="st0" d="M677.9,670.6c-1.6,0-3.3-0.3-4.9-0.9c-1.7-0.6-41.9-15.4-82.3-52.8c-37.4-34.7-82-96.2-82-192.1
				s44.6-157.4,82-192.1c40.4-37.5,80.6-52.2,82.3-52.8c7.5-2.7,15.7,1.2,18.4,8.6s-1.2,15.7-8.6,18.4l0,0
				c-0.4,0.1-37.2,13.8-73.3,47.6c-47.7,44.7-71.9,102-71.9,170.3s24.2,125.5,71.9,170.3c36.1,33.8,72.9,47.5,73.3,47.6
				c7.5,2.7,11.3,11,8.6,18.4C689.3,666.9,683.8,670.6,677.9,670.6z"/>
		</g>
		<g>
			<path class="st0" d="M14.9,670.6c-5.9,0-11.4-3.7-13.5-9.5c-2.7-7.5,1.2-15.7,8.6-18.4c0.3-0.1,37.2-13.8,73.3-47.6
				c47.7-44.7,71.9-102,71.9-170.3S131,299.3,83.3,254.5C47.2,220.7,10.4,207,10,206.9c-7.4-2.7-11.3-11-8.6-18.4
				c2.7-7.5,10.9-11.3,18.4-8.6c1.7,0.6,41.9,15.4,82.3,52.8c37.4,34.7,81.9,96.2,81.9,192.1s-44.6,157.4-82,192.1
				c-40.4,37.5-80.6,52.2-82.3,52.8C18.2,670.3,16.5,670.6,14.9,670.6z"/>
		</g>
	</g>
	<g>
		<g>
			<path class="st0" d="M346.4,248.4c-95.2,0-156.5-36.4-191.1-66.9c-37.8-33.4-52.9-66.9-53.5-68.3c-3.2-7.3,0.1-15.8,7.4-19
				s15.8,0.1,19,7.4c0.1,0.3,13.7,30,47.2,59.2c44.8,39,102.3,58.8,171,58.8c164.4,0,217.7-116.8,218.3-118
				c3.2-7.3,11.7-10.6,19-7.4s10.6,11.7,7.4,19c-0.6,1.4-15.7,34.9-53.5,68.3C502.9,212,441.6,248.4,346.4,248.4z"/>
		</g>
		<g>
			<path class="st0" d="M577.8,756.5c-5.5,0-10.8-3.2-13.2-8.6c-0.3-0.6-13.8-30.2-47.3-59.3c-44.8-39-102.4-58.8-171-58.8
				s-126.2,19.8-171,58.8c-33.6,29.2-47.1,59-47.3,59.3c-3.2,7.2-11.7,10.5-19,7.3c-7.2-3.2-10.5-11.7-7.3-18.9
				c0.6-1.4,15.7-34.9,53.5-68.3c34.6-30.5,95.9-66.9,191.1-66.9s156.5,36.4,191.1,66.9c37.8,33.4,52.9,66.9,53.5,68.3
				c3.2,7.3-0.1,15.8-7.4,19C581.7,756.1,579.8,756.5,577.8,756.5z"/>
		</g>
	</g>
</g>
</svg>
